<svg width="170" height="160" fill="none" xmlns="http://www.w3.org/2000/svg"><path d="M44.79 23.09L6.242 89.996c-17.736 30.788 4.434 69.277 39.906 69.277h77.086c35.472 0 57.642-38.489 39.906-69.277l-38.538-66.904c-17.736-30.788-62.076-30.788-79.812 0z" fill="#F1F1F1"/><path d="M75.227 126.044c-2.184 0-4.376-.506-6.501-1.537-2.678-1.303-5.957-4.308-6.355-11.212-.505-8.655 3.696-22.27 10.168-34.357-13.409 5.378-26.643 28.269-30.67 36.973a6.783 6.783 0 01-9.023 3.306c-3.405-1.585-4.88-5.63-3.298-9.044.213-.457 5.249-11.26 13.282-22.19C54.434 72.19 66.271 64.185 78.011 64.185c1.407 0 2.765.127 4.056.37 2.94-3.51 6.044-6.438 9.198-8.45 6.316-4.036 12.913-4.571 18.599-1.518 22.461 12.107 20.589 58.872 20.297 64.162a6.792 6.792 0 01-7.15 6.428c-3.745-.204-6.617-3.413-6.413-7.167 0-.107.591-11.523-1.097-23.902-1.999-14.636-6.277-24.409-12.07-27.53-2.057-1.109-5.045.894-7.19 2.761a32.009 32.009 0 00-2.531 2.5 22.061 22.061 0 012.784 5.115c5.152 13.206.291 34.716-10.013 44.265-3.444 3.19-7.344 4.824-11.264 4.824h.01zm9.479-40.999a95.11 95.11 0 00-4.075 8.616c-3.833 9.287-4.803 15.705-4.725 18.564.359-.165.795-.476 1.368-1.001 5.025-4.649 8.974-17.349 7.441-26.169l-.01-.01zm-.01-37.255c4.49 0 8.13-3.648 8.13-8.148s-3.64-8.15-8.13-8.15-8.13 3.65-8.13 8.15 3.64 8.149 8.13 8.149z" fill="#000"/></svg>