<svg width="171" height="161" fill="none" xmlns="http://www.w3.org/2000/svg"><path d="M45.405 23.814L6.867 90.728c-17.735 30.787 4.435 69.277 39.907 69.277h77.085c35.472 0 57.642-38.49 39.906-69.277l-38.538-66.914c-17.736-30.788-62.076-30.788-79.812 0h-.01z" fill="#F1F1F1"/><path d="M85.311 48.514c4.49 0 8.13-3.649 8.13-8.15 0-4.5-3.64-8.148-8.13-8.148s-8.13 3.648-8.13 8.149c0 4.5 3.64 8.149 8.13 8.149zm-3.648 83.494c-2.31 0-4.628-.535-6.87-1.624-2.794-1.361-6.209-4.502-6.626-11.786-.573-9.87 4.444-25.624 12.021-39.248-15.64 4.736-31.397 31.809-36.073 41.874-1.582 3.403-5.618 4.891-9.023 3.306-3.396-1.585-4.88-5.63-3.3-9.034 2.397-5.164 24.208-50.47 52.966-50.47 1.65 0 3.24.165 4.754.476 3.29-3.967 6.773-7.273 10.295-9.53 6.753-4.317 13.806-4.9 19.851-1.643 3.308 1.78 4.54 5.903 2.765 9.219a6.779 6.779 0 01-9.198 2.771c-2.775-1.497-6.588 1.148-9.295 3.618a38.056 38.056 0 00-2.746 2.81c1.349 1.721 2.474 3.715 3.348 5.952 5.511 14.11.116 37.974-10.896 48.175-3.668 3.393-7.82 5.144-11.983 5.144l.01-.01zm10.79-46.648a104.768 104.768 0 00-5.784 12.058c-4.453 11.047-5.22 18.292-4.909 20.966.602-.039 1.436-.379 2.668-1.517 6.055-5.611 10.731-21.53 8.024-31.517v.01z" fill="#000"/></svg>