<svg width="171" height="160" fill="none" xmlns="http://www.w3.org/2000/svg"><path d="M45.593 23.09L7.055 90.006c-17.736 30.788 4.434 69.277 39.906 69.277h77.085c35.472 0 57.642-38.489 39.906-69.277L125.414 23.09c-17.736-30.788-62.076-30.788-79.812 0h-.01z" fill="#F1F1F1"/><path d="M85.509 47.79c4.49 0 8.13-3.648 8.13-8.148s-3.64-8.15-8.13-8.15-8.131 3.65-8.131 8.15 3.64 8.149 8.13 8.149zm1.261 80.84c-4.502 0-8.451-1.896-11.187-5.465-3.464-4.531-4.745-10.064-3.706-15.987 2.357-13.41 16.94-28.016 29.854-38.616-1.116-.175-2.338-.184-3.687-.019-9.353 1.118-23.266 10.308-39.159 25.877-12.74 12.486-22.422 24.787-22.52 24.914a6.78 6.78 0 01-9.537 1.147 6.817 6.817 0 01-1.145-9.559c4.202-5.358 41.847-52.454 70.75-55.906 6.676-.797 12.517.652 17.397 4.289a211.18 211.18 0 018.257-5.621 6.774 6.774 0 019.372 2.081 6.827 6.827 0 01-2.066 9.404c-2.193 1.4-4.59 3.014-7.083 4.794 2.454 5.689 2.901 12.398 1.213 19.702-3.998 17.29-19.755 35.669-33.057 38.557a17.599 17.599 0 01-3.706.408h.01zm24.004-49.867c-12.323 10.104-23.995 22.104-25.518 30.778-.495 2.801.33 4.328 1.106 5.339.078.097.117.136.117.136 2.348.807 12.875-5.64 19.89-18.467 2.018-3.695 5.404-11.115 4.405-17.776v-.01z" fill="#000"/></svg>