<svg width="170" height="161" fill="none" xmlns="http://www.w3.org/2000/svg"><path d="M45.191 23.813L6.653 90.728c-17.736 30.787 4.434 69.277 39.906 69.277h77.086c35.472 0 57.642-38.49 39.906-69.277l-38.538-66.915c-17.736-30.787-62.076-30.787-79.812 0h-.01z" fill="#F1F1F1"/><path d="M85.097 48.514c4.49 0 8.131-3.649 8.131-8.15 0-4.5-3.64-8.149-8.13-8.149-4.491 0-8.131 3.649-8.131 8.15 0 4.5 3.64 8.149 8.13 8.149zm46.679 76.92a6.763 6.763 0 01-5.87-3.384c-4.182-7.186-10.382-13.079-17.891-17.358-11.963 11.222-29.632 20.732-45.369 20.732h-.728c-9.644-.184-21.034-4.609-21.422-16.492-.195-6 2.881-12.185 8.45-16.97 5.502-4.726 13.05-7.711 21.258-8.401 12.177-1.031 24.004.67 34.521 4.638.311-.418.612-.836.903-1.254 2.047-2.947 5.239-8.5 3.638-12.613-.388-.982-1.232-2.44-4.094-3.656-8.344-3.55-29.602-2.14-52.548 7.458-3.464 1.45-7.442-.194-8.888-3.656-1.446-3.472.194-7.459 3.648-8.908 9.994-4.181 21.714-7.517 32.144-9.14 13.06-2.043 23.47-1.46 30.932 1.71 5.54 2.354 9.498 6.234 11.439 11.233 2.891 7.4 1.212 16.006-4.842 24.923 8.519 5.32 15.621 12.399 20.56 20.908 1.892 3.248.795 7.42-2.445 9.306a6.71 6.71 0 01-3.416.924h.02zM77.2 96.874c-1.94 0-3.891.077-5.86.252-11.556.973-17.387 7.916-17.27 11.358.067 2.198 4.123 3.258 8.1 3.326 9.393.185 21.763-5.154 31.689-12.826-5.278-1.381-10.886-2.11-16.66-2.11z" fill="#000"/></svg>