<svg width="170" height="160" fill="none" xmlns="http://www.w3.org/2000/svg"><path d="M44.79 23.814L6.242 90.718c-17.736 30.788 4.434 69.277 39.906 69.277h77.086c35.472 0 57.642-38.489 39.906-69.277l-38.538-66.914c-17.736-30.788-62.076-30.788-79.812 0v.01z" fill="#F1F1F1"/><path d="M84.696 48.514c4.49 0 8.13-3.649 8.13-8.15 0-4.5-3.64-8.148-8.13-8.148s-8.13 3.648-8.13 8.149c0 4.5 3.64 8.149 8.13 8.149zm-.99 85.429c-18.638 0-38.499-3.967-53.654-13.974a6.816 6.816 0 01-1.93-9.433 6.782 6.782 0 019.41-1.935c25.178 16.629 67.131 13.556 84.945 4.143 5.142-2.723 6.336-4.989 6.345-5.572.059-3.248-.902-5.689-3.017-7.673-1.543-1.449-3.949-2.927-7.704-4.152-6.801 8.392-18.88 15.121-33.677 14.859-17.105-.311-28.797-6.729-29.088-15.978-.358-11.435 15.127-13.944 21.802-14.489 13.418-1.099 24.537-1.07 33.58.126.174-2.314-.728-4.307-2.736-6.058-5.181-4.522-15.951-5.679-28.787-3.092-12.613 2.538-25.527 8.256-33.706 14.927a6.783 6.783 0 01-9.557-.982c-2.368-2.918-1.931-7.206.98-9.579 9.78-7.984 24.964-14.771 39.614-17.718 17.445-3.51 31.786-1.322 40.372 6.165 5.86 5.106 8.364 12.146 7.102 19.44 4.512 1.672 8.189 3.86 11.09 6.583 4.91 4.61 7.432 10.784 7.306 17.844-.077 4.697-2.503 11.524-13.583 17.378-10.392 5.494-27.186 9.161-45.097 9.161l-.01.009zm-12.03-39.588c2.551 1.04 6.752 2.12 12.981 2.237 5.938.107 11.381-1.469 15.737-3.92-6.015-.242-13.311-.087-22.16.633-2.852.233-4.997.632-6.559 1.05z" fill="#000"/></svg>