<svg width="171" height="161" fill="none" xmlns="http://www.w3.org/2000/svg"><path d="M45.593 23.814L7.055 90.728c-17.736 30.787 4.434 69.277 39.906 69.277h77.085c35.472 0 57.642-38.49 39.906-69.277l-38.538-66.914c-17.736-30.788-62.076-30.788-79.812 0h-.01z" fill="#F1F1F1"/><path d="M85.509 48.514c4.49 0 8.13-3.649 8.13-8.15 0-4.5-3.64-8.148-8.13-8.148s-8.131 3.648-8.131 8.149c0 4.5 3.64 8.149 8.13 8.149zM69.83 131.007a6.784 6.784 0 01-5.968-3.55c-.048-.087-.34-.613-.805-1.497-3.58-6.526-20.627-35.466-44.369-42.71-3.59-1.09-5.618-4.901-4.521-8.49 1.086-3.598 4.89-5.63 8.47-4.531 8.732 2.664 16.581 7.487 23.392 13.147-1.28-6.758-.863-11.757 1.184-15.423 2.057-3.686 5.627-5.844 10.052-6.078 6.753-.35 13.302 3.579 19.841 11.942 1.068-2.781 2.63-5.368 4.793-7.634 2.95-3.102 6.938-4.512 11.207-3.987 5.656.7 15.329 4.697 34.045 31.206 9.654 13.673 17.144 26.878 17.465 27.433a6.813 6.813 0 01-2.552 9.277c-3.26 1.857-7.403.71-9.256-2.558-.078-.136-7.879-13.876-17.465-27.316-15.562-21.821-22.412-24.243-23.741-24.505-3.91 4.366-3.328 12.855-1.106 21.374 5.006 11.018 8.16 20.596 8.315 21.063a6.815 6.815 0 01-3.755 8.373 6.773 6.773 0 01-8.655-2.985c-1.057-1.936-5.918-11.164-8.887-22.182-.66-1.43-1.358-2.878-2.076-4.318-7.695-15.393-13.594-20.586-16.495-21.462-.155 2.295.32 8.82 6.734 24.098 3.531 8.421 7.47 16.152 9.217 19.488.582 1.06.922 1.74 1.019 1.925a6.812 6.812 0 01-2.91 9.092 6.8 6.8 0 01-3.154.778l-.02.03z" fill="#000"/></svg>