<svg width="225" height="106" fill="none" xmlns="http://www.w3.org/2000/svg"><path d="M14.23 100.91H9.19l-.79 1.8H6.15l4.25-9.19H13l4.24 9.19h-2.25l-.77-1.8h.01zm-.71-1.62l-1.81-4.18-1.81 4.18h3.62zm11.77 1.3c0 1.6-1.37 2.31-3.9 2.31s-4.01-.77-4.01-2.35h2.17c0 .7.83 1 1.97 1 1.14 0 1.72-.21 1.72-.75 0-.63-.87-.71-2.73-1.02-1.85-.3-2.85-.7-2.85-2.09s1.25-2.17 3.61-2.17 3.7.92 3.7 2.21h-2.01c0-.45-.51-.89-1.72-.89-1.09 0-1.68.22-1.68.76 0 .6 1.17.67 2.42.89 1.97.34 3.31.49 3.31 2.1zm1.01-6.63c0-.6.42-.95 1.02-.95.6 0 1.04.34 1.04.95 0 .61-.43.93-1.04.93-.61 0-1.02-.34-1.02-.93zm.04 1.75h1.98v7h-1.98v-7zm10.81 2.45v4.54h-2v-.93c-.3.46-1.31 1.13-2.88 1.13-1.64 0-2.77-.68-2.77-2.06 0-1.47.76-2.65 5.65-2.35v-.33c0-.74-.33-1.27-1.77-1.27-1.21 0-1.59.35-1.69.84h-1.86c.22-1.55 1.64-2.21 3.56-2.21 1.92 0 3.77.58 3.77 2.64h-.01zm-2 1.51c-2.65-.14-3.64.11-3.64 1.1 0 .66.49.92 1.35.92 1.08 0 1.92-.42 2.28-1.04v-.99l.01.01zm16.72-3.06c0 2.09-1.38 3.11-3.93 3.11h-3.3v2.98h-2.11v-9.19h5.66c2.52 0 3.68 1.25 3.68 3.1zm-2.15 0c0-1.04-.66-1.47-1.89-1.47h-3.18v2.98h3.18c1.23 0 1.89-.5 1.89-1.51zm10.32 1.55v4.54h-2v-.93c-.3.46-1.31 1.13-2.88 1.13-1.64 0-2.77-.68-2.77-2.06 0-1.47.76-2.65 5.65-2.35v-.33c0-.74-.33-1.27-1.77-1.27-1.21 0-1.59.35-1.69.84h-1.86c.22-1.55 1.64-2.21 3.56-2.21 1.92 0 3.77.58 3.77 2.64h-.01zm-2 1.51c-2.65-.14-3.64.11-3.64 1.1 0 .66.49.92 1.35.92 1.08 0 1.92-.42 2.28-1.04v-.99l.01.01zm9.57.3h1.79c-.37 2.1-2.14 2.93-3.98 2.93-2.05 0-4.2-.98-4.2-3.69s2.15-3.69 4.2-3.69c1.84 0 3.61.83 3.98 2.93h-1.79c-.24-.89-.88-1.56-2.19-1.56-1.68 0-2.32 1.09-2.32 2.32 0 1.23.64 2.31 2.32 2.31 1.31 0 1.96-.67 2.19-1.55zm2.93-6.01c0-.6.42-.95 1.02-.95.6 0 1.04.34 1.04.95 0 .61-.43.93-1.04.93-.61 0-1.02-.34-1.02-.93zm.04 1.75h1.98v7h-1.98v-7zm6.19 0h1.83v1.37h-1.83v5.63h-1.98v-5.63h-1.17v-1.37h1.17c0-1.39.49-2.69 2.82-2.69.46 0 .76.04 1.17.09v1.42c-1.3-.11-2.01-.05-2.01 1.18zm3.02-1.75c0-.6.42-.95 1.02-.95.6 0 1.04.34 1.04.95 0 .61-.43.93-1.04.93-.61 0-1.02-.34-1.02-.93zm.04 1.75h1.98v7h-1.98v-7zm9.56 4.26h1.79c-.37 2.1-2.14 2.93-3.98 2.93-2.05 0-4.2-.98-4.2-3.69s2.15-3.69 4.2-3.69c1.84 0 3.61.83 3.98 2.93h-1.79c-.24-.89-.88-1.56-2.19-1.56-1.68 0-2.32 1.09-2.32 2.32 0 1.23.64 2.31 2.32 2.31 1.31 0 1.96-.67 2.19-1.55zm15.32-4.83h-3.48v7.56h-2.11v-7.56h-3.48v-1.63h9.07v1.63zm6.7.5v1.84h-.07c-.25-.11-.72-.22-1.33-.22-1.65 0-2.26 1.04-2.26 2.13v3.32h-2v-7h2V97c.29-.5 1.12-1.46 2.61-1.46.46 0 .8.04 1.04.11l.01-.01zm1.01-1.68c0-.6.42-.95 1.02-.95.6 0 1.04.34 1.04.95 0 .61-.43.93-1.04.93-.61 0-1.02-.34-1.02-.93zm.04 1.75h1.98v7h-1.98v-7zm10.81 2.45v4.54h-2v-.93c-.3.46-1.31 1.13-2.88 1.13-1.64 0-2.77-.68-2.77-2.06 0-1.47.76-2.65 5.65-2.35v-.33c0-.74-.33-1.27-1.77-1.27-1.21 0-1.59.35-1.69.84h-1.86c.22-1.55 1.64-2.21 3.56-2.21 1.92 0 3.77.58 3.77 2.64h-.01zm-2 1.51c-2.65-.14-3.64.11-3.64 1.1 0 .66.49.92 1.35.92 1.08 0 1.92-.42 2.28-1.04v-.99l.01.01zm6.22-2.6v2.94c0 1.14.42 1.37 2.05 1.2v1.5c-.26.04-.58.11-1.04.11-2.52 0-3.01-1.09-3.01-2.84v-2.9h-1.3v-1.37h1.3V93.9h2v1.81h2.05v1.37h-2.05v-.01zm10.86 1v4.64h-1.98v-4.14c0-.84-.5-1.56-1.73-1.56s-1.79.75-1.79 1.56v4.14h-2v-9.19h2v3.18c.32-.42 1.17-1.17 2.65-1.17 1.8 0 2.85.97 2.85 2.55v-.01zm3.57-5.06v9.69h-2v-9.69h2zm9.53 6.2c0 2.64-2.13 3.69-4.18 3.69s-4.18-1.05-4.18-3.69c0-2.64 2.14-3.69 4.18-3.69 2.04 0 4.18 1.05 4.18 3.69zm-1.86 0c0-1.23-.63-2.32-2.31-2.32-1.68 0-2.3 1.09-2.3 2.32 0 1.23.62 2.31 2.3 2.31 1.68 0 2.31-1.09 2.31-2.31zm10.54-1.14v4.64h-2v-4.14c0-.84-.49-1.56-1.72-1.56s-1.79.75-1.79 1.56v4.14h-2v-7h2v.99c.3-.42 1.16-1.17 2.65-1.17 1.8 0 2.85.97 2.85 2.55l.01-.01zm13.46 4.64h-8.08v-9.19h2.13v7.56h5.95v1.63zm2.46-2.99c.16.96.83 1.8 2.28 1.8 1.06 0 1.75-.47 2.02-1.06h1.76c-.46 1.75-2.05 2.44-3.78 2.44-2 0-4.08-1.1-4.08-3.69s2.06-3.69 4.07-3.69c2.01 0 4.15 1.25 3.94 4.2h-6.21zm.07-1.31h4.32c-.21-.84-.8-1.52-2.11-1.52-1.31 0-1.94.68-2.21 1.52zm14.47-.25v4.54h-2v-.93c-.3.46-1.31 1.13-2.88 1.13-1.64 0-2.77-.68-2.77-2.06 0-1.47.76-2.65 5.65-2.35v-.33c0-.74-.33-1.27-1.77-1.27-1.21 0-1.59.35-1.69.84h-1.86c.22-1.55 1.64-2.21 3.56-2.21 1.92 0 3.77.58 3.77 2.64h-.01zm-2 1.51c-2.65-.14-3.64.11-3.64 1.1 0 .66.49.92 1.35.92 1.08 0 1.92-.42 2.28-1.04v-.99l.01.01zm11.37-3.96v6.34c0 2.73-2.27 3.1-4.28 3.1-2.34 0-3.68-.8-3.81-2.14h1.86c.14.43.84.76 1.94.76 1.59 0 2.3-.46 2.3-1.72v-.64c-.53.56-1.33.87-2.51.87-2.05 0-3.7-.93-3.7-3.31s1.65-3.44 3.7-3.44c1.08 0 1.94.41 2.51 1.1v-.92h1.99zm-1.73 3.26c0-1.33-.88-2.06-2.32-2.06s-2.26.75-2.26 2.06.83 2.06 2.26 2.06c1.43 0 2.32-.75 2.32-2.06zm3.31 1.37V95.7h2v4.14c0 .84.49 1.56 1.72 1.56s1.79-.75 1.79-1.56V95.7h2v7h-2v-.98c-.3.42-1.16 1.18-2.65 1.18-1.8 0-2.85-.98-2.85-2.56h-.01zm10.48-.62c.16.96.83 1.8 2.28 1.8 1.06 0 1.75-.47 2.02-1.06h1.76c-.46 1.75-2.05 2.44-3.78 2.44-2 0-4.08-1.1-4.08-3.69s2.06-3.69 4.07-3.69c2.01 0 4.15 1.25 3.94 4.2h-6.21zm.07-1.31h4.32c-.21-.84-.8-1.52-2.11-1.52-1.31 0-1.94.68-2.21 1.52zM107.71 28.75c.13.15.29.28.48.4 1.16.64 2.8.29 3.65-.78.28-.38.91-1.45.15-2.57-.11-.16-.26-.3-.42-.41-.19-.13-.42-.21-.69-.26l-.1-.02c-.43-.11-.87-.14-1.33-.09-1.09.21-2.21 1.1-2.23 2.25v.02c-.01.32.04.62.15.9.09.23.2.41.35.58l-.01-.02zm63.97 0c.13.15.29.28.48.4 1.16.64 2.8.29 3.65-.78.28-.38.91-1.45.15-2.57-.11-.16-.26-.31-.43-.42-.19-.13-.42-.21-.69-.26l-.11-.02c-.42-.11-.87-.14-1.33-.09-1.09.21-2.21 1.1-2.23 2.25v.02c-.01.32.04.62.15.9.09.23.2.41.35.58l.01-.01zM47.6 25.38c-.19-.13-.42-.21-.69-.26l-.1-.02c-.43-.11-.87-.14-1.33-.09-1.09.21-2.21 1.1-2.23 2.25v.02c-.01.32.04.62.15.9.09.23.2.41.35.58.13.15.29.28.48.4 1.16.64 2.8.29 3.65-.78.28-.38.91-1.45.15-2.57-.11-.16-.26-.3-.42-.41l-.01-.02zm28.11 23.81c-.39-.25-.85-.43-1.36-.53l-.11-.02c-.77-.21-1.58-.26-2.4-.16-1.99.38-4.11 2-4.16 4.29v.02c-.02.6.08 1.19.29 1.73.17.43.39.81.68 1.13.26.3.58.57.95.79 2.14 1.18 5.16.55 6.73-1.41 1.19-1.58 1.3-3.45.27-4.96-.24-.35-.54-.64-.89-.87v-.01z" fill="#000"/><path d="M196.15 46.15c-1.06 0-2.15-.01-3.28-.04-9.26-.23-19.81-1.95-29.1-3.47-.39-.06-.77-.13-1.15-.19l-2.22 2.8c1.36-.41 2.78-.58 4.24-.42 4.21.48 8.14 3.15 12.3 5.98 4.11 2.79 8.37 5.68 12.71 6.12l1.56.15-.31 3.11-1.56-.15c-5.13-.51-9.72-3.63-14.16-6.64-3.84-2.6-7.46-5.06-10.9-5.45-3.71-.42-7.54 2.5-10.27 5.39l-3.4 4.3-2.55-1.81c.13-.2 1.45-2.25 3.57-4.53l7.45-9.42c-6.19-.99-11.84-1.77-15.9-1.77h-1.37v-3.13h1.37c5.33 0 12.99 1.25 21.1 2.57 9.2 1.5 19.63 3.2 28.68 3.43 7.03.17 12.59-.26 16.68-.82l2.41-3.65c-4.36.8-10.81 1.64-18.73 1.64-.96 0-1.94-.01-2.94-.04-8.77-.23-18.79-1.92-27.62-3.4-7.6-1.28-14.77-2.49-19.58-2.49h-1.37v-3.05h1.37c5.06 0 12.02 1.17 20.08 2.53 8.74 1.47 18.64 3.14 27.2 3.36 11.06.3 19.73-1.21 23.97-2.15l9.99-15.11c-.69-.42-1.39-.84-2.1-1.23C197.74 6.68 159.45 4.76 133 11.6 117.6-9.39 89.24 3.35 69.51 9.34 46.85 16.87 23.7 24.12 0 26.63l.74 8.36c5.06-1.38 20.76-5.3 29.61-3.43 5.57 1.17 7.49 2.84 9.04 4.17 1.27 1.1 2.11 1.83 5.3 2 6.16.35 14.35-1.62 16.71-2.23l1.02 3.06c-2.04.54-9.65 2.43-16.21 2.43-.58 0-1.15-.01-1.71-.05-4.28-.24-5.7-1.48-7.21-2.78-1.33-1.15-2.84-2.46-7.6-3.46-8.39-1.77-24.52 2.41-28.65 3.55l.22 2.42c2.14-.61 5.66-1.55 9.57-2.35 1.13-.2 2.28-.45 3.5-.7 6.98-1.47 15.66-3.31 20.78 2.61 7.4 5.38 17.33 3.64 26.97.95l1.12-.31 1.02 3.05-1.28.36c-5.32 1.49-10.75 2.69-15.91 2.7-.63 0-1.25-.02-1.87-.05.27.4.49.8.69 1.19l.72 1.43-2.87 1.44-.72-1.44c-.7-1.4-1.78-2.96-5.69-3.69-1.27-.24-4.23.58-7.09 1.37-6.17 1.71-13.86 3.82-18.15-.04l-1.19-1.07 2.15-2.39 1.2 1.07c2.99 2.69 9.73.83 15.15-.67 1.53-.42 2.92-.8 4.17-1.08-.15-.11-.31-.21-.46-.33l-.15-.11-.12-.15c-3.86-4.62-11.26-3.06-17.78-1.68-1.25.26-2.42.51-3.56.72-4.12.85-7.9 1.88-9.88 2.45l1.81 20.38c13.7-1.02 26.98-3.36 40.22-6.56 1.9 14.3 15.01 25.63 29.57 24.43 14.35-.98 25.65-7.36 38.48-11.51 25.45-10.09 52.92-9.44 77.53 2.48l18.21-27.56c-3.12.32-6.84.55-11.21.55l-.04-.01zm-23.2-23.98h.08c.82-.12 1.63-.06 2.42.14.61.12 1.18.35 1.67.67.49.32.9.72 1.23 1.21 1.23 1.82 1.13 4.09-.26 5.95-1.14 1.43-2.9 2.2-4.65 2.2-.94 0-1.87-.22-2.69-.69l-.04-.02c-.45-.27-.85-.6-1.18-.98-.36-.42-.65-.89-.85-1.42a5.19 5.19 0 01-.35-2.04c.06-2.43 2-4.53 4.63-5.01l-.01-.01zm-122.8 7.96c-1.14 1.43-2.91 2.2-4.65 2.2-.94 0-1.87-.22-2.69-.69l-.04-.02c-.45-.27-.85-.6-1.18-.98-.36-.42-.65-.89-.85-1.42a5.19 5.19 0 01-.35-2.04c.06-2.43 2-4.53 4.63-5.01h.08c.82-.12 1.63-.06 2.42.14.61.12 1.18.35 1.67.67.49.32.9.72 1.23 1.21 1.23 1.82 1.13 4.09-.26 5.95l-.01-.01zm58.83-7.96h.08c.82-.12 1.63-.06 2.42.14.61.12 1.18.35 1.67.67.49.32.9.72 1.23 1.21 1.23 1.82 1.13 4.09-.26 5.95-1.14 1.43-2.9 2.2-4.65 2.2-.94 0-1.87-.22-2.69-.69l-.04-.02c-.45-.27-.85-.6-1.18-.98-.36-.42-.65-.89-.85-1.42a5.19 5.19 0 01-.35-2.04c.06-2.43 2-4.53 4.63-5.01l-.01-.01zM78.6 56.79c-1.62 2.02-4.12 3.12-6.6 3.12a7.86 7.86 0 01-3.82-.97l-.04-.02c-.63-.38-1.19-.84-1.65-1.38-.5-.58-.9-1.24-1.19-1.97-.36-.9-.52-1.87-.49-2.87.08-3.35 2.9-6.38 6.56-7.05h.08c1.19-.16 2.36-.09 3.49.21.86.17 1.65.48 2.34.93.67.44 1.24 1 1.7 1.66 1.72 2.54 1.58 5.73-.38 8.34zm54.2 0c-1.62 2.02-4.12 3.12-6.6 3.12a7.86 7.86 0 01-3.82-.97l-.04-.02c-.63-.38-1.19-.84-1.65-1.38-.5-.58-.9-1.24-1.19-1.97-.36-.9-.52-1.87-.49-2.87.08-3.35 2.9-6.38 6.56-7.05h.08c1.19-.16 2.36-.09 3.49.21.86.17 1.65.48 2.34.93.67.44 1.24 1 1.7 1.66 1.72 2.54 1.58 5.73-.38 8.34zm3.63-22.67l-1.33.02c-5.15.08-13.67 4.01-21.91 7.81-8.41 3.87-16.51 7.6-21.8 7.6-.99 0-1.89-.13-2.67-.42-.4.72-.47 1.42-.11 2.16 1.88 3.79 13.8-1.71 23.37-6.12 8.51-3.92 17.3-7.98 23.06-8.07l1.38-.02v2.87l-1.33.03c-5.15.08-13.67 4-21.91 7.8-8.41 3.88-16.51 7.61-21.8 7.61-2.49 0-4.35-.82-5.34-2.83-.99-1.98-.63-3.69.38-5.2-.14-.2-.26-.42-.38-.64-2.14-4.32 2.07-7.35 5.45-9.79.17-.12.33-.24.5-.36-2.6-.5-6.48-.13-11.33 1.11-5.5 1.41-10.34 3.44-10.39 3.47l-1.16.48-.92-2.72.96-.4c1.93-.82 17.9-7.38 25.5-4.11.47-.49.78-.94.79-1.31.01-.47-.58-1.02-.93-1.31-2.1-1.71-7.02-1.68-13.86.06-5.5 1.41-10.34 3.45-10.39 3.46l-2.87 1.22-.91-2.73 2.66-1.13c2.08-.89 20.57-8.48 27.17-3.11 1.36 1.11 2.03 2.32 1.99 3.61-.03 1.06-.52 2-1.28 2.88-.58.67-1.32 1.3-2.13 1.93-.55.43-1.15.86-1.75 1.29-3.19 2.3-5.29 3.99-4.7 5.84.03.11.08.23.14.34.4.8 1.25 1.19 2.43 1.26 4.39.26 13.4-3.89 20.95-7.37 8.51-3.92 17.3-7.98 23.06-8.07l1.38-.02v2.87l.03.01z" fill="#000"/><path d="M129.91 49.19c-.39-.25-.85-.43-1.36-.53l-.11-.02c-.77-.21-1.58-.26-2.4-.16-1.99.38-4.11 2-4.16 4.29v.02c-.02.6.08 1.19.29 1.73.17.43.39.81.68 1.13.26.3.58.57.95.79 2.14 1.18 5.16.55 6.73-1.41 1.19-1.58 1.3-3.45.27-4.97-.24-.35-.54-.64-.89-.87z" fill="#000"/></svg>