<svg width="1807" height="1692" fill="none" xmlns="http://www.w3.org/2000/svg"><g clip-path="url(#clip0_3_104)" fill="#F1F1F1"><path d="M1637.1 1614.68c-132.03-97.53-270.35-188.61-421.92-253.03-52.4-22.1-102.07-41.89-158.94-56.86-53.47-14.15-129.839-23.82-169.312 29.17-15.048 19.88-22.567 47.96-20.061 72.68.619 15.39 8.901 38.06 12.078 48.6-.196.28-.392.56-.557.78-3.795 5.5-5.054 6.53-6.446 7.68-4.631 3.35-10.418 4.59-17.751 5.7-10.253 1.36-23.785 1.09-38.071-.59-80.802-10.97-159.346-44.04-235.084-76.27-126.537-55.68-253.538-123.92-375.237-190.6-72.159-36.4-128.393 63.54-60.73 106.58 168.227 96.86 536.759 309.77 726.862 283.32 43.836-5.84 84.702-29.83 107.909-67.54 10.139-14.81 17.535-30.49 20.27-48.82 2.94-18.05.17-37.38-4.675-52.88a382.489 382.489 0 00-3.651-10.96c11.906.77 24.626 3.31 37.516 5.95 30.87 6.84 63.43 17.22 95.76 28.6 48.29 17.16 96.99 36.08 143.56 57.78 110.16 52.31 216.26 114.72 318.85 180.66 47.29 29.17 92.53-35.24 49.65-69.95h-.02zm-757.237-155.89c.052 1.25.268 1.42 0 0zm93.881-46.67h.011c-.134.05-.32.14-.423.18-.908.31-.702.06.412-.18zm826.736 114.34c-40.14-69.3-82.24-136.59-125.88-203.61-133.66-201.3-274.31-397.929-452.22-564.264-61.1-55.879-128.85-104.286-199.05-148.628C896.892 532.11 740.485 460.65 585.347 485.251c-87.311 14.343-160.574 65.238-186.164 139.938-46.105-7.801-92.416-14.405-138.728-20.174-60.452-7.213-121.328-12.187-182.244-14.663-15.348-.64-45.785-1.744-61.195-1.94-41.258-1.125-75.377 33.176-73.975 74.463 1.197 40.152 35.028 71.646 75.14 70.016 127.537-3.746 256.745 4.468 383.808 24.694 41.856 126.266 182.471 248.465 281.045 325.585 71.768 53.44 158.068 107.48 252.413 108.03 73.883 1.57 151.173-43.58 169.813-118.98 23.12-101.203-58.57-179.784-129.999-234.321-38.246-29.884-79.771-56.838-123.494-77.982-97.285-46.354-199.098-79.654-303.067-104.513 16.761-15.376 38.349-23.61 61.917-28.223 83.371-13.755 167.093 14.364 243.625 48.49 84.031 38.377 163.828 89.86 237.738 145.996 74.26 58.232 140.09 125.203 204.42 196.613 154.86 173.73 293.46 364.03 422.67 557.79 35.62 51.14 110.33 4.62 81.41-49.61zM797.359 870.704c47.652 22.785 92.942 52.298 129.888 90.19 11.697 12.135 22.094 24.838 29.778 37.005 9.273 15.401 15.131 26.691 14.316 39.001-1.402 4.05-6.271 8.73-11.325 11.25-33.635 15.55-77.77.7-111.859-12.94-51.438-21.76-102.679-57.63-146.474-94.862-38.473-32.402-75.017-69.582-104.835-109.012-7.571-9.989-17.297-23.827-26.859-39.522 5.343 1.331 10.706 2.61 16.039 3.983 72.262 18.977 144.721 42.587 211.331 74.907zM916.83 386.011c42.825 51.493 95.53 94.328 148.77 132.024 130.96 90.788 271.15 158.895 416.98 219.459 9.77 3.972 19.22 7.76 29.53 11.733 52.74 17.883 82.18-55.012 32.55-78.984-14.67-6.305-40.21-18.533-54.73-25.323-125.04-60.584-250.32-130.239-359.71-214.433-50.23-39.636-97.23-81.078-132.371-133.355-42.949-66.043-76.553-148.071-73.448-224.289C927.825 36.221 900.935 3.756 864.33.33c-39.308-3.942-73.48 28.14-72.84 67.478-.433 47.365 9.974 94.792 25.064 138.989 23.032 66.095 57.141 125.389 100.286 179.214h-.01z"/><path d="M1124.83 225.578c37.02 0 67.14-30.132 67.14-67.168 0-37.035-30.12-67.168-67.14-67.168-37.02 0-67.14 30.133-67.14 67.168 0 37.036 30.12 67.168 67.14 67.168z"/></g><defs><clipPath id="clip0_3_104"><path fill="#fff" transform="translate(-57)" d="M0 0h1864v1692H0z"/></clipPath></defs></svg>