<svg width="297" height="140" fill="none" xmlns="http://www.w3.org/2000/svg"><path d="M18.79 133.79h-6.66l-1.04 2.38H8.12l5.62-12.14h3.43l5.6 12.14H19.8l-1.02-2.38h.01zm-.94-2.13l-2.39-5.51-2.39 5.51h4.79-.01zm15.54 1.72c0 2.12-1.8 3.05-5.15 3.05-3.35 0-5.29-1.02-5.29-3.1h2.86c0 .92 1.09 1.32 2.6 1.32s2.27-.28 2.27-.99c0-.83-1.14-.94-3.61-1.35-2.44-.4-3.76-.92-3.76-2.76 0-1.84 1.65-2.86 4.77-2.86 3.12 0 4.89 1.21 4.89 2.91h-2.65c0-.59-.68-1.18-2.27-1.18-1.44 0-2.22.29-2.22 1.01 0 .8 1.54.88 3.19 1.18 2.6.45 4.37.64 4.37 2.77zm1.34-8.76c0-.8.55-1.25 1.35-1.25s1.37.45 1.37 1.25-.57 1.23-1.37 1.23c-.8 0-1.35-.45-1.35-1.23zm.05 2.31h2.62v9.24h-2.62v-9.24zm14.27 3.24v6h-2.64v-1.23c-.4.61-1.73 1.49-3.8 1.49-2.17 0-3.66-.9-3.66-2.72 0-1.94 1.01-3.5 7.46-3.1v-.43c0-.97-.43-1.68-2.34-1.68-1.6 0-2.1.47-2.24 1.11h-2.46c.29-2.05 2.17-2.91 4.7-2.91 2.53 0 4.98.76 4.98 3.49v-.02zm-2.64 1.99c-3.5-.19-4.8.14-4.8 1.46 0 .87.64 1.21 1.79 1.21 1.42 0 2.53-.55 3.02-1.37v-1.3h-.01zm22.08-4.04c0 2.76-1.82 4.11-5.18 4.11h-4.35v3.94h-2.79v-12.14h7.47c3.33 0 4.86 1.65 4.86 4.09h-.01zm-2.84 0c0-1.37-.87-1.94-2.5-1.94h-4.2v3.94h4.2c1.63 0 2.5-.66 2.5-1.99v-.01zm13.63 2.05v6h-2.64v-1.23c-.4.61-1.73 1.49-3.8 1.49-2.17 0-3.66-.9-3.66-2.72 0-1.94 1.01-3.5 7.46-3.1v-.43c0-.97-.43-1.68-2.34-1.68-1.6 0-2.1.47-2.24 1.11H69.6c.29-2.05 2.17-2.91 4.7-2.91 2.53 0 4.98.76 4.98 3.49v-.02zm-2.64 1.99c-3.5-.19-4.8.14-4.8 1.46 0 .87.64 1.21 1.79 1.21 1.42 0 2.53-.55 3.02-1.37v-1.3h-.01zm12.65.4h2.36c-.49 2.77-2.83 3.87-5.25 3.87-2.71 0-5.55-1.3-5.55-4.87 0-3.57 2.84-4.87 5.55-4.87 2.43 0 4.77 1.09 5.25 3.87h-2.36c-.31-1.18-1.16-2.06-2.9-2.06-2.22 0-3.07 1.44-3.07 3.07s.85 3.05 3.07 3.05c1.73 0 2.58-.88 2.9-2.05v-.01zm3.86-7.94c0-.8.55-1.25 1.35-1.25s1.37.45 1.37 1.25-.57 1.23-1.37 1.23c-.8 0-1.35-.45-1.35-1.23zm.05 2.31h2.62v9.24H93.2v-9.24zm8.17 0h2.41v1.8h-2.41v7.44h-2.62v-7.44h-1.54v-1.8h1.54c0-1.84.64-3.55 3.73-3.55.61 0 1.01.05 1.54.12v1.87c-1.72-.14-2.65-.07-2.65 1.56zm3.99-2.31c0-.8.55-1.25 1.35-1.25s1.37.45 1.37 1.25-.57 1.23-1.37 1.23c-.8 0-1.35-.45-1.35-1.23zm.05 2.31h2.62v9.24h-2.62v-9.24zm12.63 5.63h2.36c-.49 2.77-2.83 3.87-5.25 3.87-2.7 0-5.55-1.3-5.55-4.87 0-3.57 2.84-4.87 5.55-4.87 2.43 0 4.77 1.09 5.25 3.87h-2.36c-.31-1.18-1.16-2.06-2.9-2.06-2.22 0-3.07 1.44-3.07 3.07s.85 3.05 3.07 3.05c1.73 0 2.58-.88 2.9-2.05v-.01zm20.23-6.38h-4.6v9.99h-2.79v-9.99h-4.6v-2.15h11.98v2.15h.01zm8.85.66v2.43h-.09c-.33-.14-.95-.29-1.75-.29-2.18 0-2.98 1.37-2.98 2.81v4.39h-2.64v-9.24h2.64v1.7a3.95 3.95 0 013.45-1.92c.61 0 1.06.05 1.37.14v-.02zm1.33-2.22c0-.8.55-1.25 1.35-1.25s1.37.45 1.37 1.25-.57 1.23-1.37 1.23c-.8 0-1.35-.45-1.35-1.23zm.05 2.31h2.62v9.24h-2.62v-9.24zm14.28 3.24v6h-2.64v-1.23c-.4.61-1.73 1.49-3.8 1.49-2.17 0-3.66-.9-3.66-2.72 0-1.94 1.01-3.5 7.46-3.1v-.43c0-.97-.43-1.68-2.34-1.68-1.6 0-2.1.47-2.24 1.11h-2.46c.29-2.05 2.17-2.91 4.7-2.91 2.53 0 4.98.76 4.98 3.49v-.02zm-2.64 1.99c-3.5-.19-4.8.14-4.8 1.46 0 .87.64 1.21 1.79 1.21 1.42 0 2.53-.55 3.02-1.37v-1.3h-.01zm8.2-3.43v3.88c0 1.51.55 1.8 2.7 1.58v1.98c-.35.05-.76.14-1.37.14-3.33 0-3.97-1.44-3.97-3.75v-3.83h-1.72v-1.8h1.72v-2.39h2.64v2.39h2.7v1.8h-2.7zm14.35 1.32v6.12h-2.62v-5.46c0-1.11-.66-2.06-2.29-2.06s-2.36.99-2.36 2.06v5.46h-2.64v-12.14h2.64v4.2c.42-.55 1.54-1.54 3.5-1.54 2.38 0 3.76 1.28 3.76 3.36h.01zm4.71-6.68v12.8h-2.64v-12.8h2.64zm12.59 8.19c0 3.49-2.81 4.87-5.51 4.87-2.7 0-5.51-1.39-5.51-4.87 0-3.48 2.83-4.87 5.51-4.87 2.68 0 5.51 1.39 5.51 4.87zm-2.46 0c0-1.63-.83-3.07-3.05-3.07-2.22 0-3.03 1.44-3.03 3.07s.82 3.05 3.03 3.05 3.05-1.44 3.05-3.05zm13.93-1.51v6.12h-2.64v-5.46c0-1.11-.64-2.06-2.27-2.06s-2.36.99-2.36 2.06v5.46h-2.64v-9.24h2.64v1.3c.4-.55 1.53-1.54 3.5-1.54 2.38 0 3.76 1.28 3.76 3.36h.01zm17.77 6.12h-10.66v-12.14h2.81v9.99h7.86v2.15h-.01zm3.24-3.94c.21 1.27 1.09 2.38 3.02 2.38 1.4 0 2.31-.62 2.67-1.4h2.32c-.61 2.31-2.71 3.23-4.99 3.23-2.64 0-5.39-1.46-5.39-4.87s2.72-4.87 5.38-4.87c2.66 0 5.48 1.65 5.2 5.55h-8.2l-.01-.02zm.09-1.73h5.7c-.28-1.11-1.06-2.01-2.79-2.01s-2.57.9-2.91 2.01zm19.11-.33v6h-2.64v-1.23c-.4.61-1.73 1.49-3.8 1.49-2.17 0-3.66-.9-3.66-2.72 0-1.94 1.01-3.5 7.46-3.1v-.43c0-.97-.43-1.68-2.34-1.68-1.6 0-2.1.47-2.24 1.11h-2.46c.29-2.05 2.17-2.91 4.7-2.91 2.53 0 4.98.76 4.98 3.49v-.02zm-2.64 1.99c-3.5-.19-4.8.14-4.8 1.46 0 .87.64 1.21 1.79 1.21 1.42 0 2.53-.55 3.02-1.37v-1.3h-.01zm15.02-5.23v8.38c0 3.61-3 4.09-5.65 4.09-3.09 0-4.86-1.06-5.03-2.83h2.46c.19.57 1.11 1.01 2.57 1.01 2.1 0 3.03-.61 3.03-2.27v-.85c-.69.75-1.75 1.14-3.31 1.14-2.71 0-4.89-1.23-4.89-4.37s2.18-4.54 4.89-4.54c1.42 0 2.57.54 3.31 1.46v-1.21h2.62v-.01zm-2.29 4.3c0-1.75-1.16-2.72-3.07-2.72s-2.98.99-2.98 2.72c0 1.73 1.09 2.72 2.98 2.72s3.07-.99 3.07-2.72zm4.37 1.82v-6.12h2.64v5.46c0 1.11.64 2.06 2.27 2.06s2.36-.99 2.36-2.06v-5.46h2.64v9.24h-2.64v-1.3c-.4.55-1.53 1.56-3.5 1.56-2.38 0-3.76-1.3-3.76-3.38h-.01zm13.84-.82c.21 1.27 1.09 2.38 3.02 2.38 1.4 0 2.31-.62 2.67-1.4h2.32c-.61 2.31-2.71 3.23-4.99 3.23-2.64 0-5.39-1.46-5.39-4.87s2.72-4.87 5.38-4.87c2.66 0 5.48 1.65 5.2 5.55h-8.2l-.01-.02zm.09-1.73h5.7c-.28-1.11-1.06-2.01-2.79-2.01s-2.57.9-2.91 2.01zM142.23 38.51c.17.2.39.38.63.53 1.54.84 3.69.38 4.82-1.03.37-.5 1.21-1.91.2-3.4-.15-.22-.34-.4-.56-.55-.26-.17-.56-.28-.91-.35l-.14-.03c-.56-.15-1.15-.19-1.75-.12-1.43.28-2.92 1.46-2.95 2.97v.02c-.01.42.05.82.2 1.19.12.3.26.55.46.77zm84.48 0c.17.2.39.38.63.53 1.54.84 3.69.38 4.82-1.03.37-.5 1.21-1.92.2-3.4-.15-.22-.34-.4-.56-.55-.25-.17-.56-.28-.91-.35l-.14-.03c-.56-.15-1.15-.19-1.75-.12-1.43.28-2.92 1.46-2.95 2.97v.02c-.01.42.05.82.2 1.19.12.3.26.55.46.77zM62.85 34.06c-.26-.17-.56-.28-.91-.35l-.14-.03c-.56-.15-1.15-.19-1.75-.12-1.43.28-2.92 1.46-2.95 2.97v.02c-.01.42.05.82.2 1.19.12.3.26.55.46.77.17.2.39.38.63.53 1.54.84 3.69.38 4.82-1.03.37-.5 1.21-1.92.2-3.4-.15-.22-.34-.4-.56-.55zM99.97 65.5c-.51-.33-1.12-.57-1.8-.7l-.14-.03a8.408 8.408 0 00-3.17-.21c-2.63.5-5.43 2.64-5.5 5.66v.02c-.03.8.1 1.57.39 2.29.22.57.52 1.07.9 1.5.35.4.77.75 1.25 1.04 2.83 1.56 6.81.73 8.88-1.87 1.57-2.09 1.72-4.56.36-6.56-.31-.46-.71-.85-1.18-1.15l.01.01z" fill="#fff"/><path d="M259.01 61.48c-1.4 0-2.84-.02-4.33-.06-12.23-.3-26.15-2.57-38.43-4.58-.51-.08-1.01-.17-1.52-.25l-2.93 3.7c1.79-.54 3.67-.77 5.59-.55 5.56.63 10.75 4.16 16.25 7.89 5.43 3.69 11.06 7.5 16.78 8.07l2.06.2-.41 4.11-2.06-.2c-6.77-.67-12.83-4.79-18.7-8.76-5.06-3.44-9.85-6.69-14.39-7.2-4.9-.56-9.95 3.3-13.57 7.12l-4.49 5.67-3.37-2.39c.17-.27 1.91-2.97 4.71-5.98l9.83-12.44c-8.17-1.3-15.63-2.34-21-2.34h-1.81v-4.14h1.81c7.04 0 17.16 1.65 27.86 3.39 12.15 1.99 25.92 4.23 37.87 4.53 9.28.23 16.62-.34 22.03-1.08l3.18-4.82c-5.75 1.05-14.28 2.17-24.73 2.17-1.27 0-2.56-.01-3.88-.05-11.59-.3-24.81-2.53-36.48-4.49-10.03-1.69-19.5-3.28-25.85-3.28h-1.81v-4.03h1.81c6.69 0 15.88 1.55 26.52 3.34 11.54 1.94 24.61 4.14 35.91 4.44 14.61.39 26.05-1.6 31.65-2.84l13.19-19.96c-.92-.56-1.84-1.1-2.77-1.63-32.46-15.7-83.02-18.23-117.95-9.2-20.33-27.72-57.78-10.89-83.83-2.99-29.9 9.96-60.46 19.53-91.77 22.83l.98 11.04c6.69-1.82 27.42-7 39.1-4.53 7.35 1.55 9.89 3.74 11.93 5.51 1.68 1.45 2.79 2.41 7 2.65 8.14.46 18.95-2.14 22.07-2.95l1.35 4.04c-2.7.71-12.74 3.2-21.41 3.2-.76 0-1.52-.02-2.25-.06-5.65-.32-7.53-1.95-9.53-3.68-1.76-1.52-3.75-3.24-10.04-4.57-11.07-2.34-32.38 3.18-37.83 4.68l.28 3.2c2.82-.8 7.47-2.04 12.63-3.1 1.49-.27 3.02-.59 4.63-.93 9.22-1.95 20.68-4.37 27.44 3.45 9.77 7.1 22.88 4.8 35.61 1.25l1.48-.41 1.35 4.03-1.68.47c-7.03 1.97-14.19 3.55-21.01 3.56-.83 0-1.65-.02-2.47-.07.36.53.65 1.06.91 1.57l.95 1.89-3.79 1.9-.95-1.9c-.92-1.85-2.35-3.9-7.51-4.88-1.68-.32-5.59.77-9.37 1.81-8.15 2.25-18.3 5.05-23.97-.06l-1.58-1.42 2.84-3.15 1.58 1.42c3.95 3.55 12.85 1.1 20.01-.88 2.02-.55 3.85-1.06 5.5-1.43-.2-.14-.41-.28-.61-.43l-.2-.15-.16-.19c-5.1-6.1-14.87-4.04-23.48-2.22-1.65.35-3.2.67-4.7.95-5.44 1.12-10.43 2.48-13.05 3.24l2.39 26.91c18.09-1.35 35.62-4.44 53.11-8.66 2.51 18.88 19.82 33.84 39.05 32.26 18.94-1.29 33.87-9.71 50.82-15.19 33.6-13.32 69.88-12.47 102.37 3.28l24.04-36.39c-4.12.43-9.04.73-14.81.73l.01.01zm-30.64-31.67l.1-.02c1.09-.14 2.16-.07 3.19.2.81.16 1.55.46 2.2.88.64.42 1.19.96 1.63 1.59 1.63 2.4 1.5 5.41-.34 7.85-1.51 1.89-3.84 2.91-6.14 2.91-1.24 0-2.46-.29-3.56-.91l-.05-.03a6.358 6.358 0 01-2.69-3.17c-.34-.85-.49-1.76-.46-2.69.08-3.21 2.64-5.99 6.11-6.62l.01.01zM66.21 40.32c-1.51 1.89-3.84 2.91-6.14 2.91-1.24 0-2.46-.29-3.56-.91l-.05-.03a6.358 6.358 0 01-2.69-3.17c-.34-.85-.49-1.76-.46-2.69.08-3.21 2.64-5.99 6.11-6.62l.1-.02c1.08-.14 2.16-.07 3.19.2.81.16 1.55.46 2.2.88.64.42 1.19.95 1.63 1.59 1.63 2.4 1.5 5.41-.34 7.85l.01.01zm77.69-10.51l.1-.02c1.09-.14 2.16-.07 3.19.2.81.16 1.55.46 2.2.88.64.42 1.19.95 1.63 1.59 1.63 2.4 1.5 5.41-.34 7.85-1.51 1.89-3.84 2.91-6.14 2.91-1.24 0-2.46-.29-3.56-.91l-.05-.03a6.358 6.358 0 01-2.69-3.17c-.34-.85-.49-1.76-.46-2.69.08-3.21 2.64-5.99 6.11-6.62l.01.01zm-40.12 45.71c-2.14 2.67-5.44 4.12-8.71 4.12-1.75 0-3.5-.42-5.05-1.28l-.05-.03c-.84-.5-1.57-1.11-2.18-1.82a9.027 9.027 0 01-1.57-2.6 9.493 9.493 0 01-.65-3.79c.1-4.43 3.82-8.43 8.66-9.31l.1-.02c1.57-.2 3.12-.1 4.61.29 1.14.22 2.18.64 3.09 1.23.89.58 1.64 1.32 2.24 2.19 2.28 3.35 2.08 7.57-.5 11.01l.01.01zm71.57 0c-2.14 2.67-5.44 4.12-8.71 4.12-1.75 0-3.5-.42-5.05-1.28l-.05-.03c-.84-.5-1.57-1.11-2.18-1.82a9.027 9.027 0 01-1.57-2.6 9.493 9.493 0 01-.65-3.79c.1-4.43 3.82-8.43 8.66-9.31l.1-.02c1.57-.2 3.12-.1 4.61.29 1.14.22 2.18.64 3.09 1.23.89.58 1.64 1.32 2.24 2.19 2.28 3.35 2.08 7.57-.5 11.01l.01.01zm4.79-29.94l-1.76.03c-6.8.11-18.05 5.3-28.93 10.31-11.11 5.11-21.8 10.04-28.79 10.04-1.31 0-2.5-.18-3.53-.56-.53.95-.62 1.88-.14 2.86 2.49 5 18.22-2.25 30.86-8.08 11.23-5.18 22.85-10.53 30.46-10.66l1.82-.03v3.79l-1.76.03c-6.8.11-18.05 5.29-28.93 10.3-11.11 5.12-21.8 10.05-28.79 10.05-3.28 0-5.74-1.08-7.06-3.73-1.3-2.61-.83-4.87.5-6.86a7.9 7.9 0 01-.5-.85c-2.83-5.7 2.73-9.71 7.2-12.93.22-.15.44-.32.67-.48-3.43-.66-8.56-.17-14.96 1.47-7.26 1.86-13.65 4.55-13.72 4.58l-1.53.63-1.21-3.6 1.26-.52c2.55-1.08 23.63-9.74 33.67-5.43.63-.64 1.03-1.24 1.05-1.73.01-.62-.77-1.34-1.23-1.72-2.77-2.25-9.27-2.22-18.3.08-7.26 1.86-13.65 4.55-13.72 4.57l-3.79 1.61-1.2-3.61 3.52-1.49c2.75-1.17 27.17-11.2 35.88-4.11 1.79 1.46 2.68 3.06 2.63 4.77-.04 1.4-.69 2.64-1.69 3.8-.76.88-1.74 1.72-2.81 2.55-.73.57-1.52 1.13-2.31 1.7-4.21 3.04-6.99 5.27-6.21 7.72.04.15.1.3.18.45.53 1.05 1.65 1.57 3.2 1.66 5.8.34 17.69-5.14 27.66-9.73 11.23-5.18 22.85-10.53 30.46-10.66l1.82-.03v3.79l.03.02z" fill="#fff"/><path d="M171.54 65.5c-.51-.33-1.12-.57-1.8-.7l-.14-.03a8.408 8.408 0 00-3.17-.21c-2.63.5-5.43 2.64-5.5 5.66v.02c-.03.8.1 1.57.39 2.29.22.57.52 1.07.9 1.5.35.4.77.75 1.25 1.04 2.83 1.56 6.81.73 8.88-1.86 1.57-2.09 1.72-4.56.36-6.56-.31-.46-.71-.85-1.18-1.15h.01z" fill="#fff"/></svg>