<svg width="81" height="86" fill="none" xmlns="http://www.w3.org/2000/svg"><path fill-rule="evenodd" clip-rule="evenodd" d="M29.65 52.3c-.57-.64-1.51-.96-2.82-.96h-1.27v8.94h1.25c1.05 0 1.81-.12 2.26-.35.44-.24.79-.65 1.05-1.23.25-.58.38-1.53.38-2.84 0-1.73-.29-2.91-.85-3.56zm18.17-.05c-.62-.71-1.46-1.06-2.53-1.06-1.07 0-1.84.36-2.46 1.08-.62.71-.93 1.91-.93 3.57s.31 2.84.92 3.56c.62.72 1.46 1.08 2.51 1.08 1.05 0 1.94-.35 2.53-1.05.6-.71.9-1.98.9-3.81 0-1.53-.32-2.66-.94-3.37zm-18.17.05c-.57-.64-1.51-.96-2.82-.96h-1.27v8.94h1.25c1.05 0 1.81-.12 2.26-.35.44-.24.79-.65 1.05-1.23.25-.58.38-1.53.38-2.84 0-1.73-.29-2.91-.85-3.56zm18.17-.05c-.62-.71-1.46-1.06-2.53-1.06-1.07 0-1.84.36-2.46 1.08-.62.71-.93 1.91-.93 3.57s.31 2.84.92 3.56c.62.72 1.46 1.08 2.51 1.08 1.05 0 1.94-.35 2.53-1.05.6-.71.9-1.98.9-3.81 0-1.53-.32-2.66-.94-3.37zm27.07-12.62h-6.9V23.54c.02-.17.06-.29.06-.45 0-.55-.26-1.03-.61-1.38L46.59.6c-.07-.06-.1-.09-.16-.12h-.07C46.04.19 45.59 0 45.15 0c-.1 0-.2 0-.29.03H4.04c-1.1 0-2.12.45-2.85 1.18C.46 1.95 0 2.94 0 4.06V81.4c0 1.12.45 2.12 1.19 2.85.73.74 1.73 1.19 2.85 1.19h59.91c1.12 0 2.12-.45 2.85-1.19.73-.73 1.19-1.73 1.19-2.85v-9.42h6.9c2.89 0 5.26-2.37 5.26-5.25V44.88c0-2.88-2.37-5.25-5.26-5.25zM46.94 6.21l14.9 15.09H48.8c-.52 0-.96-.22-1.32-.54-.32-.32-.54-.8-.54-1.32V6.21zm15.8 73.53c0 .09-.13.22-.23.28-.07.06-.06.13-.18.13H5.66c-.09 0-.23-.03-.29-.13a.474.474 0 01-.12-.28V5.73c0-.14.02-.23.13-.3.06-.06.16-.12.28-.12h36.52v14.55c0 1.5.6 3.3 1.6 4.29.99.99 3.09 1.81 4.6 1.81h14.37v13.67H17.64c-2.89 0-5.25 2.36-5.25 5.25v21.84c0 2.89 2.37 5.26 5.25 5.26h45.1v7.76zM53.8 55.69c0 1.91-.32 3.47-.96 4.7a6.962 6.962 0 01-2.79 2.85c-1.22.69-2.73 1.03-4.55 1.03-1.82 0-3.37-.3-4.58-.89-1.21-.59-2.19-1.52-2.94-2.78-.75-1.27-1.13-2.86-1.13-4.77 0-2.67.75-4.75 2.23-6.24 1.49-1.49 3.56-2.23 6.22-2.23 2.66 0 4.82.73 6.29 2.19 1.48 1.46 2.21 3.51 2.21 6.14zm-18.23.07c0 1.75-.19 3.1-.59 4.07-.4.97-.95 1.77-1.66 2.42-.71.65-1.47 1.08-2.27 1.3-1.11.3-2.12.45-3.01.45h-7.53V47.64h7.52c1.47 0 2.68.2 3.59.6.91.4 1.66.98 2.26 1.73.59.75 1.02 1.63 1.29 2.62.27 1 .4 2.05.4 3.17zm34.15 5.98c-.64.84-1.43 1.46-2.38 1.89-.95.42-2.16.63-3.62.63-1.78 0-3.24-.26-4.37-.77-1.13-.52-2.1-1.43-2.92-2.73-.82-1.3-1.23-2.97-1.23-4.99 0-2.7.72-4.78 2.16-6.24 1.45-1.45 3.49-2.17 6.12-2.17 2.06 0 3.69.41 4.86 1.25 1.18.83 2.06 2.11 2.63 3.84l-4.46.99c-.15-.49-.32-.85-.49-1.08-.29-.39-.63-.68-1.04-.89-.41-.21-.87-.32-1.37-.32-1.15 0-2.03.46-2.65 1.38-.46.68-.69 1.75-.69 3.21 0 1.82.27 3.05.83 3.73.55.67 1.32 1.01 2.32 1.01 1 0 1.69-.27 2.19-.82.51-.54.87-1.32 1.09-2.36l4.44 1.33c-.3 1.25-.77 2.29-1.42 3.11zm-26.89-9.47c-.62.71-.93 1.91-.93 3.57s.31 2.84.92 3.56c.62.72 1.46 1.08 2.51 1.08 1.05 0 1.94-.35 2.53-1.05.6-.71.9-1.98.9-3.81 0-1.53-.32-2.66-.94-3.37-.62-.71-1.46-1.06-2.53-1.06-1.07 0-1.84.36-2.46 1.08zm-16-.93h-1.27v8.94h1.25c1.05 0 1.81-.12 2.26-.35.44-.24.79-.65 1.05-1.23.25-.58.38-1.53.38-2.84 0-1.73-.29-2.91-.85-3.56-.57-.64-1.51-.96-2.82-.96zm20.99.91c-.62-.71-1.46-1.06-2.53-1.06-1.07 0-1.84.36-2.46 1.08-.62.71-.93 1.91-.93 3.57s.31 2.84.92 3.56c.62.72 1.46 1.08 2.51 1.08 1.05 0 1.94-.35 2.53-1.05.6-.71.9-1.98.9-3.81 0-1.53-.32-2.66-.94-3.37zm-18.17.05c-.57-.64-1.51-.96-2.82-.96h-1.27v8.94h1.25c1.05 0 1.81-.12 2.26-.35.44-.24.79-.65 1.05-1.23.25-.58.38-1.53.38-2.84 0-1.73-.29-2.91-.85-3.56zm18.17-.05c-.62-.71-1.46-1.06-2.53-1.06-1.07 0-1.84.36-2.46 1.08-.62.71-.93 1.91-.93 3.57s.31 2.84.92 3.56c.62.72 1.46 1.08 2.51 1.08 1.05 0 1.94-.35 2.53-1.05.6-.71.9-1.98.9-3.81 0-1.53-.32-2.66-.94-3.37zm-18.17.05c-.57-.64-1.51-.96-2.82-.96h-1.27v8.94h1.25c1.05 0 1.81-.12 2.26-.35.44-.24.79-.65 1.05-1.23.25-.58.38-1.53.38-2.84 0-1.73-.29-2.91-.85-3.56zm18.17-.05c-.62-.71-1.46-1.06-2.53-1.06-1.07 0-1.84.36-2.46 1.08-.62.71-.93 1.91-.93 3.57s.31 2.84.92 3.56c.62.72 1.46 1.08 2.51 1.08 1.05 0 1.94-.35 2.53-1.05.6-.71.9-1.98.9-3.81 0-1.53-.32-2.66-.94-3.37zm0 0c-.62-.71-1.46-1.06-2.53-1.06-1.07 0-1.84.36-2.46 1.08-.62.71-.93 1.91-.93 3.57s.31 2.84.92 3.56c.62.72 1.46 1.08 2.51 1.08 1.05 0 1.94-.35 2.53-1.05.6-.71.9-1.98.9-3.81 0-1.53-.32-2.66-.94-3.37zm-18.17.05c-.57-.64-1.51-.96-2.82-.96h-1.27v8.94h1.25c1.05 0 1.81-.12 2.26-.35.44-.24.79-.65 1.05-1.23.25-.58.38-1.53.38-2.84 0-1.73-.29-2.91-.85-3.56zm0 0c-.57-.64-1.51-.96-2.82-.96h-1.27v8.94h1.25c1.05 0 1.81-.12 2.26-.35.44-.24.79-.65 1.05-1.23.25-.58.38-1.53.38-2.84 0-1.73-.29-2.91-.85-3.56z" fill="#000"/><path fill-rule="evenodd" clip-rule="evenodd" d="M71.14 58.63c-.3 1.25-.77 2.29-1.42 3.11-.64.84-1.43 1.46-2.38 1.89-.95.42-2.16.63-3.62.63-1.78 0-3.24-.26-4.37-.77-1.13-.52-2.1-1.43-2.92-2.73-.82-1.3-1.23-2.97-1.23-4.99 0-2.7.72-4.78 2.16-6.24 1.45-1.45 3.49-2.17 6.12-2.17 2.06 0 3.69.41 4.86 1.25 1.18.83 2.06 2.11 2.63 3.84l-4.46.99c-.15-.49-.32-.85-.49-1.08-.29-.39-.63-.68-1.04-.89-.41-.21-.87-.32-1.37-.32-1.15 0-2.03.46-2.65 1.38-.46.68-.69 1.75-.69 3.21 0 1.82.27 3.05.83 3.73.55.67 1.32 1.01 2.32 1.01 1 0 1.69-.27 2.19-.82.51-.54.87-1.32 1.09-2.36l4.44 1.33zm-19.55-9.08c-1.47-1.46-3.56-2.19-6.29-2.19s-4.73.74-6.22 2.23c-1.48 1.49-2.23 3.57-2.23 6.24 0 1.91.38 3.5 1.13 4.77.75 1.26 1.73 2.19 2.94 2.78 1.21.59 2.74.89 4.58.89 1.84 0 3.33-.34 4.55-1.03a6.962 6.962 0 002.79-2.85c.64-1.23.96-2.79.96-4.7 0-2.63-.73-4.68-2.21-6.14zm-3.73 9.88c-.59.7-1.44 1.05-2.53 1.05-1.09 0-1.89-.36-2.51-1.08-.61-.72-.92-1.91-.92-3.56 0-1.65.31-2.86.93-3.57.62-.72 1.44-1.08 2.46-1.08 1.07 0 1.91.35 2.53 1.06.62.71.94 1.84.94 3.37 0 1.83-.3 3.1-.9 3.81zm-12.69-6.84c-.27-.99-.7-1.87-1.29-2.62-.6-.75-1.35-1.33-2.26-1.73-.91-.4-2.12-.6-3.59-.6h-7.52V64h7.53c.89 0 1.9-.15 3.01-.45.8-.22 1.56-.65 2.27-1.3s1.26-1.45 1.66-2.42c.4-.97.59-2.32.59-4.07 0-1.12-.13-2.17-.4-3.17zm-5.05 6.11c-.26.58-.61.99-1.05 1.23-.45.23-1.21.35-2.26.35h-1.25v-8.94h1.27c1.31 0 2.25.32 2.82.96.56.65.85 1.83.85 3.56 0 1.31-.13 2.26-.38 2.84z" fill="#FFC913"/></svg>