<svg width="1294" height="1174" fill="none" xmlns="http://www.w3.org/2000/svg"><g style="mix-blend-mode:overlay" opacity=".5" fill="#fff" clip-path="url(#clip0_3_2)"><path d="M1176.06 1120.34c-91.67-67.67-187.675-130.854-292.906-175.56-36.379-15.337-70.853-29.063-110.334-39.455-37.125-9.818-90.136-16.534-117.54 20.234-10.441 13.787-15.668 33.276-13.922 50.433.428 10.673 6.18 26.418 8.378 33.718a8.24 8.24 0 01-.391.55c-2.638 3.82-3.505 4.53-4.47 5.32-3.211 2.32-7.229 3.19-12.322 3.96-7.119.94-16.51.74-26.426-.42-56.089-7.6-110.628-30.55-163.2-52.921-87.841-38.625-176.011-85.98-260.493-132.237-50.093-25.253-89.135 44.083-42.155 73.952 116.782 67.211 372.622 214.936 504.584 196.576 30.432-4.05 58.801-20.7 74.908-46.85 7.046-10.27 12.175-21.15 14.068-33.88 2.04-12.51.122-25.934-3.248-36.692a252.021 252.021 0 00-2.54-7.608c8.255.538 17.097 2.296 26.048 4.128 21.432 4.75 44.036 11.955 66.469 19.842 33.522 11.91 67.337 25.05 99.662 40.09 76.471 36.29 150.13 79.59 221.34 125.35 32.84 20.23 64.24-24.46 34.46-48.54l.03.01zm-525.689-108.17c.036.87.183.99 0 0zm65.175-32.368c-.098.037-.22.098-.293.122-.635.22-.489.037.281-.122h.012zm573.934 79.328c-27.87-48.09-57.09-94.775-87.39-141.276-92.8-139.673-190.43-276.098-313.941-391.52-42.412-38.771-89.453-72.352-138.19-103.125-87.767-54.011-196.356-103.601-304.041-86.53-60.607 9.953-111.47 45.268-129.238 97.093-32.008-5.41-64.162-10.001-96.304-14.007-41.972-5.006-84.225-8.462-126.515-10.172-10.649-.452-31.788-1.209-42.486-1.343C22.74 407.481-.94 431.281.026 459.941c.83 27.866 24.313 49.712 52.157 48.577 88.536-2.602 178.233 3.101 266.439 17.132 29.065 87.604 126.675 172.4 195.11 225.898 49.825 37.086 109.737 74.575 175.229 74.966 51.29 1.086 104.949-30.236 117.882-82.549 16.046-70.216-40.666-124.739-90.246-162.582-26.549-20.735-55.381-39.443-85.728-54.109-67.532-32.165-138.215-55.268-210.387-72.523 11.638-10.673 26.622-16.376 42.986-19.587 57.872-9.549 116.001 9.964 169.123 33.642 58.336 26.621 113.729 62.351 165.044 101.306 51.547 40.407 97.256 86.871 141.915 136.425 107.501 120.55 203.721 252.58 293.431 387.023 24.73 35.48 76.59 3.2 56.51-34.42l-.01-.01zM593.109 604.132c33.082 15.802 64.528 36.293 90.173 62.584 8.121 8.413 15.338 17.23 20.662 25.68 6.436 10.685 10.502 18.525 9.941 27.06-.977 2.809-4.36 6.057-7.865 7.816-23.349 10.782-53.989.488-77.655-8.976-35.708-15.105-71.281-39.992-101.689-65.819-26.708-22.481-52.084-48.271-72.771-75.637-5.251-6.924-12.004-16.534-18.648-27.427 3.713.928 7.437 1.808 11.138 2.772 50.166 13.164 100.467 29.552 146.702 51.972l.012-.025zm82.931-336.301c29.736 35.731 66.311 65.453 103.276 91.61 90.906 62.998 188.235 110.256 289.474 152.276 6.78 2.759 13.33 5.385 20.49 8.132 36.61 12.407 57.04-38.172 22.6-54.804-10.18-4.372-27.91-12.859-38-17.572-86.802-42.032-173.775-90.364-249.709-148.783-34.865-27.5-67.495-56.258-91.895-92.526-29.809-45.817-53.146-102.746-50.985-155.621C683.673 25.13 665.001 2.6 639.588.232c-27.282-2.736-51.01 19.526-50.57 46.818-.293 32.873 6.924 65.771 17.402 96.433 15.985 45.866 39.664 87.006 69.62 124.348z"/></g><defs><clipPath id="clip0_3_2"><path fill="#fff" d="M0 0h1294v1174H0z"/></clipPath></defs></svg>