<svg width="87" height="111" fill="none" xmlns="http://www.w3.org/2000/svg"><path d="M2.703 99.212L0 92.823h1.933l2.277 5.532H3.07l2.332-5.532h1.771l-2.71 6.39h-1.76zm5.114 0v-6.389h1.789v4.955h3.02v1.434H7.818zm5.091 0l2.792-6.389h1.761l2.803 6.39h-1.86l-2.188-5.504h.705l-2.187 5.503h-1.826zm1.527-1.24l.46-1.333h3.092l.461 1.334h-4.013zm6.606 1.24v-6.389h2.993c.698 0 1.314.132 1.843.393.53.26.946.628 1.242 1.104.296.476.447 1.042.447 1.698 0 .65-.148 1.215-.447 1.69-.3.48-.712.848-1.242 1.109-.53.26-1.145.392-1.843.392h-2.992v.003zm1.789-1.44h1.128c.361 0 .678-.07.946-.206.268-.135.478-.336.63-.6.15-.264.226-.58.226-.945 0-.364-.076-.687-.227-.948a1.498 1.498 0 00-.63-.597 2.067 2.067 0 00-.945-.205H22.83v3.504-.004zm5.946 1.44v-6.389h1.789v6.39h-1.789zm5.262 0l-2.703-6.389h1.933l2.277 5.532h-1.139l2.332-5.532h1.772l-2.71 6.39h-1.761zm8.224.128a3.89 3.89 0 01-1.4-.246 3.322 3.322 0 01-1.118-.697 3.219 3.219 0 01-.736-1.056 3.276 3.276 0 01-.261-1.323c0-.48.086-.92.261-1.323.176-.403.42-.754.736-1.056a3.287 3.287 0 011.118-.698 3.89 3.89 0 011.4-.246c.505 0 .98.083 1.407.246a3.258 3.258 0 011.843 1.754c.179.403.268.844.268 1.323a3.239 3.239 0 01-1.004 2.382 3.341 3.341 0 01-1.107.694 3.902 3.902 0 01-1.407.247zm0-1.496c.24 0 .464-.041.674-.128.206-.087.389-.209.543-.368.155-.16.276-.354.361-.58.086-.226.131-.476.131-.747 0-.27-.044-.53-.13-.753a1.737 1.737 0 00-.362-.577 1.543 1.543 0 00-.543-.368 1.729 1.729 0 00-.674-.128c-.24 0-.464.042-.674.128a1.625 1.625 0 00-.544.368c-.154.16-.275.355-.36.577a2.07 2.07 0 00-.131.753c0 .275.044.525.13.747.086.226.207.417.361.58.155.16.334.284.544.368.206.087.433.128.674.128zm6.951 1.496c-.52 0-1.018-.065-1.496-.197s-.87-.299-1.17-.507l.588-1.333c.282.184.609.333.98.451.372.118.74.177 1.108.177.248 0 .447-.024.595-.07a.71.71 0 00.33-.183.391.391 0 00.103-.271.394.394 0 00-.2-.347 1.668 1.668 0 00-.515-.209c-.21-.055-.444-.11-.702-.163a7.882 7.882 0 01-.767-.208 3.277 3.277 0 01-.701-.334 1.638 1.638 0 01-.516-.538c-.134-.222-.2-.503-.2-.844 0-.382.104-.729.313-1.041.207-.31.52-.56.936-.747.416-.187.935-.281 1.554-.281.416 0 .826.048 1.225.142a3.85 3.85 0 011.07.417l-.55 1.34a4.202 4.202 0 00-.895-.368 3.152 3.152 0 00-.86-.121 1.85 1.85 0 00-.595.076.71.71 0 00-.327.205.475.475 0 00-.1.291c0 .14.066.25.197.334.13.083.302.15.515.201.214.052.448.105.706.16.254.056.512.122.767.205.254.083.488.19.701.33.21.135.382.316.51.538.13.222.195.5.195.833 0 .372-.103.712-.313 1.028-.206.313-.52.566-.932.754-.413.187-.932.28-1.558.28h.004zm5.152-.128v-4.955H52.42v-1.434h5.668v1.434h-1.932v4.955h-1.791zm7.762.128a3.89 3.89 0 01-1.4-.246 3.321 3.321 0 01-1.117-.697 3.219 3.219 0 01-.736-1.056 3.276 3.276 0 01-.262-1.323c0-.48.086-.92.262-1.323.175-.403.42-.754.736-1.056a3.286 3.286 0 011.117-.698 3.89 3.89 0 011.4-.246c.513 0 .98.083 1.407.246a3.24 3.24 0 011.107.698c.313.302.557.653.736 1.056.18.403.269.844.269 1.323A3.239 3.239 0 0164.64 98.4a3.34 3.34 0 01-1.107.694 3.901 3.901 0 01-1.407.247zm0-1.496c.24 0 .464-.041.674-.128.207-.087.389-.209.544-.368a1.68 1.68 0 00.36-.58c.087-.226.131-.476.131-.747 0-.27-.044-.53-.13-.753a1.737 1.737 0 00-.361-.577 1.542 1.542 0 00-.544-.368 1.728 1.728 0 00-.674-.128c-.24 0-.464.042-.674.128a1.626 1.626 0 00-.543.368c-.155.16-.275.355-.361.577a2.07 2.07 0 00-.131.753c0 .282.044.525.13.747.087.226.207.417.362.58.154.16.333.284.543.368.206.087.433.128.674.128zm4.726 1.368v-6.389h1.77v6.39h-1.77zm1.599-1.413l-.1-2.024 2.72-2.948h1.971l-2.71 2.965-.994 1.049-.887.958zm2.648 1.413l-2.06-2.635 1.166-1.26 2.975 3.895H71.1zM2.549 110.165H.76v-6.39h1.79v6.39zm2.565-2.49H2.421v-1.497h2.693v1.497zm-.127-3.896h1.788v6.389H4.987v-6.389zm2.569 6.386l2.793-6.39h1.76l2.804 6.39h-1.86l-2.188-5.504h.705l-2.188 5.504H7.556zm1.527-1.24l.461-1.333h3.092l.46 1.333H9.084zm6.607 1.24v-6.39h1.788v4.955h3.02v1.435H15.69zm7.573 0h-1.788v-6.39h4.963v1.396h-3.171v4.99l-.004.004zm-.127-3.587h2.92v1.395h-2.92v-1.395zm8.66 3.587v-4.956h-1.943v-1.434h5.668v1.434h-1.933v4.956h-1.792zm4.664 0v-6.39h2.892c.578 0 1.077.094 1.496.282.42.187.743.461.974.816.23.354.343.777.343 1.264 0 .479-.113.895-.343 1.246a2.17 2.17 0 01-.974.802c-.42.184-.918.278-1.496.278h-1.898l.794-.757v2.455H36.46v.004zm1.788-2.264l-.794-.83h1.788c.375 0 .654-.084.836-.247.182-.163.275-.392.275-.684 0-.299-.093-.528-.275-.694-.182-.164-.461-.247-.836-.247h-1.788l.794-.83v3.532zm2.126 2.264l-1.572-2.327h1.905l1.582 2.327h-1.915zm3.043 0v-6.39h1.789v6.39h-1.789zm2.576 0l2.793-6.39h1.761l2.803 6.39h-1.86l-2.188-5.504h.705l-2.187 5.504h-1.827zm1.527-1.24l.461-1.333h3.092l.461 1.333H47.52zm7.64 1.24v-4.956h-1.944v-1.434h5.668v1.434H56.95v4.956h-1.792zm6.451 0h-1.788v-6.39h1.788v6.39zm2.566-2.49h-2.693v-1.497h2.693v1.497zm-.127-3.896h1.788v6.389H64.05v-6.389zm3.329 6.386v-6.39h1.788v4.955h3.02v1.435h-4.808zm8.873.124a3.9 3.9 0 01-1.4-.246 3.333 3.333 0 01-1.117-.698 3.217 3.217 0 01-.736-1.056 3.279 3.279 0 01-.262-1.323c0-.479.086-.92.262-1.323.175-.403.42-.753.736-1.055a3.269 3.269 0 011.118-.698 3.873 3.873 0 011.4-.247c.505 0 .98.083 1.406.247.426.163.794.395 1.107.698.313.302.557.652.736 1.055.18.403.269.844.269 1.323a3.244 3.244 0 01-2.112 3.077 3.906 3.906 0 01-1.407.246zm0-1.496c.241 0 .465-.042.674-.129.207-.087.389-.208.544-.368a1.68 1.68 0 00.36-.58c.087-.226.132-.476.132-.746 0-.271-.045-.532-.131-.754a1.737 1.737 0 00-.361-.576 1.536 1.536 0 00-.544-.368 1.725 1.725 0 00-.674-.129c-.24 0-.464.042-.674.129a1.61 1.61 0 00-.904.944 2.07 2.07 0 00-.131.754c0 .281.045.524.13.746.087.226.207.417.362.58.154.16.333.285.543.368.206.087.433.129.674.129zm4.729 1.372v-6.39h1.472l3.488 4.254h-.695v-4.254H87v6.39h-1.472l-3.487-4.254h.694v4.254h-1.754zM52.607 78.778l.348-.31c.591-.52.98-.85.98-1.44 0-.657-.489-1.23-1.335-1.23-.825 0-1.427.535-1.458 1.393h.918c.038-.34.19-.514.5-.514.343 0 .456.212.456.396 0 .229-.113.34-.815.965l-1.1.969v.656h2.91v-.878H52.6l.01-.007h-.004zm3.68-2.98c-1.042 0-1.664.785-1.664 1.966 0 1.18.622 1.965 1.664 1.965 1.042 0 1.665-.785 1.665-1.965 0-1.18-.623-1.966-1.665-1.966zm0 3.056c-.53 0-.74-.389-.74-1.09 0-.698.21-1.09.74-1.09s.74.388.74 1.09c0 .698-.21 1.09-.74 1.09zm3.735-.076l.348-.31c.591-.52.98-.85.98-1.44 0-.657-.489-1.23-1.334-1.23-.826 0-1.428.535-1.459 1.393h.918c.038-.34.19-.514.5-.514.343 0 .457.212.457.396 0 .229-.114.34-.816.965l-1.1.969v.656h2.91v-.878h-1.41l.01-.007h-.004zm4.458-1.101a.867.867 0 00.402-.754c0-.645-.554-1.125-1.369-1.125-.763 0-1.369.445-1.42 1.257h.921c.049-.288.214-.385.472-.385.371 0 .47.177.47.378 0 .243-.199.292-.443.292h-.41v.802h.496c.361 0 .468.104.468.313 0 .243-.124.399-.516.399-.327 0-.52-.115-.564-.424h-.922c.041.868.692 1.296 1.496 1.296.86 0 1.428-.424 1.428-1.181 0-.413-.19-.726-.51-.872v.004z" fill="#000"/><path d="M79.069 76.052c-6.163-4.594-12.619-8.882-19.693-11.917-2.446-1.042-4.764-1.973-7.419-2.677-2.497-.667-6.06-1.122-7.903 1.375-.702.937-1.053 2.257-.936 3.423.028.726.416 1.792.564 2.289-.01.014-.017.028-.027.038-.18.26-.238.309-.3.361-.216.156-.484.215-.828.267-.478.063-1.111.052-1.778-.027-3.773-.518-7.44-2.073-10.972-3.594-5.905-2.622-11.834-5.837-17.512-8.976-3.368-1.716-5.992 2.993-2.834 5.02 7.851 4.563 25.051 14.592 33.925 13.345 2.046-.274 3.951-1.406 5.035-3.18.474-.699.818-1.438.946-2.3.137-.85.006-1.76-.217-2.49a19.36 19.36 0 00-.172-.516c.554.038 1.149.156 1.75.28 1.441.324 2.962.813 4.468 1.348 2.253.81 4.526 1.702 6.7 2.722 5.141 2.466 10.094 5.403 14.882 8.511 2.207 1.375 4.32-1.66 2.318-3.295l.003-.007zm-35.342-7.344c0 .059.014.066 0 0zm4.382-2.198c-.007 0-.014.007-.021.007-.041.014-.034 0 .02-.007zm38.588 5.389c-1.874-3.264-3.838-6.434-5.874-9.59-6.239-9.484-12.804-18.745-21.107-26.578-2.85-2.632-6.015-4.914-9.29-7-5.901-3.668-13.2-7.032-20.442-5.876-4.076.677-7.495 3.073-8.688 6.59a151.47 151.47 0 00-6.476-.95 108.77 108.77 0 00-8.505-.692c-.716-.031-2.136-.083-2.855-.09-1.93-.052-3.522 1.563-3.46 3.51.055 1.893 1.634 3.376 3.508 3.3a95.492 95.492 0 0117.915 1.162c1.954 5.949 8.516 11.702 13.118 15.334 3.35 2.518 7.377 5.063 11.78 5.087 3.449.073 7.057-2.052 7.923-5.604 1.08-4.768-2.734-8.469-6.066-11.035-1.785-1.406-3.725-2.677-5.765-3.674-4.54-2.184-9.293-3.75-14.145-4.924.784-.725 1.788-1.11 2.889-1.33 3.89-.649 7.8.677 11.37 2.285 3.92 1.81 7.645 4.233 11.095 6.875 3.467 2.744 6.538 5.897 9.54 9.261 7.23 8.185 13.699 17.147 19.728 26.272 1.661 2.41 5.149.219 3.8-2.337l.007.004zM39.875 41.012c2.225 1.073 4.337 2.462 6.063 4.247.547.573 1.032 1.17 1.39 1.743.433.726.705 1.257.667 1.837-.065.19-.292.41-.53.531-1.568.733-3.628.035-5.22-.611-2.4-1.024-4.791-2.715-6.838-4.469-1.795-1.528-3.5-3.278-4.894-5.136a21.646 21.646 0 01-1.252-1.86c.252.062.5.12.75.187 3.374.892 6.755 2.007 9.864 3.528v.003zm5.578-22.831c1.999 2.427 4.458 4.445 6.944 6.22 6.112 4.277 12.657 7.482 19.463 10.336.458.188.898.365 1.38.553 2.462.843 3.834-2.59 1.52-3.72-.685-.298-1.878-.87-2.556-1.194-5.836-2.854-11.683-6.136-16.79-10.1-2.346-1.87-4.54-3.82-6.177-6.283-2.005-3.11-3.574-6.975-3.43-10.562.162-1.726-1.093-3.254-2.802-3.417-1.833-.188-3.43 1.326-3.402 3.177-.02 2.233.465 4.465 1.17 6.545 1.076 3.115 2.665 5.907 4.68 8.442v.003z" fill="#000"/><path d="M55.16 10.626c1.726 0 3.132-1.42 3.132-3.164 0-1.743-1.406-3.163-3.133-3.163-1.726 0-3.133 1.42-3.133 3.163 0 1.743 1.407 3.164 3.133 3.164z" fill="#000"/></svg>