<svg width="74" height="92" fill="none" xmlns="http://www.w3.org/2000/svg"><path d="M2.709 82.648L.43 77.328h1.63l1.92 4.608h-.96l1.965-4.608H6.48l-2.284 5.32H2.709zm4.312 0v-5.32H8.53v4.127h2.545v1.193H7.02zm4.289 0l2.353-5.32h1.487l2.361 5.32h-1.57l-1.845-4.583h.593l-1.844 4.583h-1.54.004zm1.285-1.034l.389-1.11h2.607l.388 1.11h-3.384zm5.571 1.034v-5.32h2.52c.59 0 1.107.11 1.554.325.447.218.797.526 1.047.92.25.395.378.869.378 1.415 0 .547-.125 1.014-.378 1.412-.253.397-.6.705-1.047.923-.447.218-.964.325-1.553.325h-2.52zm1.508-1.2h.954c.305 0 .568-.055.797-.17.225-.114.402-.28.53-.501.129-.222.191-.484.191-.785a1.56 1.56 0 00-.19-.793 1.27 1.27 0 00-.53-.498 1.748 1.748 0 00-.798-.17h-.954v2.92-.003zm5.013 1.2v-5.32h1.508v5.32h-1.508zm4.431 0l-2.278-5.32h1.63l1.92 4.608h-.96l1.965-4.608h1.494l-2.284 5.32h-1.487zm6.932.107c-.425 0-.82-.069-1.181-.204a2.86 2.86 0 01-.94-.58 2.652 2.652 0 01-.842-1.983 2.652 2.652 0 01.842-1.982c.267-.253.58-.446.94-.581.36-.139.755-.204 1.182-.204.426 0 .825.069 1.185.204.358.138.67.332.933.58a2.686 2.686 0 01.846 1.982c0 .402-.076.769-.225 1.108a2.718 2.718 0 01-1.553 1.456 3.256 3.256 0 01-1.186.204zm0-1.245c.205 0 .393-.035.57-.107.176-.073.325-.173.457-.308.128-.135.232-.294.305-.484.073-.187.111-.395.111-.623 0-.228-.038-.443-.11-.626a1.447 1.447 0 00-.306-.477 1.3 1.3 0 00-.458-.308 1.47 1.47 0 00-.568-.108 1.47 1.47 0 00-.569.108 1.333 1.333 0 00-.457.308 1.484 1.484 0 00-.305.477 1.687 1.687 0 00-.111.626c0 .232.038.436.11.623.073.186.178.349.306.484s.28.235.457.308c.177.072.364.107.569.107zm5.86 1.245c-.437 0-.857-.055-1.262-.162a3.235 3.235 0 01-.988-.422l.496-1.11c.239.151.513.276.825.376.311.1.623.15.932.15.208 0 .375-.022.503-.056a.615.615 0 00.277-.152.316.316 0 00.087-.225.324.324 0 00-.167-.287 1.542 1.542 0 00-.433-.177 22.59 22.59 0 00-.59-.138 5.63 5.63 0 01-.648-.177 2.633 2.633 0 01-.589-.276 1.347 1.347 0 01-.433-.45c-.111-.183-.167-.418-.167-.702 0-.318.087-.609.264-.868.177-.26.437-.467.787-.623.35-.156.787-.235 1.31-.235.35 0 .694.038 1.033.117.337.08.638.194.901.346l-.464 1.118a3.545 3.545 0 00-.756-.308 2.695 2.695 0 00-.724-.104c-.208 0-.375.02-.503.066a.564.564 0 00-.274.17.387.387 0 00-.083.241c0 .118.056.208.163.277.107.07.253.124.433.166.18.041.378.087.593.132.215.044.433.103.648.169.215.07.413.16.59.273.176.114.322.263.43.45.107.187.163.418.163.695 0 .308-.087.595-.264.855-.177.26-.437.47-.783.626-.347.155-.787.235-1.314.235l.007.01zm4.343-.107v-4.126h-1.636v-1.194h4.777v1.194h-1.63v4.126h-1.511zm6.542.107c-.427 0-.822-.069-1.182-.204a2.863 2.863 0 01-.94-.58 2.652 2.652 0 01-.842-1.983 2.652 2.652 0 01.842-1.982c.267-.253.58-.446.94-.581.36-.139.755-.204 1.182-.204.433 0 .825.069 1.185.204.358.138.67.332.933.58a2.684 2.684 0 01.846 1.982c0 .402-.076.769-.225 1.108a2.72 2.72 0 01-1.553 1.456 3.255 3.255 0 01-1.186.204zm0-1.245c.204 0 .392-.035.569-.107.176-.073.325-.173.457-.308.128-.135.232-.294.305-.484.073-.187.111-.395.111-.623 0-.228-.038-.443-.11-.626a1.448 1.448 0 00-.306-.477 1.302 1.302 0 00-.457-.308 1.471 1.471 0 00-.57-.108 1.47 1.47 0 00-.568.108 1.333 1.333 0 00-.457.308 1.484 1.484 0 00-.305.477 1.687 1.687 0 00-.111.626c0 .232.038.436.11.623.073.186.178.349.306.484s.28.235.457.308c.177.072.364.107.569.107zm3.983 1.138v-5.32h1.494v5.32h-1.494zm1.349-1.18l-.084-1.687 2.292-2.456h1.66l-2.284 2.47-.84.875-.744.799zm2.232 1.18l-1.737-2.196.981-1.048 2.507 3.244h-1.75zM2.58 91.77H1.072v-5.32H2.58v5.32zm2.163-2.076h-2.27V88.45h2.27v1.245zm-.107-3.244h1.508v5.32H4.636v-5.32zM6.8 91.77l2.353-5.32h1.487l2.361 5.32h-1.57l-1.845-4.584h.593L8.335 91.77h-1.54.004zm1.285-1.034l.389-1.11h2.607l.388 1.11H8.085zm5.571 1.034v-5.32h1.508v4.126h2.545v1.194h-4.053zm6.382 0H18.53v-5.32h4.181v1.162h-2.673v4.158zm-.107-2.989h2.461v1.162h-2.461v-1.162zm7.301 2.989v-4.127h-1.636V86.45h4.776v1.193h-1.629v4.127h-1.511zm3.928 0v-5.32h2.436c.49 0 .909.08 1.262.235.354.156.628.384.819.681.194.298.29.647.29 1.052s-.096.747-.29 1.038a1.83 1.83 0 01-.819.667c-.353.156-.773.232-1.261.232h-1.599l.67-.63v2.045h-1.509zm1.507-1.885l-.669-.692h1.508c.316 0 .552-.07.704-.204.156-.139.232-.325.232-.571 0-.246-.076-.44-.232-.578-.156-.138-.388-.204-.704-.204h-1.508l.67-.692v2.94zm1.79 1.885l-1.325-1.937h1.608l1.335 1.937h-1.619zm2.568 0v-5.32h1.508v5.32h-1.508zm2.174 0l2.354-5.32h1.487l2.36 5.32h-1.57l-1.844-4.584h.593l-1.845 4.584h-1.539.004zm1.286-1.034l.388-1.11h2.607l.388 1.11h-3.383zm6.437 1.034v-4.127h-1.636V86.45h4.777v1.193h-1.63v4.127h-1.511zm5.44 0h-1.508v-5.32h1.508v5.32zm2.163-2.076h-2.27V88.45h2.27v1.245zm-.108-3.244h1.508v5.32h-1.508v-5.32zm2.805 5.32v-5.32h1.508v4.126h2.544v1.194h-4.052zm7.481.107c-.427 0-.822-.07-1.182-.204a2.864 2.864 0 01-.94-.581 2.652 2.652 0 01-.842-1.982 2.652 2.652 0 01.842-1.982c.267-.253.58-.447.94-.582a3.28 3.28 0 011.182-.204c.426 0 .825.07 1.185.204.358.139.67.332.933.581a2.686 2.686 0 01.846 1.982c0 .402-.076.768-.225 1.107a2.716 2.716 0 01-1.553 1.457 3.256 3.256 0 01-1.186.204zm0-1.245c.204 0 .392-.035.568-.108.177-.072.326-.173.458-.308.128-.134.232-.293.305-.484.073-.186.111-.394.111-.622a1.72 1.72 0 00-.11-.626 1.447 1.447 0 00-.306-.478 1.3 1.3 0 00-.458-.308 1.47 1.47 0 00-.568-.107c-.205 0-.392.035-.569.107a1.333 1.333 0 00-.457.308 1.483 1.483 0 00-.305.478 1.687 1.687 0 00-.111.626c0 .231.038.436.11.622.073.187.177.35.306.484.128.135.28.236.457.308.177.073.364.108.569.108zm3.983 1.138v-5.32h1.241l2.94 3.542h-.586V86.45h1.477v5.32h-1.241l-2.94-3.542h.586v3.542h-1.477zM44.77 65.626l.294-.256c.496-.433.829-.71.829-1.2 0-.547-.413-1.025-1.127-1.025s-1.203.447-1.23 1.16h.773c.03-.284.159-.43.419-.43.288 0 .385.177.385.329 0 .19-.094.284-.687.803l-.925.805v.547h2.45v-.73h-1.188.01l-.003-.003zm3.102-2.484c-.877 0-1.4.654-1.4 1.64 0 .982.523 1.64 1.4 1.64.877 0 1.4-.654 1.4-1.64 0-.983-.523-1.64-1.4-1.64zm0 2.546c-.447 0-.624-.325-.624-.906s.177-.907.624-.907.624.326.624.907c0 .58-.177.906-.624.906zm3.148-.062l.295-.256c.495-.433.828-.71.828-1.2 0-.547-.412-1.025-1.127-1.025-.696 0-1.202.447-1.23 1.16h.773c.031-.284.16-.43.42-.43.287 0 .384.177.384.329 0 .19-.093.284-.686.803l-.926.805v.547h2.451v-.73h-1.189.01l-.003-.003zm3.758-.917a.719.719 0 00.34-.626c0-.536-.465-.938-1.155-.938-.641 0-1.154.37-1.2 1.049h.777c.042-.24.18-.322.399-.322.312 0 .399.149.399.315 0 .204-.167.242-.375.242h-.343v.668h.416c.302 0 .395.086.395.262 0 .204-.104.336-.433.336-.277 0-.44-.093-.475-.353h-.777c.035.723.583 1.08 1.262 1.08.725 0 1.203-.353 1.203-.983 0-.342-.16-.605-.43-.726l-.003-.004z" fill="#fff"/><path d="M67.078 63.357c-5.194-3.826-10.636-7.4-16.599-9.928-2.063-.868-4.014-1.643-6.254-2.23-2.104-.554-5.106-.935-6.66 1.144-.592.778-.887 1.882-.79 2.85.025.606.35 1.495.475 1.906l-.02.032c-.15.214-.198.255-.253.3-.184.132-.41.18-.697.225-.402.052-.936.042-1.498-.024-3.179-.429-6.268-1.726-9.249-2.992-4.978-2.183-9.974-4.864-14.761-7.479-2.84-1.428-5.051 2.494-2.389 4.182C15.001 55.145 29.5 63.5 36.977 62.461c1.722-.228 3.331-1.17 4.246-2.65.399-.58.69-1.197.797-1.916.115-.71.007-1.467-.183-2.076-.056-.169-.1-.307-.142-.428.468.03.967.131 1.476.231 1.214.27 2.496.675 3.769 1.121 1.9.675 3.817 1.415 5.647 2.266 4.333 2.051 8.507 4.5 12.542 7.088 1.862 1.145 3.64-1.384 1.952-2.743l-.003.003zm-29.79-6.116c0 .049.01.056 0 0zm3.693-1.83c-.007 0-.014.007-.018.007-.035.014-.028 0 .017-.007zm32.524 4.483a181.407 181.407 0 00-4.95-7.987c-5.26-7.897-10.792-15.615-17.792-22.139-2.402-2.193-5.068-4.092-7.83-5.832-4.975-3.054-11.129-5.86-17.23-4.894-3.436.563-6.316 2.56-7.325 5.49a132.799 132.799 0 00-5.457-.793 91.947 91.947 0 00-7.169-.574c-.603-.024-1.802-.07-2.406-.076a2.845 2.845 0 00-2.912 2.923 2.842 2.842 0 002.957 2.746 81.61 81.61 0 0115.098.969c1.646 4.953 7.18 9.748 11.055 12.774 2.822 2.097 6.22 4.217 9.928 4.238 2.906.062 5.95-1.709 6.68-4.67.91-3.971-2.305-7.053-5.113-9.194-1.504-1.173-3.137-2.232-4.856-3.062-3.828-1.82-7.832-3.127-11.922-4.099.659-.602 1.508-.927 2.437-1.107 3.28-.54 6.573.564 9.585 1.903 3.307 1.505 6.445 3.525 9.353 5.728 2.923 2.283 5.512 4.912 8.043 7.714 6.09 6.818 11.544 14.283 16.63 21.886 1.4 2.006 4.34.18 3.203-1.947l-.007.003zm-39.461-25.73c1.875.893 3.657 2.052 5.11 3.54.46.477.87.975 1.171 1.452.364.606.597 1.049.562 1.53-.056.158-.246.342-.447.442-1.325.609-3.061.028-4.4-.508-2.024-.855-4.038-2.263-5.761-3.722-1.515-1.273-2.95-2.73-4.125-4.276-.299-.39-.68-.934-1.058-1.55l.631.156c2.843.744 5.692 1.67 8.313 2.94l.004-.003zm4.697-19.017c1.685 2.02 3.758 3.701 5.852 5.181 5.151 3.564 10.667 6.234 16.404 8.61.385.156.756.305 1.161.46 2.073.703 3.231-2.158 1.28-3.099-.58-.249-1.581-.726-2.153-.993-4.92-2.376-9.849-5.109-14.151-8.412-1.976-1.557-3.824-3.183-5.207-5.234-1.688-2.59-3.013-5.811-2.888-8.8A2.616 2.616 0 0036.675.013c-1.546-.156-2.891 1.104-2.867 2.646-.017 1.858.392 3.719.984 5.452.905 2.594 2.247 4.919 3.946 7.032l.003.004z" fill="#fff"/><path d="M46.922 8.851a2.642 2.642 0 002.642-2.636 2.642 2.642 0 00-5.283 0 2.642 2.642 0 002.641 2.636z" fill="#fff"/></svg>