<svg width="216" height="58" fill="none" xmlns="http://www.w3.org/2000/svg"><path d="M76.981 21.529l-2.858-6.912h-3.21l4.49 10.6h2.933l4.501-10.6h-2.944l-2.912 6.912zm14.923 1.311H86.88v-8.223h-2.976v10.6h8V22.84zm4.32.312h4.459l.821 2.064h3.093l-4.661-10.6h-2.933l-4.64 10.6h3.04l.821-2.064zm.885-2.214l1.355-3.387 1.355 3.387H97.11zm16.811-5.666c-.885-.43-1.899-.655-3.061-.655h-4.971v10.6h4.971c1.162 0 2.186-.216 3.061-.657a4.931 4.931 0 002.069-1.838c.491-.795.747-1.73.747-2.806 0-1.075-.245-2.031-.747-2.816-.49-.785-1.184-1.398-2.069-1.828zm-.576 6.214a2.42 2.42 0 01-1.045 1c-.448.225-.971.344-1.568.344h-1.878v-5.816h1.878c.597 0 1.12.118 1.568.344.448.226.789.559 1.045.989.245.43.373.957.373 1.57 0 .612-.128 1.128-.373 1.569zm8.384-6.869h-2.976v10.6h2.976v-10.6zm10.251 0l-2.912 6.912-2.848-6.912h-3.222l4.491 10.6h2.933l4.502-10.6h-2.944zm13.365 1.353a5.635 5.635 0 00-1.845-1.16 6.502 6.502 0 00-2.336-.409c-.854 0-1.622.14-2.326.409a5.348 5.348 0 00-1.856 1.16 5.305 5.305 0 00-1.226 1.753 5.473 5.473 0 00-.438 2.193c0 .796.15 1.527.438 2.193a5.255 5.255 0 001.226 1.752 5.685 5.685 0 001.856 1.161 6.532 6.532 0 002.326.409c.842 0 1.632-.14 2.336-.409a5.538 5.538 0 001.845-1.15 5.345 5.345 0 001.227-1.752 5.363 5.363 0 00.448-2.204c0-.795-.15-1.526-.448-2.193a5.578 5.578 0 00-1.227-1.752zm-1.557 5.182c-.15.377-.342.7-.598.957a2.513 2.513 0 01-.906.613c-.342.14-.715.215-1.12.215-.406 0-.779-.075-1.12-.215a2.605 2.605 0 01-.907-.613 2.829 2.829 0 01-.597-.957c-.15-.376-.214-.784-.214-1.247 0-.462.075-.881.214-1.247.149-.365.341-.688.597-.956.256-.27.555-.473.907-.613.341-.14.714-.215 1.12-.215.405 0 .778.075 1.12.215.341.14.65.344.906.613.256.268.459.58.598.956.149.366.213.785.213 1.247 0 .463-.075.871-.213 1.247zm9.93 1.828c-.245.075-.576.118-.992.118a6.172 6.172 0 01-1.845-.29 6.73 6.73 0 01-1.632-.753l-.981 2.215c.501.344 1.152.623 1.941.838.8.215 1.621.323 2.485.323 1.046 0 1.91-.161 2.592-.473.683-.312 1.206-.731 1.547-1.247a3.037 3.037 0 00.523-1.699c0-.559-.107-1.02-.32-1.386a2.626 2.626 0 00-.854-.893 5.051 5.051 0 00-1.162-.548 14.23 14.23 0 00-1.28-.344c-.427-.086-.822-.183-1.174-.269-.352-.086-.64-.193-.853-.333-.213-.14-.32-.322-.32-.548 0-.183.053-.344.16-.484.107-.14.288-.258.544-.344.245-.086.576-.129.992-.129.459 0 .939.065 1.429.204.491.14.982.344 1.483.613l.917-2.225a6.279 6.279 0 00-1.781-.688 8.582 8.582 0 00-2.037-.237c-1.035 0-1.888.162-2.582.473-.693.312-1.205.731-1.557 1.247a3.064 3.064 0 00-.523 1.731c0 .57.107 1.032.331 1.398.224.365.501.666.853.892.352.226.736.408 1.163.548.427.14.853.258 1.28.344.427.086.811.183 1.163.269.352.086.64.204.853.344.224.14.331.333.331.58a.647.647 0 01-.171.452c-.117.129-.299.226-.544.3h.021zm7.563 2.236h2.976v-8.224h3.211v-2.375h-9.419v2.375h3.232v8.224zm12.907.214c.853 0 1.632-.139 2.336-.408a5.538 5.538 0 001.845-1.15 5.345 5.345 0 001.227-1.752 5.363 5.363 0 00.448-2.204c0-.795-.15-1.526-.448-2.193a5.578 5.578 0 00-1.227-1.752 5.635 5.635 0 00-1.845-1.161 6.502 6.502 0 00-2.336-.409c-.854 0-1.622.14-2.326.409a5.348 5.348 0 00-1.856 1.16 5.305 5.305 0 00-1.226 1.753 5.473 5.473 0 00-.438 2.193c0 .796.15 1.527.438 2.193a5.255 5.255 0 001.226 1.752 5.685 5.685 0 001.856 1.161 6.532 6.532 0 002.326.409zm-2.838-5.514c0-.462.075-.881.214-1.247a3.01 3.01 0 01.597-.957c.256-.268.555-.473.907-.612.341-.14.714-.215 1.12-.215.405 0 .778.075 1.12.215.341.14.65.344.906.612.256.27.459.58.598.957.149.366.213.785.213 1.247 0 .462-.075.87-.213 1.247-.15.376-.342.699-.598.957a2.512 2.512 0 01-.906.613c-.342.14-.715.215-1.12.215a2.94 2.94 0 01-1.12-.215 2.605 2.605 0 01-.907-.613 2.83 2.83 0 01-.597-.957c-.15-.376-.214-.785-.214-1.247zm13.632 2.644l1.11-1.192 3.008 3.848h3.456l-4.512-5.912 4.288-4.687h-3.275l-4.075 4.407v-4.407h-2.944v10.6h2.944V22.56zM79.2 36.772h-4.053v-3.988H72.17v10.6h2.976v-4.128H79.2v4.128h2.976v-10.6H79.2v3.988zm8.917-3.988l-4.64 10.6h3.04l.822-2.064h4.458l.822 2.064h3.093l-4.661-10.6h-2.934zm.096 6.332l1.355-3.386 1.355 3.386h-2.709zm11.755-6.332h-2.976v10.6h7.989v-2.376h-5.013v-8.224zm6.645 10.6h2.966V39.75h4.65v-2.31h-4.65v-2.333h5.28v-2.322h-8.246v10.6zm13.92-8.224h3.232v8.224h2.976V35.16h3.211v-2.376h-9.419v2.376zm19.894 3.612c.384-.58.576-1.269.576-2.064 0-.796-.192-1.505-.576-2.096-.384-.592-.918-1.043-1.611-1.355-.693-.312-1.525-.473-2.485-.473h-4.811v10.6h2.976v-2.817h1.621l1.91 2.817h3.189l-2.272-3.333a3.617 3.617 0 001.493-1.268l-.01-.011zm-2.891-3.214c.309.268.459.655.459 1.15 0 .494-.15.86-.459 1.14-.309.268-.768.408-1.387.408h-1.653v-3.107h1.653c.619 0 1.088.14 1.387.409zm8.523-2.774h-2.976v10.6h2.976v-10.6zm5.952 0l-4.64 10.6h3.04l.821-2.064h4.459l.821 2.064h3.093l-4.661-10.6h-2.933zm.096 6.332l1.354-3.386 1.355 3.386h-2.709zm7.264-3.956h3.232v8.224h2.976V35.16h3.21v-2.376h-9.418v2.376zm18.016 1.612h-4.054v-3.988h-2.976v10.6h2.976v-4.128h4.054v4.128h2.976v-10.6h-2.976v3.988zm8.501-3.988h-2.976v10.6h7.989v-2.376h-5.013v-8.224zm15.957 1.354a5.614 5.614 0 00-1.845-1.16 6.504 6.504 0 00-2.336-.41c-.853 0-1.621.14-2.325.41a5.332 5.332 0 00-1.856 1.16 5.294 5.294 0 00-1.227 1.753 5.472 5.472 0 00-.437 2.193c0 .795.149 1.526.437 2.193a5.242 5.242 0 001.227 1.752 5.665 5.665 0 001.856 1.16 6.52 6.52 0 002.325.41c.843 0 1.632-.14 2.336-.41a5.526 5.526 0 001.845-1.15 5.344 5.344 0 001.227-1.752 5.346 5.346 0 00.448-2.203c0-.796-.149-1.527-.448-2.193a5.58 5.58 0 00-1.227-1.753zm-1.557 5.182a2.79 2.79 0 01-.597.957 2.516 2.516 0 01-.907.612 2.93 2.93 0 01-1.12.215 2.93 2.93 0 01-1.12-.215 2.614 2.614 0 01-.907-.612 2.846 2.846 0 01-.597-.957c-.149-.376-.213-.785-.213-1.247 0-.462.074-.882.213-1.247a3.01 3.01 0 01.597-.957c.256-.269.555-.473.907-.613a2.93 2.93 0 011.12-.215c.405 0 .779.076 1.12.215.341.14.651.344.907.613s.458.58.597.957c.149.365.213.785.213 1.247 0 .462-.074.87-.213 1.247zm12.331-6.536v5.655l-4.651-5.655h-2.443v10.6h2.912V37.74l4.64 5.644h2.454v-10.6h-2.912zM38.016 56.864l.245-.226c.427-.376.704-.613.704-1.032 0-.473-.352-.881-.96-.881s-1.024.387-1.045 1h.661c.032-.248.14-.366.363-.366.245 0 .33.15.33.28 0 .16-.085.247-.586.687l-.79.7v.472h2.091v-.623h-1.002l-.01-.011zm2.634-2.139c-.746 0-1.194.559-1.194 1.408 0 .85.448 1.408 1.195 1.408.746 0 1.194-.559 1.194-1.408 0-.85-.448-1.408-1.194-1.408zm0 2.182c-.383 0-.533-.28-.533-.785s.15-.785.534-.785.533.28.533.785-.15.785-.533.785zm2.678-.043l.245-.226c.427-.376.704-.613.704-1.032 0-.473-.352-.881-.96-.881s-1.024.387-1.045 1h.661c.032-.248.14-.366.363-.366.245 0 .33.15.33.28 0 .16-.085.247-.586.687l-.79.7v.472h2.091v-.623H43.34l-.01-.011zm3.2-.796a.615.615 0 00.288-.537c0-.462-.395-.806-.981-.806-.544 0-.982.322-1.024.903h.661c.032-.205.15-.28.341-.28.267 0 .342.13.342.269 0 .172-.139.204-.32.204h-.288v.57h.352c.256 0 .33.075.33.226 0 .172-.085.29-.373.29-.235 0-.373-.086-.405-.301h-.662c.032.623.502.924 1.078.924.618 0 1.024-.3 1.024-.849 0-.29-.139-.516-.363-.623v.01z" fill="#F6CA48"/><path d="M56.992 54.907c-4.416-3.289-9.045-6.363-14.123-8.535-1.749-.742-3.413-1.408-5.322-1.913-1.792-.474-4.352-.807-5.664.978-.502.666-.758 1.612-.672 2.45.021.517.298 1.28.405 1.635 0 0-.01.021-.021.021-.128.183-.17.215-.214.258-.16.118-.352.15-.597.194-.341.043-.8.032-1.27-.022-2.709-.365-5.333-1.483-7.871-2.569-4.235-1.881-8.49-4.182-12.566-6.429-2.41-1.225-4.298 2.14-2.037 3.591 5.632 3.268 17.973 10.449 24.33 9.557 1.473-.194 2.838-1.01 3.617-2.28.341-.494.586-1.031.682-1.644.096-.613 0-1.258-.16-1.785-.042-.15-.085-.268-.117-.365.395.022.821.108 1.259.204 1.034.226 2.122.58 3.21.968 1.622.58 3.243 1.215 4.811 1.946 3.69 1.762 7.243 3.87 10.677 6.095 1.58.978 3.094-1.194 1.664-2.355h-.02zm-22.23-6.826h.002z" fill="#F6CA48"/><path d="M58.25 45.071c-4.48-6.783-9.183-13.416-15.135-19.027-2.048-1.882-4.31-3.516-6.667-5.01-4.235-2.623-9.472-5.03-14.667-4.203-2.922.484-5.376 2.204-6.229 4.72a114.877 114.877 0 00-4.64-.678 77.356 77.356 0 00-6.101-.495 130.86 130.86 0 00-2.048-.064C1.376 20.27.235 21.432.288 22.829c.043 1.355 1.173 2.42 2.517 2.365 4.267-.129 8.598.15 12.854.828 1.397 4.257 6.112 8.374 9.408 10.976 2.4 1.806 5.29 3.623 8.448 3.644 2.474.054 5.056-1.473 5.685-4.01.779-3.407-1.963-6.063-4.352-7.9a23.118 23.118 0 00-4.139-2.635c-3.253-1.558-6.666-2.687-10.144-3.526.566-.516 1.28-.795 2.07-.956 2.794-.463 5.59.483 8.16 1.634 2.816 1.29 5.482 3.031 7.957 4.923 2.485 1.967 4.693 4.225 6.848 6.633 5.184 5.859 9.824 12.276 14.155 18.812 1.194 1.72 3.69.15 2.72-1.677a161.908 161.908 0 00-4.214-6.869h-.01zm-36.437-17.77c2.422.645 4.843 1.44 7.072 2.527 1.6.763 3.115 1.763 4.352 3.042.395.408.736.838.992 1.247.31.516.502.903.48 1.311-.042.14-.213.29-.384.377-1.13.526-2.602.021-3.744-.441-1.717-.731-3.434-1.946-4.906-3.204-1.29-1.096-2.507-2.343-3.51-3.676a15.546 15.546 0 01-.896-1.333c.182.043.363.086.534.14l.01.01zm11.072-13.824c1.43 1.742 3.2 3.182 4.982 4.45 4.384 3.064 9.077 5.354 13.962 7.396.331.13.64.258.992.398 1.76.602 2.752-1.86 1.088-2.666-.49-.215-1.344-.623-1.834-.849-4.182-2.043-8.384-4.397-12.043-7.235-1.685-1.333-3.253-2.73-4.427-4.493-1.44-2.226-2.56-4.999-2.464-7.568A2.232 2.232 0 0031.125.47c-1.312-.13-2.464.946-2.442 2.279-.011 1.601.33 3.192.842 4.687.768 2.225 1.91 4.224 3.36 6.041z" fill="#F6CA48"/><path d="M39.85 8.07c1.238 0 2.251-1.022 2.251-2.269s-1.013-2.268-2.25-2.268c-1.238 0-2.25 1.021-2.25 2.268 0 1.247 1.012 2.269 2.25 2.269z" fill="#F6CA48"/></svg>