<svg width="285" height="76" fill="none" xmlns="http://www.w3.org/2000/svg"><path d="M102.092 28.095L98.33 19.03h-4.243l5.928 13.909h3.869l5.949-13.91h-3.89l-3.851 9.067zm19.697 1.723h-6.625v-10.79h-3.924v13.91h10.549v-3.12zm5.703.417h5.886l1.082 2.703h4.084l-6.147-13.91h-3.865l-6.129 13.91h4.004l1.081-2.703h.004zm1.161-2.9l1.782-4.447 1.782 4.446h-3.564zm22.208-7.452c-1.165-.57-2.514-.854-4.046-.854h-6.562v13.909h6.562c1.532 0 2.881-.285 4.046-.855 1.164-.57 2.073-1.376 2.728-2.414.655-1.039.981-2.269.981-3.686 0-1.417-.326-2.664-.981-3.696s-1.564-1.834-2.728-2.404zm-.753 8.157a3.219 3.219 0 01-1.379 1.31c-.59.298-1.28.447-2.074.447h-2.478v-7.631h2.478c.794 0 1.484.149 2.074.448a3.287 3.287 0 011.379 1.302c.33.57.496 1.258.496 2.067 0 .81-.166 1.48-.496 2.057zm11.045-9.011h-3.928v13.909h3.928v-13.91zm13.541 0l-3.852 9.066-3.761-9.066h-4.247l5.932 13.909h3.865l5.949-13.91h-3.886zm17.628 1.778a7.221 7.221 0 00-2.43-1.522c-.933-.357-1.959-.535-3.086-.535-1.126 0-2.135.178-3.075.535a7.286 7.286 0 00-2.447 1.522 6.982 6.982 0 00-1.616 2.296c-.384.875-.575 1.834-.575 2.88 0 1.045.191 2.008.575 2.88a7.034 7.034 0 001.616 2.296 7.316 7.316 0 002.447 1.521c.94.358 1.963.535 3.075.535 1.113 0 2.153-.177 3.086-.535a7.336 7.336 0 002.43-1.511 7.025 7.025 0 001.615-2.296 7.085 7.085 0 00.586-2.89c0-1.046-.194-2.008-.586-2.88a7.223 7.223 0 00-1.615-2.296zm-2.052 6.805c-.191.49-.458.91-.794 1.26-.337.352-.735.62-1.189.807-.458.184-.95.278-1.477.278a3.908 3.908 0 01-1.477-.278 3.369 3.369 0 01-1.189-.806 3.797 3.797 0 01-.794-1.261 4.445 4.445 0 01-.288-1.63c0-.597.097-1.156.288-1.639.191-.483.458-.9.794-1.25a3.443 3.443 0 011.189-.806c.458-.184.95-.278 1.477-.278.527 0 1.022.094 1.477.278.457.184.852.455 1.189.806.336.35.599.767.794 1.25a4.46 4.46 0 01.287 1.64c0 .608-.097 1.14-.287 1.629zm13.118 2.393c-.33.101-.767.15-1.311.15a7.928 7.928 0 01-2.43-.39 9.105 9.105 0 01-2.153-.982l-1.289 2.9c.662.452 1.518.82 2.568 1.101 1.051.285 2.146.428 3.283.428 1.377 0 2.514-.205 3.422-.615.905-.41 1.588-.956 2.042-1.64a3.93 3.93 0 00.683-2.237c0-.73-.142-1.334-.427-1.817a3.442 3.442 0 00-1.119-1.17 6.515 6.515 0 00-1.536-.716 18.902 18.902 0 00-1.685-.448 60.648 60.648 0 01-1.546-.347c-.468-.112-.846-.257-1.13-.438-.284-.177-.427-.42-.427-.726 0-.24.073-.452.219-.636.145-.184.385-.333.714-.448.329-.111.766-.17 1.31-.17.607 0 1.234.09 1.883.267a9.236 9.236 0 011.962.806l1.21-2.921a8.567 8.567 0 00-2.351-.903 11.8 11.8 0 00-2.686-.31c-1.363 0-2.5.206-3.412.616-.911.41-1.594.955-2.052 1.629a3.947 3.947 0 00-.683 2.265c0 .743.146 1.354.437 1.837a3.54 3.54 0 001.13 1.17 6.72 6.72 0 001.536.727c.562.184 1.123.337 1.685.458.561.118 1.074.24 1.535.358.462.118.839.271 1.131.459.291.184.436.437.436.753 0 .226-.076.42-.228.587-.153.167-.396.3-.725.396l.004.007zm9.977 2.933h3.924v-10.79h4.243v-3.12h-12.431v3.12h4.264v10.79zm17.031.277c1.124 0 2.153-.177 3.086-.535a7.336 7.336 0 002.43-1.511 7.025 7.025 0 001.615-2.296 7.085 7.085 0 00.586-2.89c0-1.046-.194-2.008-.586-2.88a7.223 7.223 0 00-1.615-2.296 7.221 7.221 0 00-2.43-1.522c-.933-.357-1.959-.535-3.086-.535-1.126 0-2.135.178-3.075.535a7.286 7.286 0 00-2.447 1.522 6.982 6.982 0 00-1.616 2.296c-.384.875-.575 1.834-.575 2.88 0 1.045.191 2.008.575 2.88a7.034 7.034 0 001.616 2.296 7.316 7.316 0 002.447 1.521c.94.358 1.963.535 3.075.535zm-3.747-7.232c0-.608.097-1.157.288-1.64.19-.483.457-.9.793-1.25a3.447 3.447 0 011.19-.806 3.914 3.914 0 011.476-.278 3.91 3.91 0 011.477.278 3.37 3.37 0 011.189.806c.336.35.6.767.794 1.25.191.483.288 1.032.288 1.64 0 .608-.097 1.14-.288 1.629-.191.49-.458.91-.794 1.26-.336.352-.735.62-1.189.807a3.92 3.92 0 01-1.477.278 3.903 3.903 0 01-1.476-.278 3.382 3.382 0 01-1.19-.806 3.779 3.779 0 01-.793-1.261 4.445 4.445 0 01-.288-1.63zm18.006 3.47l1.456-1.566 3.976 5.05h4.562l-5.966-7.756 5.668-6.152h-4.323l-5.373 5.777v-5.777h-3.886v13.909h3.886v-3.485zM105.031 48.1h-5.352v-5.228H95.75v13.909h3.928v-5.423h5.352v5.423h3.928V42.872h-3.928V48.1zm11.759-5.228l-6.129 13.909h4.004l1.082-2.703h5.886l1.082 2.703h4.083l-6.146-13.909h-3.865.003zm.121 8.306l1.782-4.447 1.782 4.447h-3.564zm15.528-8.306h-3.928v13.909h10.549v-3.12h-6.621V42.872zm8.763 13.908h3.925v-4.765h6.129v-3.043h-6.129v-3.06h6.961v-3.04h-10.886v13.909zm18.381-10.788h4.264V56.78h3.927V45.99h4.244v-3.119h-12.435v3.12zm26.256 4.741c.503-.76.753-1.667.753-2.713s-.25-1.977-.753-2.751c-.502-.775-1.213-1.369-2.132-1.779-.918-.41-2.014-.614-3.283-.614h-6.344v13.908h3.928v-3.696h2.142l2.517 3.696h4.205l-2.998-4.38c.839-.4 1.497-.955 1.969-1.671h-.004zm-3.817-4.224c.403.358.607.861.607 1.511 0 .65-.201 1.133-.607 1.49-.402.358-1.015.535-1.833.535h-2.181v-4.074h2.181c.818 0 1.431.177 1.833.535v.003zm11.253-3.637h-3.927v13.909h3.927V42.872zm7.852 0l-6.129 13.909h4.004l1.082-2.703h5.886l1.082 2.703h4.083l-6.146-13.909h-3.865.003zm.122 8.306l1.781-4.447 1.782 4.447h-3.563zm9.595-5.186h4.264V56.78h3.928V45.99h4.243v-3.119h-12.435v3.12zm23.778 2.108h-5.356v-5.228h-3.924v13.909h3.924v-5.423h5.356v5.423h3.924V42.872h-3.924V48.1zm11.222-5.228h-3.924v13.909h10.549v-3.12h-6.625V42.872zm21.06 1.778a7.22 7.22 0 00-2.43-1.52c-.933-.359-1.959-.536-3.086-.536-1.126 0-2.135.177-3.075.535a7.285 7.285 0 00-2.447 1.522 6.981 6.981 0 00-1.616 2.296c-.384.875-.575 1.834-.575 2.88 0 1.045.191 2.007.575 2.88a7.03 7.03 0 001.616 2.295 7.316 7.316 0 002.447 1.522c.94.358 1.962.535 3.075.535 1.113 0 2.153-.177 3.086-.535a7.336 7.336 0 002.43-1.511 7.027 7.027 0 001.615-2.296 7.098 7.098 0 00.586-2.89c0-1.046-.194-2.008-.586-2.88a7.175 7.175 0 00-1.615-2.296zm-2.053 6.806c-.19.49-.457.91-.793 1.26a3.453 3.453 0 01-1.189.806c-.458.185-.95.278-1.477.278a3.908 3.908 0 01-1.477-.277 3.37 3.37 0 01-1.189-.806 3.798 3.798 0 01-.794-1.261 4.445 4.445 0 01-.288-1.63c0-.597.097-1.156.288-1.64a3.83 3.83 0 01.794-1.25c.336-.35.735-.618 1.189-.806a3.92 3.92 0 011.477-.277 3.91 3.91 0 011.477.277c.457.185.852.456 1.189.806.336.351.599.768.793 1.25.191.484.288 1.033.288 1.64a4.41 4.41 0 01-.288 1.63zm16.273-8.584v7.413l-6.129-7.413h-3.231v13.909h3.845v-7.413l6.129 7.413h3.231V42.872h-3.845zM50.663 74.465l.33-.291c.558-.49.929-.8.929-1.355 0-.615-.461-1.157-1.265-1.157-.805 0-1.352.504-1.384 1.31h.87c.035-.32.177-.483.472-.483.326 0 .433.198.433.371 0 .216-.107.32-.773.907l-1.04.91v.615h2.753v-.823h-1.325v-.004zm3.485-2.8c-.985 0-1.574.737-1.574 1.848 0 1.112.589 1.849 1.574 1.849.984 0 1.573-.737 1.573-1.849 0-1.111-.589-1.848-1.573-1.848zm0 2.87c-.503 0-.7-.368-.7-1.022 0-.653.197-1.024.7-1.024.502 0 .7.368.7 1.024 0 .657-.198 1.022-.7 1.022zm3.536-.07l.329-.291c.558-.49.929-.8.929-1.355 0-.615-.461-1.157-1.265-1.157-.805 0-1.352.504-1.384 1.31h.87c.035-.32.177-.483.472-.483.326 0 .433.198.433.371 0 .216-.107.32-.773.907l-1.04.91v.615h2.753v-.823h-1.325v-.004zm4.222-1.031a.807.807 0 00.381-.709c0-.604-.523-1.06-1.296-1.06-.721 0-1.297.417-1.345 1.182h.873c.045-.271.205-.362.448-.362.35 0 .447.167.447.358 0 .23-.188.275-.423.275h-.385v.753h.468c.34 0 .44.098.44.296 0 .229-.118.375-.489.375-.308 0-.492-.108-.533-.396h-.874c.041.813.655 1.216 1.418 1.216.811 0 1.352-.396 1.352-1.109 0-.385-.177-.68-.482-.82z" fill="#fff"/><path d="M75.717 71.905c-5.834-4.318-11.946-8.347-18.644-11.2-2.315-.979-4.51-1.854-7.023-2.514-2.364-.625-5.737-1.056-7.481 1.292-.666.879-.999 2.123-.888 3.217.028.68.396 1.684.534 2.15l-.024.035c-.166.243-.222.288-.284.34-.205.15-.461.205-.784.254-.454.059-1.05.048-1.681-.028-3.57-.486-7.04-1.949-10.386-3.376-5.592-2.463-11.204-5.486-16.581-8.435-3.19-1.611-5.672 2.81-2.683 4.718 7.432 4.286 23.718 13.71 32.118 12.54 1.938-.257 3.744-1.32 4.767-2.988.447-.656.773-1.347.894-2.16.129-.8.007-1.654-.208-2.342a25.903 25.903 0 00-.163-.486c.527.035 1.089.146 1.657.264 1.363.302 2.801.76 4.233 1.265 2.132.76 4.285 1.597 6.344 2.556 4.867 2.314 9.554 5.079 14.089 7.997 2.09 1.292 4.087-1.56 2.194-3.096v-.003zm-33.46-6.899c0 .056.01.063 0 0zm4.129-2.056c-.042.014-.032 0 .017-.007 0 0-.014.007-.017.007zm30.988-3.956c-5.907-8.91-12.12-17.612-19.982-24.973-2.7-2.473-5.692-4.616-8.795-6.576C43.01 24 36.1 20.84 29.243 21.925c-3.858.636-7.096 2.887-8.226 6.194a142.027 142.027 0 00-6.13-.892c-2.672-.32-5.359-.539-8.053-.65a140.29 140.29 0 00-2.704-.087 3.2 3.2 0 10.052 6.395 90.817 90.817 0 0116.96 1.095c1.85 5.589 8.063 10.997 12.417 14.408 3.172 2.366 6.985 4.756 11.152 4.78 3.266.07 6.68-1.928 7.502-5.266 1.023-4.477-2.59-7.955-5.744-10.369-1.688-1.323-3.526-2.515-5.457-3.453-4.298-2.053-8.798-3.525-13.391-4.627.741-.68 1.695-1.045 2.735-1.25 3.685-.608 7.384.636 10.764 2.147 3.713 1.698 7.238 3.977 10.504 6.46 3.283 2.578 6.191 5.541 9.034 8.702C67.5 53.2 73.623 61.623 79.333 70.196c1.574 2.262 4.874.205 3.598-2.195-1.775-3.067-3.633-6.044-5.56-9.01l.003.003zm-48.1-23.326c3.193.84 6.396 1.886 9.34 3.314 2.104 1.007 4.107 2.313 5.74 3.991.517.538.978 1.098 1.314 1.64.41.68.67 1.18.634 1.726-.062.18-.277.386-.499.497-1.487.688-3.435.031-4.943-.573-2.274-.963-4.538-2.55-6.472-4.2-1.7-1.435-3.315-3.078-4.632-4.825a21.027 21.027 0 01-1.186-1.75c.236.058.472.114.708.176l-.004.004zm14.619-18.137c1.893 2.28 4.222 4.176 6.573 5.843 5.786 4.02 11.98 7.03 18.425 9.713.43.177.85.343 1.304.517 2.33.792 3.63-2.435 1.438-3.494-.648-.278-1.778-.82-2.42-1.122-5.525-2.682-11.061-5.763-15.894-9.49-2.219-1.755-4.295-3.589-5.848-5.902-1.897-2.922-3.384-6.552-3.245-9.925A2.945 2.945 0 0041.57.461c-1.736-.173-3.248 1.244-3.217 2.988-.017 2.098.44 4.196 1.106 6.152 1.02 2.925 2.524 5.547 4.43 7.93h.004z" fill="#fff"/><path d="M53.083 10.431a2.974 2.974 0 000-5.947 2.974 2.974 0 000 5.947z" fill="#fff"/></svg>