<svg width="401" height="106" fill="none" xmlns="http://www.w3.org/2000/svg"><g clip-path="url(#clip0_1_81)" fill="#000"><path d="M142.79 38.92l-5.3-12.76h-5.99l8.36 19.58h5.46l8.39-19.58h-5.48l-5.44 12.76zm27.79 2.42h-9.35V26.16h-5.53v19.58h14.88v-4.4zm8.04.59h8.3l1.53 3.8h5.76l-8.67-19.58h-5.45l-8.64 19.58h5.65l1.53-3.8h-.01zm1.64-4.08l2.51-6.26 2.51 6.26h-5.03.01zm31.32-10.49c-1.64-.8-3.54-1.2-5.71-1.2h-9.26v19.58h9.26c2.16 0 4.07-.4 5.71-1.2 1.64-.8 2.92-1.93 3.85-3.4.92-1.46 1.38-3.19 1.38-5.19 0-2-.46-3.75-1.38-5.2-.92-1.45-2.21-2.58-3.85-3.38v-.01zm-1.06 11.48c-.47.81-1.11 1.43-1.94 1.85-.83.42-1.8.63-2.92.63h-3.5V30.58h3.5c1.12 0 2.09.21 2.92.63a4.57 4.57 0 011.94 1.83c.47.8.7 1.77.7 2.91 0 1.14-.23 2.08-.7 2.9v-.01zm15.58-12.68h-5.54v19.58h5.54V26.16zm19.1 0l-5.43 12.76-5.31-12.76h-5.98l8.36 19.58h5.45l8.4-19.58h-5.49zm24.87 2.5c-.97-.92-2.11-1.64-3.43-2.14-1.31-.5-2.76-.76-4.35-.76-1.59 0-3.01.25-4.34.76-1.32.5-2.48 1.22-3.45 2.14-.98.92-1.74 2-2.28 3.23-.54 1.23-.81 2.58-.81 4.06 0 1.48.27 2.83.81 4.06.54 1.23 1.3 2.31 2.28 3.23.98.92 2.13 1.64 3.45 2.14 1.32.5 2.77.76 4.34.76 1.57 0 3.04-.25 4.35-.76 1.31-.51 2.46-1.21 3.43-2.13.97-.91 1.73-1.99 2.28-3.23.55-1.24.83-2.6.83-4.07 0-1.47-.28-2.83-.83-4.06-.55-1.23-1.31-2.31-2.28-3.23zm-2.9 9.58c-.27.69-.64 1.28-1.12 1.78-.48.49-1.03.87-1.68 1.13-.64.26-1.34.39-2.08.39s-1.44-.13-2.08-.39a4.93 4.93 0 01-1.68-1.13c-.48-.49-.85-1.09-1.12-1.78-.27-.69-.41-1.45-.41-2.29 0-.84.14-1.63.41-2.31.27-.68.64-1.27 1.12-1.76.48-.49 1.03-.87 1.68-1.13.64-.26 1.34-.39 2.08-.39s1.44.13 2.08.39c.64.26 1.2.64 1.68 1.13.48.49.85 1.08 1.12 1.76.27.68.41 1.45.41 2.31 0 .86-.14 1.6-.41 2.29zm18.51 3.37c-.47.14-1.08.21-1.85.21-1.14 0-2.28-.18-3.43-.55-1.15-.36-2.16-.83-3.03-1.38l-1.82 4.08c.93.63 2.14 1.15 3.62 1.55 1.48.4 3.03.6 4.63.6 1.94 0 3.55-.29 4.83-.87 1.28-.58 2.24-1.35 2.88-2.31.64-.96.97-2.01.97-3.15 0-1.03-.2-1.88-.6-2.56-.4-.68-.93-1.23-1.58-1.65-.65-.42-1.38-.76-2.17-1.01s-1.59-.46-2.38-.63c-.79-.17-1.52-.33-2.18-.49-.66-.16-1.19-.36-1.59-.62-.4-.25-.6-.59-.6-1.02 0-.34.1-.63.31-.9.2-.26.54-.47 1.01-.63.47-.16 1.08-.24 1.85-.24.86 0 1.74.13 2.66.38.91.25 1.84.63 2.77 1.13l1.71-4.11c-.97-.56-2.07-.98-3.31-1.27-1.24-.29-2.5-.43-3.79-.43-1.92 0-3.52.29-4.81.87-1.29.58-2.25 1.34-2.9 2.29-.64.95-.96 2.01-.96 3.19 0 1.04.2 1.91.62 2.59.41.68.94 1.23 1.59 1.65.65.42 1.37.76 2.17 1.02.79.26 1.58.48 2.38.64.79.17 1.51.34 2.17.5.65.17 1.18.38 1.59.64.41.26.62.62.62 1.06 0 .32-.11.59-.32.83-.21.23-.56.42-1.02.56l-.04.03zm14.07 4.13h5.54V30.55h5.98v-4.39h-17.54v4.39h6.02v15.19zm24.03.39c1.58 0 3.04-.25 4.35-.76 1.31-.51 2.46-1.21 3.43-2.13.97-.91 1.73-1.99 2.28-3.23.55-1.24.83-2.6.83-4.07 0-1.47-.28-2.83-.83-4.06-.55-1.23-1.31-2.31-2.28-3.23-.97-.92-2.11-1.64-3.43-2.14-1.31-.5-2.76-.76-4.35-.76-1.59 0-3.01.25-4.34.76-1.32.5-2.48 1.22-3.45 2.14-.98.92-1.74 2-2.28 3.23-.54 1.23-.81 2.58-.81 4.06 0 1.48.27 2.83.81 4.06.54 1.23 1.3 2.31 2.28 3.23.98.92 2.13 1.64 3.45 2.14 1.32.5 2.77.76 4.34.76zm-5.29-10.18c0-.86.14-1.63.41-2.31.27-.68.64-1.27 1.12-1.76.48-.49 1.03-.87 1.68-1.13.64-.26 1.34-.39 2.08-.39s1.44.13 2.08.39c.64.26 1.2.64 1.68 1.13.48.49.85 1.08 1.12 1.76.27.68.41 1.45.41 2.31 0 .86-.14 1.6-.41 2.29-.27.69-.64 1.28-1.12 1.78-.48.49-1.03.87-1.68 1.13-.64.26-1.34.39-2.08.39s-1.44-.13-2.08-.39a4.93 4.93 0 01-1.68-1.13c-.48-.49-.85-1.09-1.12-1.78-.27-.69-.41-1.45-.41-2.29zm25.4 4.88l2.05-2.2 5.61 7.11h6.44l-8.42-10.92 8-8.66h-6.1l-7.58 8.13v-8.13h-5.48v19.58h5.48v-4.91zM146.94 67.08h-7.55v-7.36h-5.54V79.3h5.54v-7.63h7.55v7.63h5.54V59.72h-5.54v7.36zm16.59-7.36l-8.64 19.58h5.65l1.53-3.8h8.3l1.53 3.8h5.76l-8.67-19.58h-5.46zm.17 11.69l2.51-6.26 2.51 6.26h-5.03.01zm21.9-11.69h-5.54V79.3h14.88v-4.39h-9.34V59.72zm12.36 19.58h5.54v-6.71h8.64v-4.28h-8.64V64h9.82v-4.28h-15.36V79.3zm25.93-15.19h6.01V79.3h5.54V64.11h5.99v-4.39h-17.54v4.39zm37.03 6.67c.71-1.07 1.06-2.34 1.06-3.82s-.35-2.78-1.06-3.87c-.71-1.09-1.71-1.92-3.01-2.5-1.3-.58-2.84-.87-4.63-.87h-8.95V79.3h5.54v-5.2h3.02l3.55 5.2h5.93l-4.23-6.17c1.18-.56 2.11-1.34 2.78-2.35zm-5.38-5.94c.57.5.85 1.21.85 2.13 0 .92-.28 1.59-.85 2.1-.57.5-1.43.76-2.59.76h-3.08V64.1h3.08c1.16 0 2.02.25 2.59.76v-.02zm15.88-5.12h-5.54V79.3h5.54V59.72zm11.07 0l-8.64 19.58h5.65l1.53-3.8h8.3l1.53 3.8h5.76l-8.67-19.58h-5.46zm.17 11.69l2.51-6.26 2.51 6.26h-5.03.01zm13.54-7.3h6.01V79.3h5.54V64.11h5.98v-4.39H296.2v4.39zm33.53 2.97h-7.55v-7.36h-5.54V79.3h5.54v-7.63h7.55v7.63h5.54V59.72h-5.54v7.36zm15.84-7.36h-5.54V79.3h14.88v-4.39h-9.34V59.72zm29.7 2.5c-.97-.92-2.11-1.64-3.43-2.14-1.31-.5-2.76-.76-4.35-.76-1.59 0-3.01.25-4.34.76-1.32.5-2.48 1.22-3.45 2.14-.98.92-1.74 2-2.28 3.23-.54 1.23-.81 2.58-.81 4.06 0 1.48.27 2.83.81 4.06.54 1.23 1.3 2.31 2.28 3.23.98.92 2.13 1.64 3.45 2.14 1.32.5 2.77.76 4.34.76 1.57 0 3.04-.25 4.35-.76 1.31-.5 2.46-1.21 3.43-2.13.97-.91 1.73-1.99 2.28-3.23.55-1.24.83-2.6.83-4.07 0-1.47-.28-2.83-.83-4.06-.55-1.23-1.31-2.31-2.28-3.23zm-2.9 9.58c-.27.69-.64 1.28-1.12 1.78-.48.49-1.03.87-1.68 1.13-.64.26-1.34.39-2.08.39s-1.44-.13-2.08-.39a4.93 4.93 0 01-1.68-1.13c-.48-.49-.85-1.09-1.12-1.78-.27-.69-.41-1.45-.41-2.29 0-.84.14-1.63.41-2.31.27-.68.64-1.27 1.12-1.76.48-.49 1.03-.87 1.68-1.13.64-.26 1.34-.39 2.08-.39s1.44.13 2.08.39c.64.26 1.2.64 1.68 1.13.48.49.85 1.08 1.12 1.76.27.68.41 1.45.41 2.31 0 .86-.14 1.6-.41 2.29zm22.96-12.08v10.44l-8.65-10.44h-4.55V79.3h5.42V68.87l8.64 10.43h4.56V59.72h-5.42zM70.25 104.2l.47-.41c.79-.69 1.31-1.13 1.31-1.91 0-.87-.65-1.63-1.78-1.63s-1.91.71-1.95 1.84h1.23c.05-.45.25-.68.67-.68.46 0 .61.28.61.52 0 .3-.15.45-1.09 1.28l-1.47 1.28v.87h3.88v-1.16h-1.88zm4.92-3.94c-1.39 0-2.22 1.04-2.22 2.6s.83 2.6 2.22 2.6c1.39 0 2.22-1.04 2.22-2.6s-.83-2.6-2.22-2.6zm0 4.04c-.71 0-.99-.52-.99-1.44 0-.92.28-1.44.99-1.44s.99.52.99 1.44c0 .92-.28 1.44-.99 1.44zm4.98-.1l.47-.41c.79-.69 1.31-1.13 1.31-1.91 0-.87-.65-1.63-1.78-1.63s-1.91.71-1.95 1.84h1.23c.05-.45.25-.68.67-.68.46 0 .61.28.61.52 0 .3-.15.45-1.09 1.28l-1.47 1.28v.87h3.88v-1.16h-1.88zm5.96-1.46c.34-.2.54-.57.54-1 0-.85-.74-1.49-1.83-1.49-1.02 0-1.83.59-1.9 1.66h1.23c.06-.38.29-.51.63-.51.49 0 .63.24.63.5 0 .32-.27.39-.59.39h-.54v1.06h.66c.48 0 .62.14.62.42 0 .32-.16.53-.69.53-.44 0-.7-.15-.75-.56h-1.23c.06 1.15.92 1.71 2 1.71 1.15 0 1.91-.56 1.91-1.56 0-.54-.25-.96-.68-1.15h-.01z"/><path d="M105.59 100.59c-8.23-6.08-16.85-11.75-26.3-15.76-3.27-1.38-6.36-2.61-9.91-3.54-3.33-.88-8.09-1.48-10.55 1.82-.94 1.24-1.41 2.99-1.25 4.53.04.96.56 2.37.75 3.03-.01.02-.02.04-.03.05-.24.34-.32.41-.4.48-.29.21-.65.29-1.11.36-.64.08-1.48.07-2.37-.04-5.04-.68-9.93-2.74-14.65-4.75-7.89-3.47-15.8-7.72-23.39-11.87-4.5-2.27-8 3.96-3.79 6.64 10.49 6.03 33.46 19.3 45.3 17.65 2.73-.36 5.28-1.86 6.73-4.21.63-.92 1.09-1.9 1.26-3.04.18-1.12.01-2.33-.29-3.3-.09-.27-.16-.49-.23-.68.74.05 1.54.21 2.34.37 1.92.43 3.95 1.07 5.97 1.78 3.01 1.07 6.05 2.25 8.95 3.6 6.87 3.26 13.48 7.15 19.87 11.25 2.95 1.82 5.77-2.2 3.09-4.36l.01-.01zm-47.2-9.71c0 .08.02.09 0 0zm5.83-2.9c-.06.02-.04 0 .03-.01 0 0-.02 0-.03.01zm43.71-5.57c-8.33-12.54-17.1-24.79-28.19-35.15-3.81-3.48-8.03-6.5-12.41-9.26-7.88-4.85-17.63-9.3-27.3-7.77-5.44.89-10.01 4.06-11.6 8.72-2.87-.49-5.76-.9-8.65-1.26-3.77-.45-7.56-.76-11.36-.91-.96-.04-2.85-.11-3.81-.12C2.04 36.59-.08 38.72 0 41.3c.07 2.5 2.18 4.46 4.68 4.36 7.95-.23 16 .28 23.92 1.54 2.61 7.87 11.37 15.48 17.52 20.28 4.47 3.33 9.85 6.7 15.73 6.73 4.6.1 9.42-2.72 10.58-7.41 1.44-6.3-3.65-11.2-8.1-14.6-2.38-1.86-4.97-3.54-7.7-4.86-6.06-2.89-12.41-4.96-18.89-6.51 1.04-.96 2.39-1.47 3.86-1.76 5.2-.86 10.41.89 15.18 3.02 5.24 2.39 10.21 5.6 14.82 9.1 4.63 3.63 8.73 7.8 12.74 12.25 9.65 10.82 18.29 22.68 26.34 34.75 2.22 3.19 6.88.29 5.07-3.09-2.5-4.32-5.13-8.51-7.85-12.68l.03-.01zM40.08 49.58c4.5 1.18 9.02 2.65 13.17 4.67 2.97 1.42 5.79 3.26 8.1 5.62.73.76 1.38 1.55 1.86 2.31.58.96.94 1.66.89 2.43-.09.25-.39.54-.71.7-2.1.97-4.85.04-6.97-.81-3.21-1.36-6.4-3.59-9.13-5.91-2.4-2.02-4.68-4.33-6.53-6.79a28.41 28.41 0 01-1.67-2.46c.33.08.67.16 1 .25l-.01-.01zM60.7 24.05c2.67 3.21 5.95 5.88 9.27 8.23 8.16 5.66 16.9 9.9 25.99 13.67.61.25 1.2.48 1.84.73 3.29 1.11 5.12-3.43 2.03-4.92-.91-.39-2.51-1.15-3.41-1.58-7.79-3.77-15.6-8.11-22.42-13.36-3.13-2.47-6.06-5.05-8.25-8.31-2.68-4.11-4.77-9.22-4.58-13.97.21-2.28-1.46-4.3-3.74-4.52-2.45-.25-4.58 1.75-4.54 4.2-.03 2.95.62 5.91 1.56 8.66 1.44 4.12 3.56 7.81 6.25 11.16v.01z"/><path d="M73.66 14.05c2.31 0 4.18-1.88 4.18-4.18s-1.88-4.18-4.18-4.18-4.18 1.88-4.18 4.18 1.88 4.18 4.18 4.18z"/></g><defs><clipPath id="clip0_1_81"><path fill="#fff" d="M0 0h400.75v105.46H0z"/></clipPath></defs></svg>