<svg width="1414" height="1175" fill="none" xmlns="http://www.w3.org/2000/svg"><path d="M670.061.885c-4.864 5.419-14.592 15.734-19.893 17.76-7.264 2.763-22.123 6.571-25.237 6.571-3.115 0-7.606-1.728-12.096 0-4.491 1.728-6.219 4.15-7.947 8.299-1.728 4.149.341 7.264 2.069 9.333 1.728 2.07 1.728 10.027.694 12.79-1.035 2.762-3.115 6.57-5.536 9.685-2.422 3.114-7.264 7.605-7.264 7.605s2.069 12.79 0 13.824c-2.07 1.035-3.808 5.877-7.606 6.57-3.797.694-10.368-1.386-11.413 3.809-1.035 5.184-4.843 15.21-4.843 23.168 0 7.957.342 13.824-5.536 17.632-5.877 3.808-9.685 7.264-17.29 10.368-7.606 3.104-16.246 5.877-17.291 9.333-1.035 3.456-2.421 14.176-3.808 16.597-1.387 2.422-7.947 8.992-12.448 12.448-4.501 3.456-9.685 5.536-10.72 10.027-1.035 4.491-3.808 11.061-3.808 13.141s-1.035 6.571 3.456 6.912c4.491.342 15.211-4.842 16.939-5.536 1.728-.693 6.218-3.808 13.482 0 7.264 3.808 22.816-2.421 22.816-2.421s9.686 6.912 18.326-5.877c8.64-12.79 17.632-18.667 19.018-23.168 1.387-4.502 10.027-19.019 12.448-21.088 2.422-2.07 14.518-6.219 16.939-6.219 2.421 0 8.64-3.808 11.755-6.912 3.114-3.115 32.149-37.323 34.229-38.368 2.08-1.045 11.755-11.413 8.992-14.87-2.763-3.455-15.211-11.413-21.44-16.597-6.219-5.184 9.333-16.245 11.413-18.666 2.07-2.422 22.123-22.816 24.203-24.544 2.069-1.728 10.027-13.142 11.061-14.87C704.76 15.893 723.779.907 723.779.907h-53.75l.032-.022zM987.128 0s10.144 5.621 10.603 8.853c.458 3.232-.459 11.52-5.302 11.52-4.842 0-13.6 3.232-19.594 5.067-5.995 1.845-39.648 4.15-44.715 3.69-5.067-.458-54.859-3.231-68.224-5.994-13.365-2.763-37.803-8.79-47.936-8.544-10.133.245-34.571 7.157-34.571 7.157s-25.813 15.67-29.045 18.443c-3.232 2.763-21.205 9.685-21.664 19.36-.459 9.685 1.387 25.813 0 29.963-1.387 4.149-3.691 12.906-9.685 20.746-5.995 7.84-10.144 23.51-11.52 29.046-1.387 5.536-8.299 10.144-2.304 17.056 5.994 6.912 15.445 10.602 20.629 8.757 5.184-1.845 42.987-34.112 47.595-36.875 4.608-2.762 41.024-7.84 44.256-10.602 3.232-2.763 8.298 7.37-2.304 15.21-10.603 7.84-25.355 7.371-29.046 13.366-3.69 5.994-22.592 22.592-23.05 26.272-.459 3.69 11.52 24.896 12.906 25.354 1.387.459 17.515-2.304 22.592 3.232 5.067 5.536 15.211 20.278 18.443 21.664 3.232 1.387 14.293 5.536 18.443 0 4.149-5.536 13.376-14.752 15.669-9.216 2.293 5.536 15.211 16.598 19.819 15.67 4.608-.928 18.442-2.304 22.122-3.232 3.68-.928 12.907-2.763 16.139-6.912 3.232-4.15 11.52-18.902 15.211-23.51 3.69-4.608 17.514-25.813 23.968-13.365 6.453 12.448 4.608 21.664 9.685 31.808 5.067 10.144 15.669 17.973 21.664 23.051 5.995 5.066 20.032 12.448 19.925 15.669-.106 3.232-.565 8.757-3.328 11.061-2.762 2.304-18.442 1.846-26.272 2.304-7.829.459-35.029-5.536-39.648-5.994-4.618-.459-28.576 4.202-29.962 6.016-1.387 1.813-8.299 12.885-3.691 18.869 4.608 5.995.917 11.989 1.387 15.211.458 3.232 13.365 1.845 20.277 5.066 6.912 3.232 27.2 6.912 29.045 8.758 1.846 1.845 11.99 6.912 13.366 6.912 1.376 0 11.52-6.912 16.138-7.371 4.619-.459 19.819.917 19.819.917s.917-11.061 7.372-16.138c6.45-5.067 19.82-12.907 22.59-15.67 2.76-2.762 16.6-11.989 21.21-11.52 4.6.47 13.82 2.304 17.05 1.387 3.23-.917 16.14-10.603 19.82-13.824 3.69-3.232 10.6-10.144 15.21-8.299 4.61 1.846 22.59 2.304 25.36 2.763 2.76.459 14.75 3.232 20.27 7.84 5.54 4.608 15.67 15.211 15.67 17.973 0 2.763-1.38 16.139-3.69 19.819-2.3 3.68-7.84 5.067-9.68 7.84-1.85 2.773-12.45 42.411-16.6 52.555-4.15 10.144-6 16.138-3.23 15.21 2.76-.917 5.06-5.994 13.82-5.536 8.76.459 1.85 5.067 14.75 2.763 12.91-2.304 8.76-21.205 8.76-26.741 0-5.536 6-17.974 6-27.659 0-9.685.45-25.355 0-27.2-.46-1.845-9.69-17.056-11.07-22.123-1.38-5.066-1.38-24.426-.91-28.117.46-3.691 13.36-9.216 15.67-11.989 2.3-2.774 11.52-15.211 16.13-19.819 4.61-4.608 12.91-11.061 15.22-16.597 2.3-5.536 7.37-27.659 8.29-30.88.93-3.222 18.45-11.062 23.97-14.294 5.54-3.232 11.52-4.149 18.9-11.061 7.37-6.912 13.37-8.299 21.21-11.989 7.84-3.691 18.44-11.99 23.51-15.67 5.06-3.68 18.9-14.752 19.82-16.138.91-1.387 6.91-6.454 6.91-13.824 0-7.371-6.91-14.294 5.07-21.206 11.97-6.912 28.11-12.448 29.5-13.365 1.39-.917 22.59-13.365 23.97-15.21 1.38-1.846 16.14-7.371 16.14-7.371L1413.5.875 987.107-.011l.021.011zm34.812 667.339c-2.53 1.376-8.76 9.216-10.6 12.906-1.84 3.691-4.15 11.52-5.77 14.059-1.61 2.539-5.3 9.216-6.911 11.755-1.611 2.538-1.376 1.152-4.843 8.522-3.456 7.382-6.912 9.686-9.216 13.142-2.304 3.456-2.763 5.301-5.067 8.757-2.304 3.456-2.773 3.456-4.842 7.605-2.08 4.15-3.456 4.608-4.384 8.992-.918 4.374-2.763 3.915-3.456 6.912-.694 2.998-4.832 5.078-5.995 8.758-1.152 3.69-3.339 10.144.811 13.941 4.149 3.808 7.957 8.299 7.957 8.299s-2.421 7.957-3.467 8.65c-1.034.683-6.912 1.728-7.946 2.422-1.035.682-2.422 6.218-.694 10.709 1.728 4.501 6.912 10.379 6.912 10.379s7.958 1.034 13.142 0c5.184-1.046 11.754.341 12.789-4.502 1.045-4.832 4.501-12.448 5.877-11.754 1.387.693 7.263 7.605 8.993 10.026 1.73 2.422 1.39 13.142.34 16.939-1.03 3.808-8.639 14.869-9.674 17.632-1.035 2.773-30.891 29.504-34.571 33.653-3.69 4.15-8.298 19.36-8.757 21.664-.469 2.304-18.901 40.107-24.437 47.712-5.526 7.606-27.659 24.896-27.659 24.896s-20.053 8.982-22.123 11.062c-2.08 2.069-9.685 6.912-11.754 10.365-2.08 3.46-7.606 9.69-8.992 15.21-1.376 5.54 1.386 14.53-3.456 17.29-4.843 2.77-6.912 6.22-9.675 8.3-2.773 2.07-10.379 9.68-11.072 11.76-.683 2.07 2.08 6.22 4.843 8.99 2.762 2.76 11.061 11.06 13.141 15.21 2.069 4.15 4.843 14.52 4.843 18.67 0 4.15 5.525 9.67 0 12.44-5.536 2.77-8.299 6.22-13.142 0-4.842-6.22-6.229-20.05-8.992-24.89-2.762-4.84-13.824-13.14-16.597-13.14-2.773 0-11.061 6.92-17.973 9.68-6.912 2.77-20.054 7.61-23.51 8.99-3.456 1.38-9.685 6.92-17.29 2.07-7.606-4.84 2.08-20.74 0-22.81-2.07-2.07-4.832-8.99-7.606-11.06-2.762-2.08-19.21-9.69-22.389-5.54-3.189 4.15-5.269 16.6-8.725 24.2-3.456 7.61-2.763 24.21-4.15 26.97-1.376 2.76-15.904 17.29-17.973 17.98-2.08.69 0 30.42 0 33.19 0 2.76-1.387 16.59-4.843 18.66-3.456 2.08-20.746 2.78-20.053 0 .693-2.76 4.8-12.43-.021-12.43-4.822 0-7.584 4.13-14.496 0-6.912-4.15 4.149-15.23 6.218-17.29 2.08-2.08 14.528-23.51 16.598-26.97 2.08-3.46 13.834-19.36 14.517-24.2.693-4.85-12.437-26.97-13.824-31.12-1.387-4.15-16.939-26.27-25.76-26.96-8.811-.7-30.251 1.37-29.557 8.3.693 6.91-13.824 20.73-13.824 20.73s-27.659 13.14-29.046 15.91c-1.386 2.77-6.912 29.04-6.912 29.04l-26.965-2.76s-22.133 4.83-24.203 6.91c-2.08 2.07-7.605 14.52-11.061 17.97-3.456 3.46-16.597 6.23-23.509 7.61-6.912 1.39-18.667 6.92-24.203 2.08-5.536-4.84-17.973-8.3-17.973-8.3s-6.923-32.5-13.142-38.03c-6.229-5.53-17.984-12.44-23.509-20.74-5.536-8.3-7.605-21.44-17.984-22.82-10.368-1.39-24.885 4.84-24.885 4.84s-2.763 8.29-11.755-5.53c-8.992-13.84-5.536-27.66-6.229-32.5-.683-4.85-3.456-14.52-6.912-16.6-3.456-2.07-23.51-2.07-23.51-2.07s-6.218-9.685-6.912-12.448c-.693-2.763-21.44-19.36-21.44-19.36s-22.816-14.517-26.965-15.211c-4.149-.693-10.368 4.843-12.448 2.763-2.069-2.069-17.973-15.904-22.123-20.736-4.149-4.843-20.746-7.605-24.202-8.299-3.456-.693-24.886-4.842-29.035-2.08-4.149 2.774-17.984 2.774-24.203 11.755-6.229 8.992-10.368 24.203-10.368 24.203s-15.221 6.912-23.509 11.061c-8.299 4.149-19.371 8.299-24.203 8.992-4.842.693-13.834-1.387-20.746-7.605-6.912-6.23-30.422-29.046-30.422-29.046s-29.738-3.456-34.57-8.981C5.048 927.552-.488 916.491.899 914.411c1.386-2.07 25.578-3.456 28.352-6.219 2.762-2.763 4.832-15.211 4.832-20.053 0-4.843-11.755-16.598-11.755-16.598l4.843-12.448s-13.131-8.981-15.211-10.368c-2.07-1.386-11.061-11.061-5.536-15.21 5.536-4.15 25.59-10.368 25.59-10.368s11.754-11.755 11.754-20.054c0-8.298-17.973-8.992-14.517-11.754 3.456-2.774 12.437-20.992 17.973-19.488 5.536 1.504 22.123 18.794 29.728 20.864 7.616 2.08 44.949 13.141 44.949 13.141s.694-2.763 7.606-1.387c6.912 1.387 5.301.694 8.757 8.992 3.456 8.299-7.147 5.302 6.229 10.603 13.366 5.301 23.04 6.912 25.344 6.912 2.304 0 4.843 5.301 8.992 8.992 4.15 3.691 7.606 14.059 9.91 17.749 2.304 3.691 3.925 5.76 9.909 6.912 5.995 1.152 26.976 2.998 30.432 3.232 3.456.224 19.125 1.152 22.816-.234 3.691-1.387 17.749-10.603 22.123-15.446 4.384-4.842 15.445-16.128 15.904-19.584.458-3.466 4.842-17.056 4.608-22.826-.224-5.76.928-12.672.458-17.515-.458-4.843 1.622-11.979-3.914-15.435-5.526-3.466-14.976-7.381-18.667-7.84-3.691-.458-7.84 2.539-10.837 4.374-2.998 1.845-5.984 8.298-5.984 8.298s-7.84-.224-11.296 1.152c-3.456 1.387-8.299 5.76-10.379 8.534-2.069 2.762-4.149 7.146-4.373 9.216-.235 2.08-4.384 6.453-5.078 6.688-.682.224-6.453-1.387-8.288-1.622-1.845-.224-8.074-1.61-4.149-5.301 3.915-3.68 8.299-7.605 10.603-11.979 2.304-4.384 5.525-13.845 5.984-16.49.469-2.646.234-6.326-3.222-8.406-3.456-2.069-8.757-2.762-8.298-5.525.458-2.773 3.456-9.685 3.69-10.603.224-.928-.928-9.226-1.61-9.45-.694-.235-12.224-2.998-15.222-2.998-2.997 0-10.826 1.846-14.976 3.456-4.149 1.611-9.45 2.07-12.682 5.995-3.222 3.915-7.83 9.675-8.523 12.907-.693 3.221.235 9.909 1.611 12.213 1.386 2.304 4.384 5.995 5.76 7.605 1.386 1.611 2.538 6.912 1.845 7.147-.693.235-5.76-3.915-5.76-4.608 0-.693-6.688-12.448-9.675-14.517-2.997-2.08-5.536-2.998-10.144-7.382-4.608-4.373-11.53-12.213-13.365-15.21-1.845-2.998-4.384-7.382-3.925-8.758.458-1.386 1.845-21.898 3.69-25.12 1.846-3.232.694-8.298.694-11.754 0-3.456 2.762-12.683 3.69-16.598.918-3.925 4.832-3.69 7.83-8.064 2.997-4.384 8.533-8.768 13.834-10.378 5.302-1.611 10.827-3.456 13.824-6.454 2.998-2.997 8.758-5.76 10.603-10.144 1.845-4.373 4.149-8.757 4.608-12.213.459-3.456 1.611-5.301-.917-9.451-2.539-4.149-4.608-13.6-7.382-14.517-2.762-.917-7.146-4.149-10.826-5.536-3.691-1.376-.694-4.832 2.069-5.067 2.773-.234 13.365-2.997 15.68-5.301 2.304-2.304 9.909-8.064 10.603-10.603.682-2.538 4.608-8.757 5.525-9.45.928-.694 8.299 2.762 8.299 2.762s4.608 3.926 5.76 7.382c1.152 3.456 3.456 5.301 1.61 9.909-1.834 4.608-2.069 7.147-1.152 8.299.928 1.152 4.843 5.066 4.843 5.76 0 .693-.917 6.453-1.376 7.381-.469.917-3.467.683-2.997 6.219.458 5.536 3.221 11.061 3.914 11.754.694.694.918 4.843 1.152 8.523.235 3.691 2.998 10.379 4.843 12.224 1.845 1.845 5.76 5.067 8.757 4.608 2.998-.459 14.294-1.845 16.822-1.611 2.538.224 10.144 1.376 13.834.459 3.68-.928 16.587-8.299 18.432-9.216 1.846-.928 9.451-9.429 11.296-13.013 1.846-3.584 2.998-10.966-.458-14.646-3.456-3.69-6.688-10.602-9.91-12.682-3.232-2.07-1.386.458-8.533-3.691-7.147-4.149-8.981-6.219-8.981-8.757 0-2.539 3.68-11.286 4.608-13.6.917-2.304 0-8.758-.928-10.368-.918-1.611-8.064-9.216-8.064-9.216s-6.688.458-8.064.224c-1.387-.224-9.91-5.302-10.379-6.454-.459-1.152-.683-6.912-1.611-8.757-.917-1.845-4.373-3.68-3.914-4.608.458-.917 3.456-5.995 7.37-8.064 3.926-2.08 5.995-5.301 7.147-7.605 1.152-2.304.928-10.838.459-11.755-.459-.928-4.374-3.925-4.374-3.925s3.798-4.139 2.763-7.254c-1.035-3.114-8.992-15.21-8.992-16.597 0-1.387-10.709-1.387-12.789-3.456-2.07-2.08-9.675-8.299-9.675-8.299l5.877-7.946s5.526 3.797 7.254 2.762c1.728-1.034 11.061-5.877 11.061-5.877s8.992 2.421 9.344 5.525c.341 3.115 5.525 12.107 11.755 12.448 6.218.352 10.368 0 12.437-1.728 2.08-1.728 7.605-8.64 7.957-14.858.342-6.23 1.376-13.494-3.456-18.326-4.842-4.842-6.922-6.922-12.8-9.333-5.877-2.421-16.586-2.421-16.586-2.421l-8.299-10.379-11.413-3.104-7.606-1.387s-1.728-3.808-.693-5.536c1.045-1.728 4.843-4.832 4.843-6.56 0-1.728-1.035-7.264-1.035-7.264l5.184-11.413s8.64-2.763 11.061-3.456c2.422-.693 22.134-5.184 22.134-5.184s16.245-7.264 19.008-12.096c2.773-4.843 10.378-11.072 10.72-12.107.341-1.034 1.034-10.72 1.034-13.13 0-2.411 3.115-4.843 5.536-2.08 2.422 2.762 5.184 5.877 5.184 5.877s1.728.693 1.728 4.843c0 4.149.342 6.57 2.763 8.992 2.421 2.41 11.072 9.674 11.072 9.674s-1.045 7.264-1.739 13.142c-.682 5.877-3.797 10.72-.341 15.21 3.456 4.491 6.912 6.912 6.571 8.64-.352 1.728 1.034 22.816 1.034 25.59 0 2.773-4.842 6.56 1.035 14.858 5.877 8.299 14.176 10.379 21.781 10.72 7.606.352 23.51.694 28.352-.341 4.843-1.045 16.246-6.229 20.054-8.992 3.797-2.763 12.789-5.536 15.21-3.808 2.422 1.739 6.219 7.616 9.334 12.107 3.114 4.49 2.762 8.992 7.264 10.72 4.49 1.728 10.72 4.149 15.552 7.253 4.842 3.115 7.264 5.184 10.026 5.536 2.774.341 9.334.341 11.755.341 2.421 0 4.501.694 6.229.694 1.728 0 5.526-.342 10.368 0 4.843.352 5.184 0 11.414.693 6.218.693 7.253 1.035 13.824 1.035 6.57 0 6.57-.694 10.026-.694 3.456 0 3.808.694 5.536 1.387 1.728.693 26.272 12.213 28.576 13.6 2.304 1.387 13.142 6.677 19.36 9.675 6.219 2.997 7.371 2.773 9.451 4.149 2.069 1.387 6.912 2.997 6.219 3.925-.683.918-3.222 3.915-5.526 4.608-2.304.694-10.602.224-9.45 4.843 1.152 4.608.693 6.912 1.152 8.757.458 1.846 4.842 2.998 5.301 7.606.459 4.608 2.069 11.52 2.304 14.752.235 3.221.693 13.824.459 15.669-.224 1.845 5.994 5.067 8.533 5.536 2.528.459 8.064 2.069 11.061 5.525 2.998 3.456 5.995 1.611 7.606 6.454 1.61 4.842-8.758 17.29-8.758 17.29s.918 3.915 3.222 5.76c2.304 1.846 3.232 1.846 3.925 2.539.683.683 5.76 15.211 5.76 15.211s2.763 7.605 4.149 11.061c1.376 3.456 8.982 14.517 9.675 16.939.693 2.421 6.229 13.834 7.605 12.789 1.387-1.035 6.571-1.035 9.334-3.797 2.773-2.763 12.8-6.571 13.834-6.912 1.035-.352 3.115 1.034 3.798 3.797.693 2.763-1.728 8.299-2.411 10.368-.693 2.08 2.763 9.344 4.491 12.448 1.728 3.115-.342 8.299 5.877 12.107 6.219 3.797 10.027 4.49 11.061 7.605 1.035 3.104 2.763 9.675 3.808 15.552 1.035 5.877-.352 6.229-.352 9.685 0 3.456 7.958 5.878 10.379 8.299 2.411 2.421-1.045 2.763 5.525 7.253 6.571 4.502 6.23 1.046 8.992 11.755 2.763 10.72 5.526 14.176 7.264 17.291 1.728 3.114.139 1.386 1.803 8.992 1.653 7.605 3.872 5.184 0 16.245-3.883 11.061-1.461 8.64-9.76 15.211-8.299 6.57-4.491 12.448-4.491 12.448s5.526 5.525 9.675 7.264c4.149 1.728 11.413 2.762 15.211.682 3.808-2.069 10.378-11.061 11.754-11.754 1.387-.683 4.15-7.254 7.264-2.422 3.115 4.843 6.912 7.958 6.912 7.958s1.728 4.49 4.15 6.912c2.421 2.421 3.808 5.184 5.184 7.264 1.386 2.069 11.989 31.349 12.448 33.653.458 2.304 5.077 23.968 4.608 25.813-.459 1.846 2.304 11.979 0 16.587-2.304 4.619 0 5.995 6.922 8.768 6.912 2.763 17.974-2.315 19.819-3.691 1.845-1.386 4.149-2.762 6.453-7.381 2.304-4.608 7.84-19.819 7.84-19.819s1.376-10.602-5.994-15.669c-7.382-5.077-6.454-16.139-10.144-18.443-3.691-2.304 6.912-10.602 10.144-12.448 3.221-1.845 10.133-6.453 9.216-11.061-.918-4.608 1.386-10.144-7.371-13.365-8.768-3.232-19.36 3.69-19.36 3.69s-15.68-7.381-15.68-8.768c0-1.386-8.757-20.736-8.757-22.581 0-1.845 0-7.84 2.762-11.989 2.774-4.15 11.072-11.062 11.531-12.438.459-1.386 0-7.84-2.773-9.685-2.763-1.845-7.371-5.067-11.979-2.763-4.608 2.304-9.216 9.675-11.989 7.83-2.763-1.846 0-6.912 1.386-9.216 1.387-2.304 18.443-4.363 20.747-5.408 2.304-1.046 13.365-7.04 14.752-9.803 1.376-2.763 1.835-9.216-.928-11.989-2.763-2.763-12.907-5.526-18.443-5.526-5.536 0-11.52 6.912-16.586 9.675-5.078 2.773-12.448 9.685-13.376 4.149-.918-5.525-1.835-11.978-1.835-11.978s3.68-12.448 2.304-12.907c-1.387-.469-5.536-11.072-5.536-11.072s-12.907-.459-15.211-1.835c-2.304-1.386 5.536-12.917 5.536-12.917l9.216-10.592s-1.386-10.144-4.608-12.917c-3.232-2.763-18.986-9.675-21.013-8.758-2.037.928-9.419 6.454-10.795 9.227-1.386 2.763-2.762 5.984-5.077 3.68-2.304-2.304-11.979-7.829-11.061-10.133.928-2.304-.459-17.056-2.304-19.83-1.846-2.762-9.216-7.573-10.144-9.546-.918-1.974-.918-11.659-.918-11.659l-3.69-7.371s-7.83 1.846-9.216-2.304c-1.387-4.149-3.691-7.381-3.232-13.834.469-6.454-2.304-6.454-4.608-5.984-2.304.458-7.371 9.674-11.52 11.52-4.15 1.845-12.448 1.386-11.52-3.222.917-4.618 5.066-24.437 5.066-24.437s-4.149-10.603-5.536-11.52c-1.376-.928-6.912-6.453-6.912-6.453s-3.221-.459-3.69-5.536c-.459-5.067 1.845-14.752 2.304-18.432.469-3.691-.918-11.531 1.386-14.752 2.304-3.232 7.382-9.227 13.835-12.448 6.453-3.232 1.835-5.078 6.453-3.232 4.608 1.845 5.984 5.077 12.907 5.536 6.912.458 5.984 0 11.979-.459 3.996-.313 6.762-2.464 8.298-6.453 2.304-5.995 5.536-9.686-2.304-12.448-7.84-2.763-5.536-2.304-15.669-4.15-10.144-1.845-15.68-3.232-21.205-6.912-5.536-3.69-11.531-5.536-12.907-7.84-1.387-2.304.459-1.386-3.691-7.84-4.149-6.453 0-5.525-5.994-8.757-5.995-3.221-8.758-4.149-12.907-5.995-4.149-1.834-11.979-5.066-22.123-8.288-10.144-3.232-12.906-8.298-12.906-14.752 0-6.453.458-14.293 0-17.984-.459-3.69-6.454-14.282-8.758-14.282-2.304 0-11.53-5.536-17.525-1.846-5.984 3.68-13.824 9.675-15.669 9.675-1.846 0-5.995-6.912-5.995-9.216 0-2.304-1.376-15.211-1.376-15.211s-8.757-7.381-10.144-8.757c-1.387-1.387-12.907 0-12.907 0l11.99-20.288 26.73 12.448s19.36-2.763 23.968-4.608c4.608-1.845-.458-8.757 17.515-8.757s32.736-.928 34.581-1.846c1.835-.928 7.371-5.536 14.752-.928 7.371 4.619 23.04 9.686 28.576 10.603 5.526.928 17.974 4.619 17.974 4.619s5.536 1.376 10.144 1.376c4.608 0 17.056-1.846 18.442-2.763 1.376-.928 8.299-6.453 10.134-7.84 1.845-1.376 3.69-5.525 9.226-5.525 5.536 0 35.03-3.616 36.416-5.035 1.376-1.419 11.062-2.272 12.448 0 1.376 2.261 8.758 13.333 9.675 14.709.928 1.387 17.984 6.454 17.984 6.454l11.968 5.109.469.203 4.843 2.069c.149.181.299.352.427.523.672.81 1.258 1.546 1.77 2.208 3.147 4.106 3.392 5.781 1.952 8.672-1.728 3.456-11.754 12.448-13.824 17.29-2.08 4.843-6.57 12.448-5.877 16.939.683 4.491 2.411 20.747 2.069 23.168-.341 2.411-3.797 12.437-6.218 18.315-2.422 5.877-3.456 12.448-7.606 14.176-4.149 1.728-13.141 1.386-14.869 2.773-1.728 1.376-5.536 2.763-6.571 8.64-1.034 5.877-3.797 25.931-3.797 25.931s-1.696 3.637-2.08 7.68c-6.987 3.658-16.48 9.408-19.168 14.773-4.384 8.789-10.219 35.488-9.504 51.029.725 15.552 16.939 30.422 22.347 33.12 5.408 2.71 31.434 16.896 57.461 8.79 20.96-6.528 32.053-37.931 35.573-49.888 2.123.512 5.398.768 8.022.522 3.797-.341 17.28-1.728 20.746-1.376 3.456.342 11.755 3.104 11.755 3.104s-.693 5.878-2.421 6.23c-1.728.341-6.571 5.301-6.571 5.301s2.997 7.253-.235 11.179c-3.221 3.914-7.146 3.69-9.909 3.456-2.763-.235-9.216.458-10.827 3.69-1.621 3.222-8.992 2.304-10.144 3.68-1.152 1.387-4.384 8.534-4.608 10.144-.234 1.611-1.621 8.299-.234 13.142 1.386 4.842 3.456 9.45 6.218 9.45 2.763 0 10.379-1.152 11.99 0 1.61 1.152.693 8.064.928 12.907.224 4.843 1.834 7.371 4.832 11.755 2.997 4.373 7.381 8.757 8.298 11.52.928 2.762.459 7.84.694 10.602.234 2.763-.918 8.758-.918 8.758s-.234 10.378-2.08 15.21c-1.845 4.843-5.066 13.142-5.301 14.059-.235.928.235 8.299 1.611 9.685 1.386 1.387 5.536 2.539 8.533 4.15 2.997 1.61 19.125 6.453 22.357 6.912 3.222.458 16.598 2.762 19.126 0 2.538-2.763 3.925-3.456 6.912-5.995 2.997-2.528 10.378-3.68 11.53-4.373 1.152-.694 5.76-1.622 5.302-5.76-.459-4.15-1.611-11.531-1.152-12.683.458-1.152.917-4.843 4.373-5.76 3.456-.928 8.757-1.152 9.227-2.763.458-1.621 2.528-1.386 1.61-5.301-.928-3.925-1.386-8.757-.693-10.379.363-.832 1.088-2.666 1.803-4.33.672-1.536 1.312-2.934 1.653-3.275.363-.363 1.632-.533 3.179-.448 1.386.075 3.008.363 4.426.907 2.998 1.152 3.691 1.386 5.078.234 1.376-1.152 9.909-8.298 13.365-10.602 3.452-2.304 4.612-4.374 5.062-6.688.46-2.304.24-6.454-1.37-8.758-1.623-2.304-2.081-11.52-2.999-13.13-.362-.63-1.184-1.931-2.176-3.296-1.536-2.123-3.477-4.406-4.746-4.544-2.07-.235-4.608-2.304-11.52-.235a9.82 9.82 0 00-2.208.96s-.022 0-.043.021c-3.509 2.102-4.053 5.59-6.176 5.504-.576-.021-1.269-.309-2.176-.949a128.108 128.108 0 01-2.848-2.069c-2.912-2.208-4.171-3.691-2.912-5.302 1.611-2.08 5.536-9.685 6.912-11.989 1.387-2.304 10.144-8.992 11.755-9.216 1.61-.235 10.602 2.528 13.834 4.832 3.222 2.315 4.107 7.605 6.893 11.072 2.78 3.456 4.17 5.525 7.39 7.605 3.23 2.07 9.69 6.678 10.38 8.758.69 2.069 1.61 8.064 1.84 9.909.23 1.845 2.53 6.912 0 8.299z" fill="#1A1A1A"/><path d="M517.059 347.083l-13.824 20.394h-14.176s-6.912 6.219-11.414 4.491c-4.49-1.728-11.413-9.035-14.517-12.299-3.104-3.264-5.184.886-11.413 2.955-6.219 2.069-8.299 5.877-12.096 5.536-3.798-.341-9.686-.341-13.483.341-3.797.683-16.939-4.842-16.939-4.842s-1.034-1.035-4.149-5.536c-3.115-4.502 6.571-17.366 7.605-19.232 1.035-1.867 8.64-3.243 3.115-10.848-5.536-7.606-9.685-11.414-9.333-12.448.352-1.035 5.536-7.264 6.57-7.947 1.035-.683 14.176-12.096 14.176-12.096s3.115.693 4.843 0c1.728-.693 5.184 2.763 7.605 4.149 2.422 1.387 12.096 5.184 14.518 3.808 2.421-1.386 26.965-2.762 31.808-2.069 4.842.693 16.938-.341 16.597 2.421-.341 2.763.341 19.36-.341 20.747-.683 1.387-.694 12.715.341 14.304 1.035 1.589 9.355 7.125 9.355 7.125l5.162 1.035-.01.011zm387.061-56.352l-86.938 80.14 5.625 6.102 86.938-80.14-5.625-6.102z" fill="#1A1A1A"/><path d="M808.771 1034.97c-4.95 0-10.027-1.17-14.048-2.1a61.918 61.918 0 01-15.478-5.8c-2.869-1.53-7.989-5.76-20.309-16-3.221-2.68-6.869-5.7-10.955-10.48a75.076 75.076 0 01-4.789-6.233l4.789-3.306a69.98 69.98 0 004.427 5.749c3.765 4.41 7.061 7.15 10.251 9.79 10.517 8.75 16.874 14.03 19.338 15.35a56.444 56.444 0 0014.027 5.26c6.56 1.5 16.48 3.79 21.355-.69.725-.66.864-.96 2.186-4.55.427-1.17.971-2.63 1.675-4.49.032-.07 3.051-7.93 7.904-18.601 5.12-11.232 7.691-16.874 12.149-21.173 5.856-5.632 12.032-7.637 23.243-11.275 5.291-1.717 8.224-2.282 11.339-2.88 2.762-.533 5.898-1.13 11.36-2.688 12.021-3.424 18.058-5.141 23.488-9.216 9.568-7.168 13.29-17.397 14.688-21.248 2.464-6.784 2.357-10.688 1.941-25.194-.085-3.051-.181-6.56-.277-10.624-.32-14.731-.203-22.944-.118-28.95.107-7.552.16-11.338-.789-20.128-1.771-16.501-2.656-24.789-4.043-29.44l-.384-1.258c-1.322-4.342-3.136-10.294-2.73-18.272.138-2.784.405-7.979 3.018-13.824 3.584-8.043 9.494-12.63 14.699-16.672 4.011-3.115 6.795-4.619 9.024-5.835 2.603-1.408 4.032-2.187 6.027-4.725 1.024-1.312 1.216-1.76 2.656-5.494.704-1.824 1.674-4.341 3.157-7.989 4.171-10.24 6.261-15.371 9.205-20.139 4.48-7.253 9.195-12.042 11.467-14.346 3.723-3.776 6.101-5.494 8.181-6.998 2.102-1.514 3.915-2.826 6.976-6.09 3.734-3.979 7.969-8.48 10.049-15.435 1.28-4.256 1.27-7.787 1.26-10.912-.01-5.493-.02-11.179-3.39-16.843-3.044-5.109-7.236-7.712-8.889-8.597-1.536-.811-6.187-3.285-12.054-2.453-1.664.234-4.768.672-7.125 2.762-2.539 2.24-3.616 5.728-3.861 12.438-.363 10.197 1.45 21.12 5.376 32.48l-5.504 1.898c-4.16-12.032-6.08-23.669-5.686-34.592.214-6.144 1.078-12.416 5.824-16.597 3.67-3.232 8.054-3.861 10.155-4.16 7.723-1.099 13.653 2.048 15.605 3.072 2.091 1.109 7.369 4.384 11.169 10.763 4.18 7.04 4.19 13.824 4.21 19.808 0 3.349.02 7.52-1.5 12.597-2.48 8.267-7.41 13.525-11.383 17.749-3.445 3.67-5.664 5.28-7.818 6.827-1.995 1.44-4.064 2.933-7.446 6.368-2.122 2.144-6.528 6.624-10.656 13.312-2.688 4.352-4.714 9.333-8.768 19.275a416.13 416.13 0 00-3.114 7.882c-1.462 3.808-1.91 4.95-3.51 6.998-2.741 3.488-5.098 4.768-7.829 6.25-2.048 1.11-4.597 2.496-8.235 5.312-4.896 3.798-9.962 7.734-12.949 14.443-2.165 4.864-2.389 9.173-2.517 11.755-.352 6.965 1.216 12.128 2.485 16.277l.395 1.301c1.536 5.163 2.442 13.622 4.256 30.486.981 9.13.917 13.29.821 20.821-.085 5.963-.203 14.123.117 28.747.086 4.053.192 7.541.278 10.592.416 14.602.554 19.52-2.294 27.349-1.557 4.299-5.706 15.712-16.661 23.925-6.283 4.715-12.661 6.528-25.376 10.155-5.707 1.621-8.971 2.251-11.861 2.805-3.051.587-5.696 1.099-10.635 2.699-10.731 3.477-16.117 5.227-21.003 9.931-3.669 3.53-6.08 8.832-10.89 19.381-4.779 10.5-7.744 18.2-7.766 18.28-.693 1.83-1.226 3.27-1.653 4.42-1.419 3.86-1.899 5.16-3.712 6.83-3.435 3.15-7.936 4.16-12.544 4.16h-.021z" stroke="#FFC913" stroke-width="2.82" stroke-miterlimit="10"/><path d="M920.931 787.36c-10.944 0-32.032-7.136-39.808-11.275-2.859-1.525-5.398-2.858-7.67-4.064-13.472-7.104-18.016-9.493-22.912-15.296-2.709-3.21-8.362-9.877-9.653-19.466-1.003-7.446 1.237-12.192 3.616-17.216 2.005-4.235 4.277-9.035 5.376-16.779.533-3.744 1.952-13.685-1.941-24.907-1.547-4.469-5.515-9.877-13.43-20.672-12.256-16.714-15.797-18.741-19.157-19.658-2.336-.64-3.477-.448-5.963-.032-1.706.288-3.818.64-6.944.81-18.901 1.046-33.909-6.997-39.562-10.016-7.67-4.106-16.352-8.757-23.168-18.922-6.134-9.142-7.531-18.134-8.758-26.07-1.44-9.258-1.045-15.488-.192-29.13l.16-2.614c1.024-16.426 1.398-24.768 1.643-30.293.299-6.485.384-8.448 1.141-14.165 3.563-26.934 8.427-35.552 10.027-38.39 5.739-10.176 13.323-17.621 13.643-17.941 3.264-3.179 5.61-4.864 7.882-6.507 2.102-1.514 4.278-3.082 7.371-5.984 1.952-1.834 8.747-8.501 14.016-17.344 4.16-6.997 5.184-11.722 6.251-16.725.736-3.413 1.493-6.944 3.232-11.221 3.84-9.451 14.56-18.294 34.037-34.347 7.36-6.069 13.013-10.411 17.547-13.909 8.106-6.24 13.461-10.368 20.896-18.336 7.85-8.406 11.797-12.63 14.784-18.08a126.788 126.788 0 002.016-3.904c2.069-4.139 4.202-8.416 8.789-13.28 3.755-3.99 8.437-8.96 14.432-7.776 5.301 1.045 9.632 6.666 9.259 12.042-.576 8.32-21.184 14.816-30.048 16.875-3.232 5.515-7.328 9.899-14.976 18.091-7.766 8.309-13.27 12.554-21.6 18.965-4.502 3.467-10.102 7.787-17.398 13.792-20.149 16.608-29.194 24.277-32.341 32.043-1.547 3.808-2.219 6.944-2.933 10.261-1.131 5.248-2.294 10.667-6.944 18.485-5.654 9.494-12.928 16.64-15.03 18.614-3.37 3.157-5.696 4.832-7.957 6.464-2.197 1.578-4.267 3.072-7.221 5.952-.288.288-7.296 7.168-12.63 16.629-3.925 6.955-7.061 19.157-9.333 36.288-.725 5.461-.8 7.2-1.099 13.664-.234 5.205-.629 13.909-1.653 30.389l-.16 2.614c-.853 13.61-1.205 19.242.139 27.882 1.194 7.691 2.432 15.648 7.84 23.712 6.016 8.971 13.674 13.067 21.077 17.035 5.269 2.816 19.221 10.293 36.501 9.344 2.795-.16 4.662-.469 6.304-.747 2.731-.458 4.886-.821 8.448.15 5.462 1.482 9.974 4.981 22.326 21.834 8.256 11.254 12.394 16.907 14.229 22.198 4.352 12.554 2.741 23.914 2.208 27.637-1.227 8.608-3.808 14.059-5.877 18.443-2.251 4.768-3.883 8.213-3.115 13.952 1.067 7.904 5.792 13.482 8.331 16.49 4.181 4.939 8.117 7.019 21.184 13.91 2.282 1.205 4.832 2.549 7.69 4.074 11.808 6.294 35.979 12.182 39.456 10.368l2.699 5.152c-1.195.619-2.944.896-5.088.896l.011.011zm-14.059-497.835c-2.464 0-5.195 2.667-8.437 6.112-3.424 3.638-5.28 6.891-6.976 10.23 11.232-3.232 20.128-8.171 20.629-10.379.16-2.379-2.187-5.429-4.576-5.899a3.307 3.307 0 00-.64-.064z" stroke="#FFC913" stroke-width="2.82" stroke-miterlimit="10"/><path d="M434.765 787.616c-1.013 0-1.941-.16-2.794-.491a6.7 6.7 0 01-2.23-1.376 6.474 6.474 0 01-1.472-2.08c-.352-.789-.522-1.664-.522-2.613 0-.949.17-1.824.522-2.613a6.357 6.357 0 011.472-2.08 6.527 6.527 0 012.23-1.376 7.882 7.882 0 012.794-.491c1.014 0 1.963.16 2.806.491.842.33 1.589.789 2.208 1.376a6.474 6.474 0 011.472 2.08c.352.789.533 1.664.533 2.613 0 .949-.181 1.824-.533 2.624a6.264 6.264 0 01-1.472 2.08 6.91 6.91 0 01-2.208 1.376 7.865 7.865 0 01-2.806.491v-.011zm0-2.955a3.5 3.5 0 001.344-.256c.416-.17.779-.416 1.088-.736a3.6 3.6 0 00.726-1.141c.17-.448.266-.939.266-1.483 0-.544-.085-1.045-.266-1.493a3.419 3.419 0 00-.726-1.141 3.157 3.157 0 00-1.088-.736 3.5 3.5 0 00-1.344-.256 3.5 3.5 0 00-1.344.256c-.416.17-.778.416-1.088.736a3.48 3.48 0 00-.725 1.141 4.087 4.087 0 00-.267 1.493c0 .555.086 1.035.267 1.483.171.448.416.832.725 1.141.31.32.672.566 1.088.736a3.5 3.5 0 001.344.256zm9.76 2.859c-.576 0-1.066-.192-1.461-.576-.395-.384-.597-.875-.597-1.461 0-.587.202-1.099.597-1.472a2.092 2.092 0 011.461-.555c.576 0 1.067.181 1.462.555.394.362.597.853.597 1.472 0 .618-.203 1.077-.597 1.461-.395.384-.886.576-1.462.576zm3.915-.16v-12.629h5.781c1.152 0 2.155.192 2.987.554.832.363 1.483.907 1.941 1.611.459.704.683 1.536.683 2.496s-.224 1.771-.683 2.475c-.458.704-1.109 1.237-1.941 1.61-.832.374-1.835.566-2.987.566h-3.786l1.589-1.558v4.854h-3.573l-.011.021zm3.573-4.48l-1.589-1.643h3.573c.747 0 1.302-.16 1.675-.49.363-.32.555-.779.555-1.355s-.182-1.045-.555-1.376c-.363-.32-.928-.491-1.675-.491h-3.573l1.589-1.642v6.997zm13.686 2.571l-5.771-10.72h3.776l3.957 8.192-1.952 2.528h-.01zm-3.808-.918c.714.203 1.29.267 1.738.192.448-.074.854-.373 1.206-.896l.618-.906.31-.342 3.936-7.85h3.488l-5.238 9.76c-.522.96-1.13 1.706-1.845 2.24a4.536 4.536 0 01-2.357.906c-.854.075-1.75-.085-2.688-.469l.853-2.635h-.021zm18.41 3.083c-1.002 0-1.92-.16-2.773-.48a6.272 6.272 0 01-2.197-1.365 6.304 6.304 0 01-1.451-2.08c-.352-.8-.523-1.686-.523-2.646s.171-1.845.523-2.645.832-1.493 1.451-2.08a6.517 6.517 0 012.197-1.365c.843-.32 1.771-.48 2.773-.48 1.163 0 2.208.202 3.136.618a6.08 6.08 0 012.304 1.771l-2.272 2.059c-.405-.48-.853-.854-1.344-1.099a3.607 3.607 0 00-1.632-.384c-.522 0-.992.085-1.429.256-.437.171-.8.416-1.109.736a3.6 3.6 0 00-.726 1.141c-.17.448-.266.939-.266 1.483 0 .544.085 1.035.266 1.483.171.448.416.832.726 1.141.309.32.672.565 1.109.736.437.171.907.256 1.429.256a3.47 3.47 0 001.632-.384 4.448 4.448 0 001.344-1.099l2.272 2.059a6.188 6.188 0 01-2.304 1.76c-.917.416-1.962.619-3.136.619v-.011zm12.918 0c-1.003 0-1.92-.16-2.774-.48a6.281 6.281 0 01-2.197-1.365 6.32 6.32 0 01-1.451-2.08c-.352-.8-.522-1.686-.522-2.646s.17-1.845.522-2.645.832-1.493 1.451-2.08a6.537 6.537 0 012.197-1.365c.843-.32 1.771-.48 2.774-.48 1.162 0 2.208.202 3.136.618a6.095 6.095 0 012.304 1.771l-2.272 2.059c-.406-.48-.854-.854-1.344-1.099a3.613 3.613 0 00-1.632-.384 3.87 3.87 0 00-1.43.256c-.437.171-.8.416-1.109.736-.309.32-.544.704-.725 1.141a4.115 4.115 0 00-.267 1.483c0 .544.085 1.035.267 1.483.17.448.416.832.725 1.141.309.32.672.565 1.109.736a3.87 3.87 0 001.43.256c.597 0 1.141-.128 1.632-.384.49-.256.938-.619 1.344-1.099l2.272 2.059a6.196 6.196 0 01-2.304 1.76c-.918.416-1.963.619-3.136.619v-.011zm6.965-.256v-12.629h3.552v12.629h-3.552zm2.528-4.832v-2.891h4.587v2.891h-4.587zm5.184-1.099l-3.307-.362 3.883-6.336h3.755l-4.331 6.698zm.341 5.942l-3.552-6.006 2.87-1.696 4.714 7.712h-4.021l-.011-.01zm5.184-.011v-12.629h3.52v7.413l5.216-7.413h3.36v12.629h-3.52v-7.403l-5.194 7.403h-3.382zm14.795 0v-12.629h3.52v7.413l5.216-7.413h3.36v12.629h-3.52v-7.403l-5.195 7.403h-3.381zm6.027-13.387c-1.312 0-2.251-.256-2.838-.768-.576-.512-.864-1.237-.864-2.176h2.4c.011.427.118.736.32.939.203.203.534.309.971.309.437 0 .789-.106 1.003-.309.213-.203.32-.512.33-.939h2.4c0 .939-.298 1.664-.885 2.176-.587.512-1.536.768-2.848.768h.011z" fill="#fff"/><path d="M974.008 725.44c10.728 0 19.424-8.696 19.424-19.424s-8.696-19.424-19.424-19.424-19.424 8.696-19.424 19.424 8.696 19.424 19.424 19.424z" fill="#000" stroke="#FC0" stroke-width="5" stroke-miterlimit="10"/><path d="M974.008 725.44v-38.837m-19.413 19.413h38.837" stroke="#FC0" stroke-width="5" stroke-miterlimit="10"/><path d="M803.405 556.021v-4.448h12.107v4.448h-2.699v-2.101h-6.688v2.101h-2.72zm7.776-3.392v-6.826h-2.997l-.043 1.13a20.307 20.307 0 01-.117 1.707 12.945 12.945 0 01-.224 1.451c-.096.437-.224.81-.373 1.13-.15.32-.342.555-.566.726l-3.146-.374c.352 0 .64-.106.864-.352.224-.245.405-.586.533-1.024.128-.437.235-.96.299-1.557s.106-1.248.138-1.952l.118-3.221h8.426v9.173h-2.912v-.011zm5.76 1.28v-10.453h5.078c1.258 0 2.229.235 2.922.715.694.48 1.035 1.141 1.035 2.005 0 .864-.32 1.515-.971 1.995-.65.48-1.514.725-2.602.725l.298-.704c1.174 0 2.091.235 2.752.693.662.459.992 1.142.992 2.038 0 .896-.352 1.642-1.066 2.176-.715.533-1.739.81-3.083.81h-5.365.01zm2.912-6.272h1.878c.416 0 .736-.085.938-.266.214-.171.31-.427.31-.768 0-.342-.107-.598-.31-.768-.213-.171-.522-.267-.938-.267h-1.878v2.069zm0 4.15h2.326c.426 0 .746-.096.96-.278.213-.181.32-.458.32-.81 0-.352-.107-.63-.32-.8-.214-.171-.534-.267-.96-.267h-2.326v2.155zm13.952 1.504c-1.397 0-2.57-.182-3.53-.534-.96-.362-1.686-.885-2.176-1.578-.491-.694-.736-1.536-.736-2.518 0-.981.245-1.834.736-2.528.49-.693 1.226-1.216 2.186-1.578.96-.363 2.144-.534 3.542-.534h.746c1.387 0 2.55.182 3.488.544.939.363 1.654.896 2.144 1.579.491.693.736 1.536.736 2.517 0 .982-.234 1.814-.714 2.507-.47.693-1.174 1.216-2.102 1.579-.928.362-2.069.544-3.424.544h-.896zm.267-2.272h.288c.853 0 1.557-.086 2.101-.256.544-.171.95-.427 1.206-.779.256-.352.384-.8.384-1.344s-.139-1.003-.406-1.344c-.266-.341-.672-.587-1.205-.757-.533-.16-1.227-.246-2.059-.246h-.309c-.896 0-1.632.075-2.197.235-.566.16-.982.416-1.259.757-.277.342-.405.8-.405 1.366 0 .565.149 1.013.437 1.354.288.342.725.598 1.301.758.576.16 1.28.234 2.112.234l.011.022zm-1.28 3.392v-11.435h2.699v11.435h-2.699zm13.045-2.08l-4.778-8.875h3.125l3.275 6.784-1.611 2.091h-.011zm-3.146-.758c.586.171 1.066.224 1.44.16.373-.064.704-.309.992-.736l.512-.746.256-.288 3.253-6.496h2.88l-4.331 8.074c-.426.8-.938 1.419-1.525 1.856a3.83 3.83 0 01-1.952.747c-.704.064-1.451-.075-2.229-.384l.704-2.176v-.011zM731.117 1156.12v-10.46h9.814v10.46h-2.923v-8.77l.661.66H733.4l.64-.66v8.77h-2.923zm11.798-4.22v-2.17h4.362v2.17h-4.362zm11.52 4.43c-.832 0-1.611-.14-2.315-.4a5.62 5.62 0 01-1.845-1.15 5.154 5.154 0 01-1.216-1.72 5.393 5.393 0 01-.438-2.17c0-.79.15-1.5.438-2.16.288-.67.693-1.23 1.216-1.73.522-.5 1.141-.88 1.845-1.14a6.443 6.443 0 012.315-.41c.832 0 1.621.14 2.325.41a5.25 5.25 0 011.824 1.14 5.251 5.251 0 011.653 3.89c0 .79-.149 1.52-.437 2.18a5.487 5.487 0 01-1.216 1.72c-.523.5-1.131.87-1.824 1.14-.693.26-1.472.4-2.325.4zm0-2.45a2.82 2.82 0 002.005-.82c.256-.27.448-.58.597-.95.15-.38.214-.78.214-1.23 0-.45-.075-.86-.214-1.24a2.823 2.823 0 00-.597-.94 2.525 2.525 0 00-.896-.6 2.913 2.913 0 00-2.219 0c-.341.13-.64.34-.896.6-.256.27-.448.58-.597.94-.149.37-.213.78-.213 1.24 0 .46.074.85.213 1.23.139.37.341.68.597.95.256.26.555.47.896.6.342.14.715.22 1.11.22zm8.074 2.38c-.48 0-.885-.16-1.205-.48-.331-.32-.491-.73-.491-1.21s.16-.92.491-1.22c.331-.29.736-.45 1.205-.45.47 0 .886.15 1.206.45.33.31.49.72.49 1.22s-.16.9-.49 1.21c-.331.32-.736.48-1.206.48zm9.899-.14v-8.77l.661.66h-3.872v-2.35h9.323v2.35h-3.851l.662-.66v8.77h-2.923zm12.459.21c-.832 0-1.611-.14-2.315-.4a5.62 5.62 0 01-1.845-1.15 5.154 5.154 0 01-1.216-1.72 5.393 5.393 0 01-.438-2.17c0-.79.15-1.5.438-2.16.288-.67.693-1.23 1.216-1.73.522-.5 1.141-.88 1.845-1.14a6.443 6.443 0 012.315-.41c.832 0 1.621.14 2.325.41a5.25 5.25 0 011.824 1.14 5.251 5.251 0 011.653 3.89c0 .79-.149 1.52-.437 2.18a5.487 5.487 0 01-1.216 1.72c-.523.5-1.131.87-1.824 1.14-.693.26-1.472.4-2.325.4zm0-2.45a2.82 2.82 0 002.005-.82c.256-.27.448-.58.597-.95.15-.38.214-.78.214-1.23 0-.45-.075-.86-.214-1.24a2.823 2.823 0 00-.597-.94 2.525 2.525 0 00-.896-.6 2.913 2.913 0 00-2.219 0c-.341.13-.64.34-.896.6-.256.27-.448.58-.597.94-.149.37-.213.78-.213 1.24 0 .46.074.85.213 1.23.139.37.341.68.597.95.256.26.555.47.896.6.342.14.715.22 1.11.22zm7.392 2.24v-10.46h8.736v2.29h-5.824v1.68h2.698c1.27 0 2.251.27 2.923.81.672.54 1.013 1.31 1.013 2.33 0 1.01-.373 1.86-1.13 2.45-.758.6-1.814.89-3.179.89h-5.227l-.01.01zm2.912-2.13h2.122c.491 0 .864-.09 1.131-.29.267-.21.395-.48.395-.86 0-.73-.512-1.11-1.526-1.11h-2.122v2.26zm8.149 2.13v-10.46h2.912v6.14l4.32-6.14h2.773v10.46h-2.912v-6.13l-4.298 6.13h-2.795zm11.413-.81l.886-2.08c.448.22.917.4 1.408.52.49.12.96.19 1.418.21.459.02.875-.01 1.248-.09.374-.09.672-.22.886-.4.224-.18.33-.41.33-.7 0-.32-.128-.56-.394-.7-.267-.14-.608-.21-1.035-.21h-2.677v-2.16h2.432c.394 0 .704-.08.928-.24a.74.74 0 00.33-.64c0-.27-.096-.47-.288-.62-.192-.16-.448-.26-.757-.33a4.549 4.549 0 00-1.077-.06c-.406.02-.811.09-1.238.21-.426.13-.842.29-1.237.5l-.864-2.21a7.904 7.904 0 012.229-.71 8.732 8.732 0 012.272-.09c.736.08 1.408.24 2.006.5.597.25 1.077.58 1.429 1 .352.41.533.9.533 1.48 0 .5-.138.94-.405 1.33-.267.39-.629.7-1.088.91-.459.22-.981.33-1.579.33l.075-.63c.683 0 1.291.12 1.803.36s.906.57 1.194.99c.288.41.427.88.427 1.43 0 .51-.128.96-.395 1.35-.266.39-.629.73-1.098.99-.47.27-1.003.47-1.6.61-.608.14-1.248.2-1.931.19-.683 0-1.376-.09-2.08-.26-.704-.18-1.376-.42-2.037-.75l-.054-.03zm10.752.81v-10.46h2.912v6.14l4.32-6.14h2.774v10.46h-2.912v-6.13l-4.299 6.13h-2.795zm15.2 0h-2.954v-10.46h2.954v10.46zm4.246-4.08h-4.448v-2.45h4.448v2.45zm-.214-6.38h2.955v10.46h-2.955v-10.46zm4.15 10.46l4.618-10.46h2.912l4.63 10.46h-3.072l-3.616-9.01h1.162l-3.616 9.01h-3.018zm2.528-2.03l.757-2.18h5.109l.758 2.18h-6.635.011zM864.6 368.384v-10.453h2.432l4.32 7.104h-1.28l4.224-7.104h2.432l.032 10.453h-2.731v-6.315h.448l-3.146 5.291h-1.312l-3.243-5.291h.555v6.315H864.6zm19.52.203a6.508 6.508 0 01-2.315-.406 5.527 5.527 0 01-1.845-1.141 5.186 5.186 0 01-1.216-1.728 5.34 5.34 0 01-.437-2.165c0-.79.149-1.504.437-2.166a5.3 5.3 0 011.216-1.728 5.386 5.386 0 011.845-1.141 6.508 6.508 0 012.315-.405c.832 0 1.621.138 2.325.405a5.358 5.358 0 011.824 1.141 5.348 5.348 0 011.216 1.728c.288.662.438 1.376.438 2.166 0 .789-.15 1.514-.438 2.176a5.505 5.505 0 01-1.216 1.728c-.522.49-1.13.864-1.824 1.13-.693.267-1.472.406-2.325.406zm0-2.454a2.745 2.745 0 002.005-.821c.256-.267.448-.576.598-.949a3.27 3.27 0 00.213-1.227c0-.448-.075-.864-.213-1.237a2.777 2.777 0 00-.598-.939 2.563 2.563 0 00-.896-.608 2.924 2.924 0 00-1.109-.213c-.395 0-.768.074-1.109.213-.342.139-.64.341-.896.608a2.956 2.956 0 00-.598.939c-.149.362-.213.778-.213 1.237 0 .459.075.853.213 1.227.139.373.342.682.598.949.256.267.554.469.896.608.341.139.714.213 1.109.213zm12.48 2.454c-.832 0-1.589-.128-2.293-.395a5.32 5.32 0 01-1.824-1.131 5.3 5.3 0 01-1.206-1.728 5.404 5.404 0 01-.437-2.186c0-.8.149-1.526.437-2.187a5.32 5.32 0 011.206-1.728 5.32 5.32 0 011.824-1.131c.704-.266 1.461-.394 2.293-.394.971 0 1.824.17 2.592.512a4.975 4.975 0 011.909 1.461l-1.877 1.707c-.341-.395-.715-.704-1.109-.907-.406-.213-.854-.309-1.355-.309-.427 0-.821.074-1.184.213a2.464 2.464 0 00-.917.608 2.895 2.895 0 00-.598.949 3.503 3.503 0 00-.213 1.227c0 .448.075.853.213 1.227.15.373.342.682.598.949.256.267.565.469.917.608.352.139.747.213 1.184.213.501 0 .949-.106 1.355-.309a3.676 3.676 0 001.109-.907l1.877 1.707a5.07 5.07 0 01-1.909 1.451c-.757.341-1.621.512-2.592.512v-.032zm8.053-.203v-8.768l.662.661h-3.872v-2.346h9.322v2.346h-3.85l.661-.661v8.768h-2.923zm14.763 0h-2.955v-10.453h2.955v10.453zm4.245-4.075h-4.448v-2.453h4.448v2.453zm-.213-6.378h2.955v10.453h-2.955v-10.453zm4.149 10.453l4.619-10.453h2.912l4.629 10.453h-3.072l-3.616-9.003h1.163l-3.616 9.003h-3.019zm2.528-2.027l.758-2.176h5.109l.757 2.176h-6.634.01zm20.31 2.23a6.508 6.508 0 01-2.315-.406 5.517 5.517 0 01-1.845-1.141 5.186 5.186 0 01-1.216-1.728 5.341 5.341 0 01-.438-2.165c0-.79.15-1.504.438-2.166a5.3 5.3 0 011.216-1.728 5.377 5.377 0 011.845-1.141 6.508 6.508 0 012.315-.405c.832 0 1.621.138 2.325.405a5.358 5.358 0 011.824 1.141 5.348 5.348 0 011.216 1.728c.288.662.437 1.376.437 2.166 0 .789-.149 1.514-.437 2.176a5.522 5.522 0 01-1.216 1.728 5.534 5.534 0 01-1.824 1.13c-.693.267-1.472.406-2.325.406zm0-2.454a2.748 2.748 0 002.005-.821c.256-.267.448-.576.597-.949a3.25 3.25 0 00.214-1.227c0-.448-.075-.864-.214-1.237a2.76 2.76 0 00-.597-.939 2.573 2.573 0 00-.896-.608 2.928 2.928 0 00-1.109-.213c-.395 0-.768.074-1.11.213-.341.139-.64.341-.896.608a2.936 2.936 0 00-.597.939c-.149.362-.213.778-.213 1.237 0 .459.074.853.213 1.227.139.373.341.682.597.949.256.267.555.469.896.608.342.139.715.213 1.11.213zm8.074 2.379c-.48 0-.885-.16-1.205-.48-.331-.32-.491-.725-.491-1.205 0-.48.16-.918.491-1.216a1.748 1.748 0 011.205-.459c.47 0 .886.149 1.206.459.33.309.49.714.49 1.216 0 .501-.16.896-.49 1.205-.331.32-.736.48-1.206.48zm3.243-.128v-10.453h4.779c.96 0 1.781.149 2.474.458.694.31 1.227.758 1.6 1.334.384.586.566 1.269.566 2.069s-.192 1.472-.566 2.048c-.373.576-.917 1.024-1.6 1.333-.682.31-1.514.47-2.474.47h-3.136l1.312-1.28v4.021h-2.955zm2.955-3.701l-1.312-1.355h2.954c.619 0 1.078-.139 1.376-.405.299-.267.459-.64.459-1.12 0-.48-.149-.864-.459-1.131-.309-.267-.768-.405-1.376-.405h-2.954l1.312-1.355v5.781-.01zm11.328 2.112l-4.779-8.875h3.125l3.275 6.784-1.611 2.091h-.01zm-3.147-.758c.587.171 1.067.224 1.44.16s.704-.309.992-.736l.512-.746.256-.288 3.253-6.496h2.88l-4.33 8.074c-.427.8-.939 1.419-1.526 1.856a3.83 3.83 0 01-1.952.747c-.704.064-1.45-.075-2.229-.384l.704-2.176v-.011zm15.221 2.55c-.832 0-1.589-.128-2.293-.395a5.32 5.32 0 01-1.824-1.131 5.296 5.296 0 01-1.643-3.914c0-.8.15-1.526.438-2.187a5.318 5.318 0 011.205-1.728 5.32 5.32 0 011.824-1.131c.704-.266 1.461-.394 2.293-.394.971 0 1.824.17 2.592.512a4.978 4.978 0 011.91 1.461l-1.878 1.707c-.341-.395-.714-.704-1.109-.907-.405-.213-.853-.309-1.355-.309-.426 0-.821.074-1.184.213a2.472 2.472 0 00-.917.608 2.876 2.876 0 00-.597.949 3.48 3.48 0 00-.214 1.227c0 .448.075.853.214 1.227.149.373.341.682.597.949.256.267.565.469.917.608.352.139.747.213 1.184.213.502 0 .95-.106 1.355-.309a3.664 3.664 0 001.109-.907l1.878 1.707a5.074 5.074 0 01-1.91 1.451c-.757.341-1.621.512-2.592.512v-.032zm10.699 0c-.832 0-1.589-.128-2.293-.395a5.32 5.32 0 01-1.824-1.131 5.3 5.3 0 01-1.206-1.728 5.404 5.404 0 01-.437-2.186c0-.8.149-1.526.437-2.187a5.32 5.32 0 011.206-1.728 5.32 5.32 0 011.824-1.131c.704-.266 1.461-.394 2.293-.394.971 0 1.822.17 2.592.512.77.341 1.4.821 1.91 1.461l-1.88 1.707c-.34-.395-.71-.704-1.11-.907-.403-.213-.851-.309-1.352-.309-.427 0-.821.074-1.184.213a2.464 2.464 0 00-.917.608 2.895 2.895 0 00-.598.949 3.503 3.503 0 00-.213 1.227c0 .448.075.853.213 1.227.15.373.342.682.598.949.256.267.565.469.917.608.352.139.747.213 1.184.213.501 0 .949-.106 1.352-.309.41-.213.78-.512 1.11-.907l1.88 1.707a5.043 5.043 0 01-1.91 1.451c-.76.341-1.621.512-2.592.512v-.032zm5.762-.203v-10.453h2.94v10.453h-2.94zm2.09-4v-2.389h3.8v2.389h-3.8zm4.29-.907l-2.73-.298 3.21-5.238h3.1l-3.58 5.536zm.28 4.918l-2.94-4.971 2.38-1.408 3.89 6.379h-3.33zm4.28-.011v-10.453h2.91v6.133l4.32-6.133h2.78v10.453h-2.91v-6.123l-4.3 6.123h-2.8zm12.25 0v-10.453h2.91v6.133l4.32-6.133h2.77v10.453h-2.91v-6.123l-4.3 6.123h-2.79zm4.99-11.083c-1.09 0-1.87-.213-2.35-.629-.48-.427-.71-1.024-.71-1.803h1.98c0 .352.1.608.27.779.17.171.44.256.81.256.37 0 .65-.085.83-.256.18-.171.27-.427.28-.779h1.98c0 .779-.24 1.376-.73 1.803-.49.427-1.28.629-2.36.629z" fill="#1A1A1A"/><path d="M858.573 573.003c-3.52 11.957-14.613 43.36-35.573 49.888-26.027 8.106-52.053-6.08-57.461-8.79-5.408-2.698-21.622-17.568-22.347-33.12-.715-15.541 5.12-42.24 9.504-51.029 2.688-5.365 12.181-11.115 19.168-14.773-.256 2.784.107 5.76 2.08 7.872 4.832 5.184 10.709 6.57 10.709 6.57s5.536 10.72 2.774 14.176c-2.774 3.456-7.606-.341-7.264 9.334.341 9.685 4.842 12.789 5.184 15.21.352 2.422 8.298 11.062 13.141 13.142 4.843 2.069 22.816 5.184 22.816 5.184s8.96 1.034 10.187-3.115c1.226-4.149 5.024-15.904 8.48-14.859 3.456 1.035 15.562 2.422 16.597 3.456.32.32 1.045.608 2.005.854z" fill="#333"/><path d="M743.192 994.357v-12.992l-25.899-19.701v-12.309s4.107-19.83 0-21.878c-4.106-2.048-17.781-6.837-17.781-6.837s-12.309 10.944-14.357 11.627c-2.048.682-19.147 6.837-19.83 4.106-.682-2.73-1.365-2.73-4.106-15.722-2.742-12.992-4.79-30.774-4.107-38.976.683-8.203 0-23.936 3.424-29.408 3.424-5.472 6.837-8.886 10.261-13.675 3.424-4.789 11.627-12.309 11.627-17.781 0-5.472 4.789-7.52-.683-13.675-5.472-6.155-12.309-17.749-15.722-20.501-3.424-2.752-7.787-3.435-9.024-6.859-1.238-3.424-6.71-24.619-7.392-27.349-.683-2.731-2.048-6.155-3.424-8.203-1.366-2.048-8.886-20.512-9.568-28.032-.683-7.52-3.424-24.619-3.424-24.619s5.472-6.837 5.472-8.885-14.358-34.187-16.416-38.976c-2.048-4.789-13.675-24.619-16.416-30.091-2.742-5.472 6.837-8.202 8.885-13.674 2.048-5.472-10.261-17.099-12.309-17.782-2.048-.682-16.416-2.73-15.04-11.626 1.376-8.896-2.731-23.936-4.107-26.667-1.365-2.731-6.837-8.885-4.107-12.309 2.731-3.424 12.992-7.52 10.944-10.262-2.048-2.73-17.098-12.992-21.194-15.04-4.107-2.048-25.302-8.885-29.408-11.626-4.107-2.742-8.886-3.424-19.147-4.107-10.261-.683-27.349 4.789-35.563 0-8.202-4.789-10.261-7.52-24.618-10.944-14.358-3.424-23.936-3.424-26.667-11.627-2.731-8.202 0-15.04-8.885-15.04-8.886 0-21.195 0-25.302 4.107-4.106 4.107-15.722 11.627-15.722 13.675s5.472 11.626 0 16.416c-5.472 4.789-9.568 1.365-15.04 11.626-5.472 10.262-11.627-.682-10.944 23.254.682 23.936 3.424 32.138-3.424 38.976-6.838 6.837-16.416 11.626-20.512 22.57-4.107 10.944-5.472 17.099-9.568 25.984-4.107 8.886-11.627 11.627-14.358 20.512-2.73 8.886-3.424 15.723-9.568 21.195-6.154 5.472-21.194 11.627-21.194 11.627s-8.203 4.106-10.262 11.626c-2.048 7.52-22.57 31.456-22.57 31.456" stroke="#4D4D4D" stroke-width="6.74" stroke-miterlimit="10"/></svg>