<svg width="1024" height="837" fill="none" xmlns="http://www.w3.org/2000/svg"><path d="M1021.94 329.339c-2.53 1.376-8.76 9.216-10.6 12.906-1.84 3.691-4.15 11.52-5.77 14.059-1.61 2.539-5.3 9.216-6.911 11.755-1.611 2.538-1.376 1.152-4.843 8.522-3.456 7.382-6.912 9.686-9.216 13.142-2.304 3.456-2.763 5.301-5.067 8.757-2.304 3.456-2.773 3.456-4.842 7.605-2.08 4.15-3.456 4.608-4.384 8.992-.918 4.374-2.763 3.915-3.456 6.912-.694 2.998-4.832 5.078-5.995 8.758-1.152 3.69-3.339 10.144.811 13.941 4.149 3.808 7.957 8.299 7.957 8.299s-2.421 7.957-3.467 8.65c-1.034.683-6.912 1.728-7.946 2.422-1.035.682-2.422 6.218-.694 10.709 1.728 4.501 6.912 10.379 6.912 10.379s7.958 1.034 13.142 0c5.184-1.046 11.754.341 12.789-4.502 1.045-4.832 4.501-12.448 5.877-11.754 1.387.693 7.263 7.605 8.993 10.026 1.73 2.422 1.39 13.142.34 16.939-1.03 3.808-8.639 14.869-9.674 17.632-1.035 2.773-30.891 29.504-34.57 33.653-3.691 4.15-8.299 19.36-8.758 21.664-.469 2.304-18.901 40.107-24.437 47.712-5.526 7.606-27.659 24.896-27.659 24.896s-20.053 8.982-22.123 11.062c-2.08 2.069-9.685 6.912-11.754 10.368-2.08 3.456-7.606 9.685-8.992 15.21-1.376 5.536 1.386 14.528-3.456 17.291-4.843 2.763-6.912 6.219-9.675 8.299-2.773 2.069-10.379 9.674-11.072 11.754-.683 2.07 2.08 6.219 4.843 8.992 2.762 2.763 11.061 11.062 13.141 15.211 2.069 4.149 4.843 14.517 4.843 18.667 0 4.149 5.525 9.674 0 12.448-5.536 2.762-8.299 6.218-13.142 0-4.842-6.23-6.229-20.054-8.992-24.896-2.762-4.843-13.824-13.142-16.597-13.142-2.773 0-11.061 6.923-17.973 9.686-6.912 2.762-20.054 7.605-23.51 8.992-3.456 1.376-9.685 6.912-17.29 2.069-7.606-4.843 2.08-20.747 0-22.816-2.07-2.069-4.832-8.992-7.606-11.061-2.762-2.08-19.21-9.686-22.389-5.536-3.189 4.149-5.269 16.597-8.725 24.202-3.456 7.606-2.763 24.203-4.15 26.966-1.376 2.762-15.904 17.29-17.973 17.984-2.08.682 0 30.421 0 33.184 0 2.762-1.387 16.597-4.843 18.666-3.456 2.08-20.746 2.774-20.053 0 .693-2.762 4.8-12.437-.021-12.437-4.822 0-7.584 4.139-14.496 0-6.912-4.149 4.149-15.221 6.218-17.291 2.08-2.08 14.528-23.509 16.598-26.965 2.08-3.456 13.834-19.36 14.517-24.203.693-4.842-12.437-26.965-13.824-31.114-1.387-4.15-16.939-26.272-25.76-26.966-8.811-.693-30.251 1.376-29.557 8.299.693 6.912-13.824 20.736-13.824 20.736s-27.659 13.141-29.046 15.904c-1.386 2.773-6.912 29.045-6.912 29.045l-26.965-2.762s-22.133 4.832-24.203 6.912c-2.08 2.069-7.605 14.517-11.061 17.973-3.456 3.456-16.597 6.229-23.509 7.605-6.912 1.387-18.667 6.923-24.203 2.08-5.536-4.842-17.973-8.298-17.973-8.298s-6.923-32.502-13.142-38.027c-6.229-5.536-17.984-12.448-23.509-20.747-5.536-8.298-7.605-21.44-17.984-22.816-10.368-1.386-24.885 4.843-24.885 4.843s-2.763 8.288-11.755-5.536c-8.992-13.835-5.536-27.659-6.229-32.501-.683-4.843-3.456-14.518-6.912-16.598-3.456-2.069-23.51-2.069-23.51-2.069s-6.218-9.685-6.912-12.448c-.693-2.763-21.44-19.36-21.44-19.36s-22.816-14.517-26.965-15.211c-4.149-.693-10.368 4.843-12.448 2.763-2.069-2.069-17.973-15.904-22.123-20.736-4.149-4.843-20.746-7.605-24.202-8.299-3.456-.693-24.886-4.842-29.035-2.08-4.149 2.774-17.984 2.774-24.203 11.755-6.229 8.992-10.368 24.203-10.368 24.203s-15.221 6.912-23.509 11.061c-8.299 4.149-19.371 8.299-24.203 8.992-4.842.693-13.834-1.387-20.746-7.605-6.912-6.23-30.422-29.046-30.422-29.046s-29.738-3.456-34.57-8.981C5.048 589.552-.488 578.491.899 576.411c1.386-2.07 25.578-3.456 28.352-6.219 2.762-2.763 4.832-15.211 4.832-20.053 0-4.843-11.755-16.598-11.755-16.598l4.843-12.448s-13.131-8.981-15.211-10.368c-2.07-1.386-11.061-11.061-5.536-15.21 5.536-4.15 25.59-10.368 25.59-10.368s11.754-11.755 11.754-20.054c0-8.298-17.973-8.992-14.517-11.754 3.456-2.774 12.437-20.992 17.973-19.488 5.536 1.504 22.123 18.794 29.728 20.864 7.616 2.08 44.949 13.141 44.949 13.141s.694-2.763 7.606-1.387c6.912 1.387 5.301.694 8.757 8.992 3.456 8.299-7.147 5.302 6.229 10.603 13.366 5.301 23.04 6.912 25.344 6.912 2.304 0 4.843 5.301 8.992 8.992 4.15 3.691 7.606 14.059 9.91 17.749 2.304 3.691 3.925 5.76 9.909 6.912 5.995 1.152 26.976 2.998 30.432 3.232 3.456.224 19.125 1.152 22.816-.234 3.691-1.387 17.749-10.603 22.123-15.446 4.384-4.842 15.445-16.128 15.904-19.584.458-3.466 4.842-17.056 4.608-22.826-.224-5.76.928-12.672.458-17.515-.458-4.843 1.622-11.979-3.914-15.435-5.526-3.466-14.976-7.381-18.667-7.84-3.691-.458-7.84 2.539-10.837 4.374-2.998 1.845-5.984 8.298-5.984 8.298s-7.84-.224-11.296 1.152c-3.456 1.387-8.299 5.76-10.379 8.534-2.069 2.762-4.149 7.146-4.373 9.216-.235 2.08-4.384 6.453-5.078 6.688-.682.224-6.453-1.387-8.288-1.622-1.845-.224-8.074-1.61-4.149-5.301 3.915-3.68 8.299-7.605 10.603-11.979 2.304-4.384 5.525-13.845 5.984-16.49.469-2.646.234-6.326-3.222-8.406-3.456-2.069-8.757-2.762-8.298-5.525.458-2.773 3.456-9.685 3.69-10.603.224-.928-.928-9.226-1.61-9.45-.694-.235-12.224-2.998-15.222-2.998-2.997 0-10.826 1.846-14.976 3.456-4.149 1.611-9.45 2.07-12.682 5.995-3.222 3.915-7.83 9.675-8.523 12.907-.693 3.221.235 9.909 1.611 12.213 1.386 2.304 4.384 5.995 5.76 7.605 1.386 1.611 2.538 6.912 1.845 7.147-.693.235-5.76-3.915-5.76-4.608 0-.693-6.688-12.448-9.675-14.517-2.997-2.08-5.536-2.998-10.144-7.382-4.608-4.373-11.53-12.213-13.365-15.21-1.845-2.998-4.384-7.382-3.925-8.758.458-1.386 1.845-21.898 3.69-25.12 1.846-3.232.694-8.298.694-11.754 0-3.456 2.762-12.683 3.69-16.598.918-3.925 4.832-3.69 7.83-8.064 2.997-4.384 8.533-8.768 13.834-10.378 5.302-1.611 10.827-3.456 13.824-6.454 2.998-2.997 8.758-5.76 10.603-10.144 1.845-4.373 4.149-8.757 4.608-12.213.459-3.456 1.611-5.301-.917-9.451-2.539-4.149-4.608-13.6-7.382-14.517-2.762-.917-7.146-4.149-10.826-5.536-3.691-1.376-.694-4.832 2.069-5.067 2.773-.234 13.365-2.997 15.68-5.301 2.304-2.304 9.909-8.064 10.603-10.603.682-2.538 4.608-8.757 5.525-9.45.928-.694 8.299 2.762 8.299 2.762s4.608 3.926 5.76 7.382c1.152 3.456 3.456 5.301 1.61 9.909-1.834 4.608-2.069 7.147-1.152 8.299.928 1.152 4.843 5.066 4.843 5.76 0 .693-.917 6.453-1.376 7.381-.469.917-3.467.683-2.997 6.219.458 5.536 3.221 11.061 3.914 11.754.694.694.918 4.843 1.152 8.523.235 3.691 2.998 10.379 4.843 12.224 1.845 1.845 5.76 5.067 8.757 4.608 2.998-.459 14.294-1.845 16.822-1.611 2.538.224 10.144 1.376 13.834.459 3.68-.928 16.587-8.299 18.432-9.216 1.846-.928 9.451-9.429 11.296-13.013 1.846-3.584 2.998-10.966-.458-14.646-3.456-3.69-6.688-10.602-9.91-12.682-3.232-2.07-1.386.458-8.533-3.691-7.147-4.149-8.981-6.219-8.981-8.757 0-2.539 3.68-11.286 4.608-13.6.917-2.304 0-8.758-.928-10.368-.918-1.611-8.064-9.216-8.064-9.216s-6.688.458-8.064.224c-1.387-.224-9.91-5.302-10.379-6.454-.459-1.152-.683-6.912-1.611-8.757-.917-1.845-4.373-3.68-3.914-4.608.458-.917 3.456-5.995 7.37-8.064 3.926-2.08 5.995-5.301 7.147-7.605 1.152-2.304.928-10.838.459-11.755-.459-.928-4.374-3.925-4.374-3.925s3.798-4.139 2.763-7.254c-1.035-3.114-8.992-15.21-8.992-16.597 0-1.387-10.709-1.387-12.789-3.456-2.07-2.08-9.675-8.299-9.675-8.299l5.877-7.946s5.526 3.797 7.254 2.762c1.728-1.034 11.061-5.877 11.061-5.877s8.992 2.421 9.344 5.525c.341 3.115 5.525 12.107 11.755 12.448 6.218.352 10.368 0 12.437-1.728 2.08-1.728 7.605-8.64 7.957-14.858.342-6.23 1.376-13.494-3.456-18.326-4.842-4.842-6.922-6.922-12.8-9.333-5.877-2.421-16.586-2.421-16.586-2.421l-8.299-10.379-11.413-3.104-7.606-1.387s-1.728-3.808-.693-5.536c1.045-1.728 4.843-4.832 4.843-6.56 0-1.728-1.035-7.264-1.035-7.264l5.184-11.413s8.64-2.763 11.061-3.456c2.422-.693 22.134-5.184 22.134-5.184s16.245-7.264 19.008-12.096c2.773-4.843 10.378-11.072 10.72-12.107.341-1.034 1.034-10.72 1.034-13.13 0-2.411 3.115-4.843 5.536-2.08a1619.18 1619.18 0 005.184 5.877s1.728.693 1.728 4.843c0 4.149.342 6.57 2.763 8.992 2.421 2.41 11.072 9.674 11.072 9.674s-1.045 7.264-1.739 13.142c-.682 5.877-3.797 10.72-.341 15.21 3.456 4.491 6.912 6.912 6.571 8.64-.352 1.728 1.034 22.816 1.034 25.59 0 2.773-4.842 6.56 1.035 14.858 5.877 8.299 14.176 10.379 21.781 10.72 7.606.352 23.51.694 28.352-.341 4.843-1.045 16.246-6.229 20.054-8.992 3.797-2.763 12.789-5.536 15.21-3.808 2.422 1.739 6.219 7.616 9.334 12.107 3.114 4.49 2.762 8.992 7.264 10.72 4.49 1.728 10.72 4.149 15.552 7.253 4.842 3.115 7.264 5.184 10.026 5.536 2.774.341 9.334.341 11.755.341 2.421 0 4.501.694 6.229.694 1.728 0 5.526-.342 10.368 0 4.843.352 5.184 0 11.414.693 6.218.693 7.253 1.035 13.824 1.035 6.57 0 6.57-.694 10.026-.694 3.456 0 3.808.694 5.536 1.387 1.728.693 26.272 12.213 28.576 13.6 2.304 1.387 13.142 6.677 19.36 9.675 6.219 2.997 7.371 2.773 9.451 4.149 2.069 1.387 6.912 2.997 6.219 3.925-.683.918-3.222 3.915-5.526 4.608-2.304.694-10.602.224-9.45 4.843 1.152 4.608.693 6.912 1.152 8.757.458 1.846 4.842 2.998 5.301 7.606.459 4.608 2.069 11.52 2.304 14.752.235 3.221.693 13.824.459 15.669-.224 1.845 5.994 5.067 8.533 5.536 2.528.459 8.064 2.069 11.061 5.525 2.998 3.456 5.995 1.611 7.606 6.454 1.61 4.842-8.758 17.29-8.758 17.29s.918 3.915 3.222 5.76c2.304 1.846 3.232 1.846 3.925 2.539.683.683 5.76 15.211 5.76 15.211s2.763 7.605 4.149 11.061c1.376 3.456 8.982 14.517 9.675 16.939.693 2.421 6.229 13.834 7.605 12.789 1.387-1.035 6.571-1.035 9.334-3.797 2.773-2.763 12.8-6.571 13.834-6.912 1.035-.352 3.115 1.034 3.798 3.797.693 2.763-1.728 8.299-2.411 10.368-.693 2.08 2.763 9.344 4.491 12.448 1.728 3.115-.342 8.299 5.877 12.107 6.219 3.797 10.027 4.49 11.061 7.605 1.035 3.104 2.763 9.675 3.808 15.552 1.035 5.877-.352 6.229-.352 9.685 0 3.456 7.958 5.878 10.379 8.299 2.411 2.421-1.045 2.763 5.525 7.253 6.571 4.502 6.23 1.046 8.992 11.755 2.763 10.72 5.526 14.176 7.264 17.291 1.728 3.114.139 1.386 1.803 8.992 1.653 7.605 3.872 5.184 0 16.245-3.883 11.061-1.461 8.64-9.76 15.211-8.299 6.57-4.491 12.448-4.491 12.448s5.526 5.525 9.675 7.264c4.149 1.728 11.413 2.762 15.211.682 3.808-2.069 10.378-11.061 11.754-11.754 1.387-.683 4.15-7.254 7.264-2.422 3.115 4.843 6.912 7.958 6.912 7.958s1.728 4.49 4.15 6.912c2.421 2.421 3.808 5.184 5.184 7.264 1.386 2.069 11.989 31.349 12.448 33.653.458 2.304 5.077 23.968 4.608 25.813-.459 1.846 2.304 11.979 0 16.587-2.304 4.619 0 5.995 6.922 8.768 6.912 2.763 17.974-2.315 19.819-3.691 1.845-1.386 4.149-2.762 6.453-7.381 2.304-4.608 7.84-19.819 7.84-19.819s1.376-10.602-5.994-15.669c-7.382-5.077-6.454-16.139-10.144-18.443-3.691-2.304 6.912-10.602 10.144-12.448 3.221-1.845 10.133-6.453 9.216-11.061-.918-4.608 1.386-10.144-7.371-13.365-8.768-3.232-19.36 3.69-19.36 3.69s-15.68-7.381-15.68-8.768c0-1.386-8.757-20.736-8.757-22.581 0-1.845 0-7.84 2.762-11.989 2.774-4.15 11.072-11.062 11.531-12.438.459-1.386 0-7.84-2.773-9.685-2.763-1.845-7.371-5.067-11.979-2.763-4.608 2.304-9.216 9.675-11.989 7.83-2.763-1.846 0-6.912 1.386-9.216 1.387-2.304 18.443-4.363 20.747-5.408 2.304-1.046 13.365-7.04 14.752-9.803 1.376-2.763 1.835-9.216-.928-11.989-2.763-2.763-12.907-5.526-18.443-5.526-5.536 0-11.52 6.912-16.586 9.675-5.078 2.773-12.448 9.685-13.376 4.149a608.653 608.653 0 01-1.835-11.978s3.68-12.448 2.304-12.907c-1.387-.469-5.536-11.072-5.536-11.072s-12.907-.459-15.211-1.835c-2.304-1.386 5.536-12.917 5.536-12.917l9.216-10.592s-1.386-10.144-4.608-12.917c-3.232-2.763-18.986-9.675-21.013-8.758-2.037.928-9.419 6.454-10.795 9.227-1.386 2.763-2.762 5.984-5.077 3.68-2.304-2.304-11.979-7.829-11.061-10.133.928-2.304-.459-17.056-2.304-19.83-1.846-2.762-9.216-7.573-10.144-9.546-.918-1.974-.918-11.659-.918-11.659l-3.69-7.371s-7.83 1.846-9.216-2.304c-1.387-4.149-3.691-7.381-3.232-13.834.469-6.454-2.304-6.454-4.608-5.984-2.304.458-7.371 9.674-11.52 11.52-4.15 1.845-12.448 1.386-11.52-3.222.917-4.618 5.066-24.437 5.066-24.437s-4.149-10.603-5.536-11.52c-1.376-.928-6.912-6.453-6.912-6.453s-3.221-.459-3.69-5.536c-.459-5.067 1.845-14.752 2.304-18.432.469-3.691-.918-11.531 1.386-14.752 2.304-3.232 7.382-9.227 13.835-12.448 6.453-3.232 1.835-5.078 6.453-3.232 4.608 1.845 5.984 5.077 12.907 5.536 6.912.458 5.984 0 11.979-.459 3.996-.313 6.762-2.464 8.298-6.453 2.304-5.995 5.536-9.686-2.304-12.448-7.84-2.763-5.536-2.304-15.669-4.15-10.144-1.845-15.68-3.232-21.205-6.912-5.536-3.69-11.531-5.536-12.907-7.84-1.387-2.304.459-1.386-3.691-7.84-4.149-6.453 0-5.525-5.994-8.757-5.995-3.221-8.758-4.149-12.907-5.995-4.149-1.834-11.979-5.066-22.123-8.288-10.144-3.232-12.906-8.298-12.906-14.752 0-6.453.458-14.293 0-17.984-.459-3.69-6.454-14.282-8.758-14.282-2.304 0-11.53-5.536-17.525-1.846-5.984 3.68-13.824 9.675-15.669 9.675-1.846 0-5.995-6.912-5.995-9.216 0-2.304-1.376-15.21-1.376-15.21s-8.757-7.382-10.144-8.758c-1.387-1.387-12.907 0-12.907 0l11.99-20.288 26.73 12.448s19.36-2.763 23.968-4.608c4.608-1.845-.458-8.757 17.515-8.757s32.736-.928 34.581-1.846c1.835-.928 7.371-5.536 14.752-.928 7.371 4.619 23.04 9.686 28.576 10.603 5.526.928 17.974 4.619 17.974 4.619s5.536 1.376 10.144 1.376c4.608 0 17.056-1.846 18.442-2.763 1.376-.928 8.299-6.453 10.134-7.84 1.845-1.376 3.69-5.525 9.226-5.525 5.536 0 35.03-3.616 36.416-5.035 1.376-1.419 11.062-2.272 12.448 0 1.376 2.261 8.758 13.333 9.675 14.71.928 1.386 17.984 6.453 17.984 6.453l11.968 5.109.469.203 4.843 2.069c.149.181.299.352.427.523.672.81 1.258 1.546 1.77 2.208 3.147 4.106 3.392 5.781 1.952 8.672-1.728 3.456-11.754 12.448-13.824 17.29-2.08 4.843-6.57 12.448-5.877 16.939.683 4.49 2.411 20.747 2.069 23.168-.341 2.411-3.797 12.437-6.218 18.315-2.422 5.877-3.456 12.448-7.606 14.176-4.149 1.728-13.141 1.386-14.869 2.773-1.728 1.376-5.536 2.763-6.571 8.64-1.034 5.877-3.797 25.931-3.797 25.931s-1.696 3.637-2.08 7.68c-6.987 3.658-16.48 9.408-19.168 14.773-4.384 8.789-10.219 35.488-9.504 51.029.725 15.552 16.939 30.422 22.347 33.12 5.408 2.71 31.434 16.896 57.461 8.79 20.96-6.528 32.053-37.931 35.573-49.888 2.123.512 5.398.768 8.022.522 3.797-.341 17.28-1.728 20.746-1.376 3.456.342 11.755 3.104 11.755 3.104s-.693 5.878-2.421 6.23c-1.728.341-6.571 5.301-6.571 5.301s2.997 7.253-.235 11.179c-3.221 3.914-7.146 3.69-9.909 3.456-2.763-.235-9.216.458-10.827 3.69-1.621 3.222-8.992 2.304-10.144 3.68-1.152 1.387-4.384 8.534-4.608 10.144-.234 1.611-1.621 8.299-.234 13.142 1.386 4.842 3.456 9.45 6.218 9.45 2.763 0 10.379-1.152 11.99 0 1.61 1.152.693 8.064.928 12.907.224 4.843 1.834 7.371 4.832 11.755 2.997 4.373 7.381 8.757 8.298 11.52.928 2.762.459 7.84.694 10.602.234 2.763-.918 8.758-.918 8.758s-.234 10.378-2.08 15.21c-1.845 4.843-5.066 13.142-5.301 14.059-.235.928.235 8.299 1.611 9.685 1.386 1.387 5.536 2.539 8.533 4.15 2.997 1.61 19.125 6.453 22.357 6.912 3.222.458 16.598 2.762 19.126 0 2.538-2.763 3.925-3.456 6.912-5.995 2.997-2.528 10.378-3.68 11.53-4.373 1.152-.694 5.76-1.622 5.302-5.76-.459-4.15-1.611-11.531-1.152-12.683.458-1.152.917-4.843 4.373-5.76 3.456-.928 8.757-1.152 9.227-2.763.458-1.621 2.528-1.386 1.61-5.301-.928-3.925-1.386-8.757-.693-10.379.363-.832 1.088-2.666 1.803-4.33.672-1.536 1.312-2.934 1.653-3.275.363-.363 1.632-.533 3.179-.448 1.386.075 3.008.363 4.426.907 2.998 1.152 3.691 1.386 5.078.234 1.376-1.152 9.909-8.298 13.365-10.602 3.452-2.304 4.612-4.374 5.062-6.688.46-2.304.24-6.454-1.37-8.758-1.623-2.304-2.081-11.52-2.999-13.13-.362-.63-1.184-1.931-2.176-3.296-1.536-2.123-3.477-4.406-4.746-4.544-2.07-.235-4.608-2.304-11.52-.235a9.82 9.82 0 00-2.208.96s-.022 0-.043.021c-3.509 2.102-4.053 5.59-6.176 5.504-.576-.021-1.269-.309-2.176-.949a128.108 128.108 0 01-2.848-2.069c-2.912-2.208-4.171-3.691-2.912-5.302 1.611-2.08 5.536-9.685 6.912-11.989 1.387-2.304 10.144-8.992 11.755-9.216 1.61-.235 10.602 2.528 13.834 4.832 3.222 2.315 4.107 7.605 6.893 11.072 2.78 3.456 4.17 5.525 7.39 7.605 3.23 2.07 9.69 6.678 10.38 8.758.69 2.069 1.61 8.064 1.84 9.909.23 1.845 2.53 6.912 0 8.299z" fill="#1A1A1A"/></svg>