<svg xmlns="http://www.w3.org/2000/svg" width="400" height="174.102"><path fill="#E31B23" d="M35.56.129c-.91.043-1.299.133-1.369.313-.067.178-.37.254-1.001.254-.497 0-.979.074-1.07.164-.091.091-.538.184-.992.207-.546.029-.828.121-.828.272 0 .155-.252.228-.782.228-.432 0-.784.079-.784.174 0 .097-.316.176-.702.176-.463 0-.736.088-.802.261-.062.161-.327.261-.691.261-.325 0-.591.078-.591.174 0 .097-.19.175-.423.175-.233 0-.54.117-.685.261-.144.144-.463.262-.709.262-.245 0-.447.078-.447.174 0 .097-.196.174-.436.174-.271 0-.436.1-.436.262 0 .163-.164.261-.436.261-.238 0-.435.079-.435.175 0 .095-.188.174-.417.174-.229 0-.462.117-.518.262-.055.144-.255.261-.443.261-.189 0-.393.078-.451.174s-.26.174-.445.174-.337.114-.337.258c0 .159-.163.261-.421.261-.231 0-.449.082-.481.183-.034.102-.204.205-.378.23s-.367.126-.432.222c-.063.097-.372.287-.683.423-.312.135-.566.344-.566.464 0 .121-.14.22-.312.22-.171 0-.595.267-.939.592-.346.326-.793.644-.995.708-.201.063-.366.189-.366.278 0 .09-.121.163-.271.163-.15 0-.223.078-.164.175.059.095-.015.174-.164.174s-.271.117-.271.261-.084.261-.187.261c-.241 0-.684.443-.684.685 0 .103-.1.187-.221.187s-.366.196-.547.436c-.18.239-.435.436-.567.436-.134 0-.311.176-.395.391a1.655 1.655 0 01-.518.648c-.201.141-.365.357-.365.479s-.084.223-.188.223c-.24 0-.684.442-.684.684 0 .104-.109.188-.241.188-.133 0-.372.273-.53.608-.159.335-.364.61-.455.61-.093 0-.166.082-.166.181 0 .101-.196.395-.437.652-.239.258-.435.568-.435.689 0 .119-.061.219-.133.219-.134 0-.447.516-.663 1.089-.064.167-.185.304-.27.304s-.151.193-.151.433c0 .238-.075.435-.17.435-.093 0-.33.333-.524.74-.196.407-.421.857-.5 1.001-.435.787-.546 1.074-.546 1.391 0 .196-.116.352-.263.352-.161 0-.261.164-.261.435 0 .24-.078.436-.174.436s-.174.266-.174.591c0 .365-.101.63-.261.69-.164.063-.262.33-.262.717 0 .338-.079.614-.175.614-.095 0-.174.265-.174.588s-.11.68-.244.791c-.238.197-.309.552-.547 2.714-.072.652-.223 1.129-.402 1.27-.459.36-.44 107.396.019 107.731.219.159.305.465.305 1.083 0 .473.074.935.164 1.025s.183.538.207.993c.028.545.12.827.271.827.155 0 .229.253.229.783 0 .431.079.783.174.783.096 0 .175.316.175.702 0 .463.088.736.262.803.16.062.261.326.261.69 0 .325.078.591.174.591s.174.188.174.414c0 .229.118.513.261.631.145.119.263.447.263.729 0 .297.072.466.174.404.101-.063.174.113.174.425 0 .357.086.533.261.533.161 0 .262.162.262.425 0 .233.072.47.16.523.09.056.213.335.275.622.064.287.188.478.275.423s.159.059.159.249c0 .192.078.397.175.456.096.06.174.261.174.446s.118.338.262.338c.162 0 .261.164.261.436 0 .238.078.435.175.435.096 0 .174.16.174.354s.104.394.231.442c.127.049.337.36.468.691.13.331.34.602.465.602.126 0 .229.137.23.306.001.167.255.581.566.921.633.691.964 1.164 1.105 1.582.054.155.286.385.519.509.23.123.42.295.42.382 0 .217.457.655.684.655.104 0 .188.098.188.219s.195.367.435.547c.24.18.437.437.437.568 0 .133.176.31.391.394.216.084.508.317.648.519.141.2.356.365.479.365s.223.084.223.187c0 .241.443.684.685.684.103 0 .187.109.187.242 0 .132.274.371.609.53s.61.364.61.455c0 .092.116.166.261.166.144 0 .261.065.261.146s.274.295.61.476c.335.181.608.389.608.463 0 .073.12.134.268.134a.43.43 0 01.367.262c.055.144.248.261.43.261.181 0 .329.078.329.175 0 .096.196.174.436.174.271 0 .436.099.436.261 0 .145.119.262.264.262.289 0 .896.312 1.265.653.132.119.385.217.563.217s.374.079.433.174c.06.097.3.176.533.176.261 0 .425.1.425.261 0 .162.164.261.436.261.24 0 .435.062.435.137 0 .075.254.156.563.181.309.023.626.158.705.298.083.147.396.256.743.256.33 0 .602.078.602.174 0 .097.264.174.588.174.323 0 .679.11.791.244.195.236.77.353 2.794.564.59.061 1.032.208 1.162.386.335.458 333.283.44 333.618-.019.162-.222.466-.305 1.108-.305.485 0 .933-.079.991-.175.06-.095.411-.174.782-.174.37 0 .781-.108.913-.239.132-.132.569-.289.97-.349l1.44-.215c.391-.059.752-.215.803-.349.051-.133.314-.241.586-.241s.542-.078.602-.175c.059-.096.293-.174.52-.174.228 0 .53-.118.674-.261.145-.145.463-.261.709-.261s.448-.079.448-.176c0-.095.196-.174.436-.174.271 0 .436-.098.436-.261 0-.144.154-.261.343-.261s.619-.156.957-.346c.339-.189.616-.287.618-.218.001.07.06.049.13-.047.189-.256.867-.609 1.171-.609a.262.262 0 00.264-.261c0-.163.165-.262.436-.262.239 0 .435-.078.435-.174 0-.097.159-.174.354-.174.194 0 .394-.104.442-.231.049-.128.359-.338.691-.468.331-.13.603-.339.603-.465s.14-.229.312-.229c.171 0 .589-.255.929-.565.637-.584 1.093-.916 1.546-1.123.367-.169.696-.517.696-.737 0-.103.084-.187.187-.187.24 0 .684-.442.684-.684 0-.103.1-.187.22-.187.121 0 .367-.196.548-.436.18-.24.435-.435.567-.435s.311-.178.395-.393c.084-.216.316-.507.518-.647.201-.142.365-.357.365-.479 0-.123.084-.223.187-.223.241 0 .685-.443.685-.685 0-.103.108-.187.241-.187s.371-.274.53-.609.364-.609.455-.609c.092 0 .166-.081.166-.182 0-.1.196-.393.437-.651.238-.258.435-.568.435-.689 0-.12.078-.219.174-.219.097 0 .174-.118.174-.261 0-.145.077-.262.171-.262.095 0 .221-.195.28-.436.061-.239.179-.436.266-.436.085 0 .154-.195.154-.435 0-.271.1-.436.262-.436a.262.262 0 00.261-.264c0-.29.312-.896.652-1.266a.963.963 0 00.219-.563c0-.179.078-.374.174-.433s.174-.299.174-.533c0-.261.102-.425.262-.425.162 0 .262-.164.262-.435 0-.239.078-.436.174-.436s.174-.266.174-.591c0-.365.1-.629.261-.691.164-.062.261-.329.261-.715 0-.339.079-.615.176-.615.095 0 .174-.265.174-.589 0-.322.117-.685.261-.805.159-.132.261-.513.261-.979 0-.419.079-.762.175-.762s.174-.441.174-.981c0-.734.077-1.038.305-1.205.289-.211.305-2.979.305-53.887 0-50.906-.016-53.675-.305-53.886-.219-.16-.305-.465-.305-1.083 0-.473-.074-.935-.164-1.025-.09-.092-.184-.538-.207-.992-.026-.509-.123-.828-.253-.828-.117 0-.255-.33-.311-.74-.254-1.897-.34-2.252-.564-2.339-.142-.054-.242-.34-.242-.683 0-.325-.078-.592-.174-.592s-.174-.186-.174-.414c0-.228-.118-.512-.262-.631s-.262-.446-.262-.728c0-.297-.073-.466-.174-.404-.102.063-.174-.114-.174-.425 0-.357-.086-.533-.262-.533-.16 0-.261-.163-.261-.425 0-.233-.073-.469-.161-.524-.089-.055-.212-.334-.274-.621-.064-.286-.188-.478-.275-.423s-.16-.058-.16-.25c0-.19-.078-.396-.174-.456-.096-.059-.174-.26-.174-.444 0-.187-.118-.338-.262-.338s-.262-.153-.262-.339-.077-.387-.174-.445c-.096-.06-.174-.262-.174-.451s-.104-.384-.231-.432c-.128-.05-.338-.36-.468-.692-.13-.331-.34-.602-.465-.602-.126 0-.229-.138-.23-.306-.001-.167-.265-.582-.587-.921-.321-.339-.64-.79-.707-1.001-.066-.212-.194-.385-.283-.385s-.163-.084-.163-.188c0-.24-.443-.684-.685-.684a.187.187 0 01-.186-.187c0-.24-.443-.684-.684-.684-.104 0-.188-.101-.188-.223 0-.123-.164-.338-.365-.479a1.69 1.69 0 01-.518-.647c-.084-.215-.262-.393-.395-.393s-.389-.195-.567-.435c-.181-.24-.427-.436-.547-.436-.121 0-.221-.084-.221-.187 0-.241-.442-.685-.684-.685-.104 0-.188-.108-.188-.24 0-.133-.273-.372-.608-.531s-.61-.364-.61-.455c0-.092-.117-.166-.261-.166-.145 0-.261-.079-.261-.174 0-.096-.109-.175-.243-.175-.133 0-.287-.117-.343-.262a.432.432 0 00-.366-.261c-.147 0-.268-.078-.268-.174s-.108-.174-.242-.174-.287-.118-.344-.261c-.055-.145-.259-.263-.454-.263-.193 0-.353-.078-.353-.174s-.196-.174-.436-.174c-.271 0-.436-.099-.436-.261a.263.263 0 00-.264-.262c-.289 0-.896-.312-1.266-.652-.131-.12-.384-.219-.562-.219s-.374-.077-.434-.174c-.059-.096-.299-.174-.532-.174-.262 0-.425-.101-.425-.262 0-.162-.164-.261-.436-.261-.24 0-.435-.062-.435-.138 0-.075-.255-.155-.563-.18-.309-.023-.626-.158-.705-.298-.083-.148-.396-.255-.744-.255-.33 0-.601-.079-.601-.176 0-.095-.265-.174-.588-.174s-.679-.109-.791-.244c-.195-.235-.771-.352-2.794-.562-.59-.062-1.032-.209-1.162-.386C367.656.111 40.946-.129 35.56.129m17.03 40.595c2.749.355 5.511 1.893 5.854 3.26.058.232.167.422.242.422.458 0 .786 81.478.337 83.588-.75 3.519-4.7 5.626-9.676 5.161-2.528-.234-3.208-.335-3.3-.481-.052-.084-.271-.152-.485-.152-.757 0-3.105-1.605-3.438-2.351a9.144 9.144 0 00-.303-.61 26.731 26.731 0 01-.349-.649c-.266-.516-.292-83.905-.027-84.069.096-.06.175-.221.175-.36 0-.684 2.209-2.86 2.903-2.86.127 0 .23-.079.23-.176 0-.095.147-.174.327-.174.181 0 .608-.117.952-.261.344-.145 1-.27 1.458-.279.458-.009 1.029-.084 1.268-.165.473-.163 1.778-.109 3.832.156m64.685.744c.091.083.561.155 1.045.159.483.004 1.192.121 1.576.259.383.138.984.252 1.339.253.353.002.691.081.75.177.059.097.319.175.576.175.258.001.692.118.968.262.274.144.72.261.991.261s.541.078.6.174c.06.096.24.174.402.175s.519.118.793.262c.273.143.608.26.743.26.246 0 .377.054 1.428.58.319.16.724.291.9.291.176 0 .346.059.377.131.062.138.797.51 2.018 1.02.407.17.74.372.74.45 0 .077.119.141.264.141.146 0 .575.195.955.436.379.239.742.435.807.435.065 0 .374.196.688.436.313.24.619.436.677.436.059 0 .201.078.317.175.115.095.954.696 1.864 1.337.909.64 1.693 1.208 1.741 1.263.047.054.478.413.953.796 1.535 1.233 4.943 4.725 6.215 6.367.255.329.627.787.827 1.017.2.23.363.471.363.533 0 .063.137.27.305.459.521.588 1.785 2.481 1.785 2.673 0 .102.073.184.162.184.09 0 .218.176.285.392.066.215.177.431.245.479.066.048.378.597.69 1.219.313.623.709 1.407.879 1.742.852 1.673 1.222 2.49 1.222 2.7 0 .127.109.453.245.725.422.848.981 2.407 1.101 3.063.048.265.156.524.241.576s.153.349.153.66c0 .31.081.645.181.744.188.188.453 1.396.663 3.023.066.527.183 1.054.256 1.169.696 1.106.696 13.971 0 15.076-.073.116-.189.643-.256 1.169-.21 1.628-.476 2.836-.663 3.024-.1.099-.181.434-.181.745 0 .31-.068.606-.153.659s-.193.312-.241.575c-.119.657-.679 2.217-1.101 3.064-.136.271-.245.597-.245.724s-.187.611-.414 1.074a298.38 298.38 0 00-.957 1.977c-.611 1.273-1.275 2.48-1.437 2.611-.058.048-.162.264-.229.479-.067.215-.195.391-.285.391-.089 0-.162.08-.162.177 0 .208-1.411 2.322-1.606 2.407-.074.031-.135.169-.135.304 0 .137-.073.247-.163.247-.089 0-.207.138-.261.306-.054.167-.353.583-.664.923s-.801.928-1.087 1.306c-.704.928-4.493 4.716-5.575 5.571-.479.379-.91.735-.957.792-.143.168-3.179 2.335-3.981 2.843-1.745 1.102-5.5 3.062-5.865 3.062-.139 0-.254.077-.254.174 0 .096-.141.174-.315.174-.173 0-.467.115-.652.256-.187.14-.477.258-.646.261s-.442.074-.608.158c-.734.372-1.642.718-1.878.718-.143 0-.395.068-.561.15-.549.271-2.084.721-2.462.721-.203 0-.506.07-.673.155-2.479 1.268-16.88 1.552-19.774.39a3.496 3.496 0 00-1.078-.196c-.322 0-.636-.078-.694-.175-.06-.096-.309-.174-.554-.174-.438 0-1.943-.428-2.535-.721a1.543 1.543 0 00-.561-.15c-.237 0-1.144-.346-1.878-.718-.166-.084-.4-.152-.52-.152s-.61-.188-1.091-.42c-3.404-1.638-4.303-2.09-5.227-2.631a40.468 40.468 0 00-1.438-.812c-.215-.109-.392-.265-.392-.345s-.079-.146-.176-.146c-.228 0-2.297-1.493-4.09-2.949-1.984-1.61-5.134-4.799-6.56-6.639-.255-.33-.627-.787-.827-1.019-.199-.229-.362-.47-.362-.532 0-.063-.14-.267-.31-.452-.435-.475-1.78-2.522-1.78-2.708a.155.155 0 00-.154-.155c-.084 0-.199-.137-.254-.304-.134-.407-.925-1.794-1.152-2.022-.1-.1-.181-.321-.181-.495 0-.172-.079-.312-.175-.312s-.175-.147-.175-.327-.116-.425-.261-.544c-.144-.119-.261-.32-.261-.447s-.196-.599-.436-1.05c-.239-.45-.436-.964-.436-1.141 0-.178-.069-.322-.154-.322-.084 0-.193-.176-.243-.392s-.188-.666-.308-1.001c-.12-.337-.271-.768-.34-.958-.067-.192-.221-.623-.342-.958a7.482 7.482 0 01-.3-1.133 4.748 4.748 0 00-.218-.87c-.263-.66-.592-2.092-.659-2.873-.036-.432-.136-.94-.22-1.133-.084-.19-.196-.896-.249-1.566a23.939 23.939 0 00-.263-2.09c-.217-1.136-.216-7.062.002-8.185.093-.479.216-1.479.273-2.224s.173-1.396.257-1.447c.083-.052.15-.444.15-.873 0-.428.118-1.06.262-1.404.144-.344.262-.846.262-1.115 0-.271.069-.534.155-.587.086-.054.192-.392.237-.75.079-.635.365-1.556.675-2.177a1.65 1.65 0 00.151-.62c0-.174.115-.469.255-.654.142-.187.258-.515.261-.73.004-.215.084-.392.181-.392.096 0 .174-.146.174-.322s.196-.691.436-1.141c.239-.45.436-.923.436-1.051 0-.126.117-.327.261-.446.145-.119.261-.357.261-.529s.06-.339.132-.371c.071-.032.335-.45.585-.929.869-1.669 1.113-2.09 1.242-2.147a.237.237 0 00.132-.197c0-.176 1.363-2.239 1.78-2.694.17-.187.31-.389.31-.452 0-.062.148-.287.332-.498a52.5 52.5 0 00.914-1.106c1.15-1.43 1.654-1.979 3.476-3.783 1.987-1.97 2.304-2.256 3.375-3.055.383-.284.736-.565.784-.624s.714-.547 1.479-1.087c.767-.539 1.473-1.04 1.567-1.112.096-.074.468-.289.827-.479s.654-.405.654-.479c0-.074.155-.136.348-.136.19 0 .348-.072.348-.161 0-.091.176-.219.393-.285.215-.067.431-.172.479-.233.091-.116 2.208-1.157 3.396-1.669 1.173-.506 1.9-.83 2.217-.985.167-.082.412-.148.546-.148s.469-.117.743-.26c.273-.144.631-.261.793-.262s.343-.079.401-.175c.06-.096.329-.174.601-.174.271 0 .717-.117.991-.261s.71-.261.968-.262c.257 0 .517-.078.576-.175.059-.096.421-.174.805-.174s.858-.086 1.053-.189c1.207-.651 14.392-1.076 15.029-.491m96.427.001c.161.083.592.152.958.155.365.002.979.087 1.361.188a24.86 24.86 0 001.479.333c1.739.329 2.52.531 2.684.695.095.095.427.173.736.173.312 0 .613.078.673.174s.24.174.401.175c.162.001.52.118.794.262.274.143.608.26.742.26s.38.066.546.148c.167.082.577.268.912.412 1.058.457 2.686 1.204 3.048 1.4.191.104.779.411 1.307.684.525.272 1.11.593 1.299.71.188.118.854.526 1.48.906s1.164.752 1.196.827.169.137.305.137.246.073.246.162.144.208.318.263c.175.057.468.238.652.405.185.168.688.578 1.119.912.879.681 1.5 1.218 3.017 2.611.972.894 1.319 1.247 3.251 3.309.403.432 1.06 1.214 1.457 1.741.396.527.821 1.062.942 1.192.122.129.33.441.462.696s.404.612.605.794c.201.183.366.44.366.573s.16.413.355.624c.196.21.456.579.577.82.122.24.486.907.81 1.481.576 1.027 1.641 3.147 1.922 3.831a83.52 83.52 0 00.93 2.203c.155.351.282.757.282.904s.078.316.174.376c.096.059.174.338.174.62 0 .28.07.512.155.512s.207.351.271.779c.064.429.191.826.281.881.09.056.164.395.164.753 0 .359.07.726.155.817.21.225.559 2.006.663 3.387.046.623.176 1.242.286 1.377.285.346.285 11.529 0 11.875-.11.134-.24.753-.286 1.376-.104 1.381-.453 3.162-.663 3.387-.085.091-.155.459-.155.817 0 .357-.074.697-.164.753s-.217.452-.281.881c-.063.428-.186.779-.271.779s-.155.23-.155.512c0 .282-.078.561-.174.62-.096.059-.174.24-.175.402-.001.161-.118.519-.262.794-.143.273-.26.565-.26.647 0 .306-1.633 3.729-2.61 5.47-.322.575-.671 1.203-.773 1.396-.102.193-.363.596-.578.896-.216.302-.392.614-.392.696s-.196.36-.436.619c-.239.258-.436.532-.436.609 0 .076-.196.351-.436.609-.238.258-.435.544-.435.637 0 .092-.062.193-.134.226-.074.032-.314.293-.535.58-1.638 2.133-5.347 5.803-7.602 7.521-.478.365-1.021.801-1.208.968-.187.168-.397.305-.469.305-.07 0-.251.123-.399.271-.427.427-4.754 3.002-6.108 3.636-2.609 1.221-3.241 1.491-3.479 1.491-.136 0-.295.078-.354.175-.059.095-.279.176-.489.179s-.532.121-.719.262a1.423 1.423 0 01-.729.255c-.217 0-.44.079-.5.175s-.318.177-.576.181a2.222 2.222 0 00-.904.255c-.239.137-.626.251-.858.255a4.358 4.358 0 00-.958.165c-2.134.634-3.443.818-7.718 1.081-3.823.235-11.131-.165-11.921-.652-.123-.076-.577-.195-1.008-.265-1.447-.232-2.51-.499-2.685-.673-.095-.095-.388-.172-.649-.172-.263 0-.526-.079-.585-.175-.06-.096-.296-.175-.527-.175-.374 0-1.181-.283-2.039-.718-.167-.084-.38-.152-.474-.152-.095 0-.586-.188-1.091-.417a46.67 46.67 0 00-1.181-.521c-.144-.057-.379-.176-.522-.265s-.535-.291-.87-.45c-1.63-.775-4.354-2.378-4.354-2.562 0-.076-.111-.138-.249-.138-.137 0-.354-.105-.481-.234-.129-.129-.585-.454-1.014-.723-.43-.268-.819-.536-.867-.594-.048-.059-.374-.319-.726-.581a13.396 13.396 0 01-.871-.696 20.397 20.397 0 00-.842-.718c-1.723-1.403-4.641-4.454-6.269-6.554-.334-.432-.666-.811-.739-.843-.072-.031-.132-.133-.132-.225 0-.157-.143-.36-.653-.929-.12-.135-.217-.327-.217-.431 0-.102-.061-.186-.135-.186s-.289-.294-.478-.653c-.188-.358-.391-.691-.448-.74-.059-.048-.321-.479-.586-.958-.263-.479-.589-.993-.723-1.146-.134-.151-.249-.386-.256-.522-.007-.136-.163-.482-.347-.77s-.38-.64-.438-.784a45.357 45.357 0 00-.543-1.219 38.597 38.597 0 01-.61-1.394 14.142 14.142 0 00-.417-.928c-.134-.271-.244-.639-.244-.816 0-.179-.078-.372-.175-.433-.096-.059-.174-.283-.174-.499 0-.215-.115-.544-.256-.729-.14-.187-.258-.588-.261-.894s-.084-.604-.18-.664c-.096-.059-.175-.317-.176-.575 0-.259-.118-.693-.261-.968s-.26-.799-.26-1.166c0-.365-.078-.714-.174-.773-.097-.06-.175-.48-.175-.938 0-.456-.111-1.176-.247-1.6-.608-1.889-.608-11.321 0-13.21.136-.424.247-1.145.247-1.601s.078-.878.175-.937c.096-.059.174-.408.174-.774s.117-.891.26-1.165.261-.71.261-.968c.001-.258.08-.517.176-.576.096-.059.177-.357.18-.663s.121-.708.261-.894a1.44 1.44 0 00.256-.74c0-.221.078-.401.174-.401.097 0 .175-.19.175-.422s.11-.644.244-.914c.222-.443.389-.833.696-1.625.057-.144.172-.379.257-.522s.252-.496.37-.784c.118-.287.282-.64.365-.783s.319-.613.525-1.045c.205-.431.422-.822.481-.871.061-.048.341-.538.624-1.088.283-.551.568-1.002.632-1.002.065 0 .163-.137.221-.304.122-.365.437-.857.85-1.328.167-.188.348-.487.404-.662.055-.175.174-.317.263-.317s.162-.117.162-.262c0-.144.068-.261.151-.261.082 0 .347-.294.585-.653.633-.951 1.53-1.948 3.879-4.305 2.155-2.164 2.753-2.711 4.092-3.749.431-.334.81-.666.842-.739.032-.071.162-.132.29-.132s.258-.059.29-.13c.085-.19 1.692-1.263 1.892-1.263a.171.171 0 00.169-.174c0-.097.111-.175.247-.175s.273-.066.305-.147c.058-.147 1.332-.888 3.019-1.755.479-.247.897-.507.929-.579.032-.071.148-.13.259-.13s.594-.188 1.073-.418c.481-.23 1.188-.547 1.57-.705s.833-.362.999-.453.48-.168.697-.171c.216-.003.546-.121.731-.262.187-.141.515-.256.73-.256.215 0 .434-.069.487-.154.053-.085.351-.196.662-.247.78-.126 2.072-.479 2.438-.663.166-.085.601-.154.966-.154s.741-.077.835-.171c.648-.637 13.948-1.079 15.086-.496m-107.128 16.79c-.431.136-1.073.248-1.427.249-.354.002-.691.081-.75.177-.06.096-.279.174-.489.174-.388-.001-1.875.439-2.425.719-.167.084-.38.152-.476.152-.154 0-1.168.434-2.793 1.195-.335.157-.636.344-.667.416s-.209.13-.392.13c-.184 0-.334.077-.334.171s-.196.22-.435.28c-.24.06-.437.18-.437.265s-.117.155-.261.155c-.145 0-.261.073-.261.163 0 .089-.177.217-.393.284-.215.067-.431.173-.479.233-.076.099-.9.75-1.997 1.583-.545.413-3.248 3.145-3.966 4.006-.358.432-.73.878-.827.993-.097.116-.175.292-.175.393 0 .1-.062.181-.135.181-.072 0-.4.451-.727 1.002-.327.551-.644 1.04-.703 1.088s-.244.362-.409.697c-.166.335-.368.727-.451.87-.438.763-1.059 2.221-1.059 2.483 0 .167-.079.304-.174.304-.097 0-.175.181-.175.401 0 .222-.115.555-.256.74s-.258.588-.261.894c-.004.306-.084.604-.18.663-.096.06-.174.347-.174.638s-.113.775-.251 1.078c-.691 1.509-.662 11.001.037 12.247.117.21.214.616.214.904s.078.572.174.631c.096.061.176.358.18.664.003.306.12.707.261.894.141.186.256.519.256.739 0 .223.078.403.175.403.095 0 .176.176.179.392s.121.544.261.729c.142.187.256.48.256.653s.078.314.175.314c.096 0 .174.152.174.338 0 .187.079.388.175.446.096.06.333.437.526.838.378.786.72 1.373.88 1.514.055.048.248.341.429.652s.391.566.466.566.138.084.138.186c0 .104.097.296.217.431.475.528.652.767.652.87 0 .228 3.964 4.054 4.964 4.792.574.425 1.084.812 1.132.859.173.176.791.536 1.088.636.168.058.305.172.305.256 0 .086.108.154.24.154s.338.118.457.261a.785.785 0 00.529.263c.172 0 .339.058.37.13s.332.257.667.412c.335.154 1.042.487 1.57.74s1.091.459 1.252.459.34.077.4.174c.059.096.284.174.499.174.216 0 .544.115.729.256.187.141.627.258.981.261.353.003.69.084.75.181.059.096.375.174.701.174.325 0 .946.12 1.38.267 1.553.528 10.897.134 11.517-.484.071-.072.333-.134.58-.137.461-.006 2.195-.55 2.398-.752.062-.062.275-.115.475-.118.2-.003.515-.121.701-.262.186-.14.479-.255.653-.255.173 0 .314-.079.314-.174 0-.096.196-.175.436-.175s.436-.063.436-.142.372-.312.827-.522c.897-.414 1.23-.608 2.078-1.207.305-.216.638-.393.739-.393.103 0 .187-.079.187-.175 0-.095.111-.174.247-.174.135 0 .271-.059.304-.132.032-.072.411-.4.842-.729.93-.709 4.701-4.437 4.705-4.649.001-.082.313-.501.693-.933.38-.431.693-.881.694-1.001.002-.12.071-.218.156-.218.084 0 .2-.137.256-.305.1-.296.46-.912.636-1.088.202-.202.829-1.414 1.44-2.786.871-1.953.997-2.284.997-2.618 0-.189.078-.343.174-.343.097 0 .175-.187.175-.414s.117-.695.261-1.039.261-.897.261-1.23.079-.652.175-.712.175-.436.175-.838c0-.401.117-1.396.261-2.21.331-1.878.331-3.436 0-5.165-.145-.751-.261-1.733-.261-2.182 0-.449-.079-.865-.175-.924-.096-.061-.175-.368-.175-.687s-.117-.859-.261-1.203-.261-.824-.261-1.065c0-.243-.078-.441-.175-.441-.096 0-.174-.154-.174-.343s-.128-.639-.284-1.001c-.394-.916-2.048-4.297-2.153-4.403-.176-.176-.536-.792-.636-1.088-.056-.168-.165-.305-.244-.305-.078 0-.188-.144-.242-.318-.057-.174-.24-.468-.409-.653a15.95 15.95 0 01-.824-1.031c-.772-1.045-3.858-4.073-5.046-4.952-.575-.426-1.071-.837-1.103-.915-.032-.077-.144-.141-.248-.141s-.313-.109-.464-.243c-.504-.446-3.451-2.021-3.784-2.021-.129 0-.235-.079-.235-.174 0-.096-.115-.174-.255-.174-.141 0-.552-.129-.914-.286-1.354-.587-2.996-1.11-3.479-1.108-.21 0-.431-.078-.489-.174-.06-.096-.397-.175-.75-.176-.354-.001-1.028-.118-1.498-.261-1.176-.357-8.008-.349-9.154.012m96.735-.075c-.288.096-.954.243-1.481.327-1.589.253-3.038.652-3.872 1.068-.166.083-.414.15-.552.15-.137 0-.471.112-.742.248-.271.137-1.002.49-1.625.785-2.354 1.114-4.363 2.417-6.599 4.278-.687.57-2.5 2.431-3.145 3.223-.33.407-.702.842-.827.966-.125.125-.227.312-.227.414s-.06.187-.134.187-.282.273-.463.609c-.182.335-.386.609-.455.609s-.174.137-.232.305c-.058.168-.34.697-.627 1.175-.497.831-1.45 2.742-1.737 3.483-.073.192-.263.645-.42 1.007-.156.363-.284.81-.284.991 0 .183-.079.381-.175.439-.096.06-.174.308-.174.551s-.112.688-.25.99c-.942 2.076-.942 12.082 0 14.158.138.303.25.748.25.991s.078.491.174.55c.096.06.175.257.175.44 0 .182.128.628.284.991.157.361.347.814.42 1.007.287.741 1.24 2.651 1.737 3.482.287.479.569 1.009.627 1.176.059.168.175.305.26.305.084 0 .154.118.154.261 0 .145.073.261.162.261s.208.144.263.318c.057.175.237.469.404.653.166.185.655.764 1.086 1.287.938 1.139 2.446 2.65 3.48 3.488.413.335.994.824 1.291 1.086s.62.478.716.479c.097.001.375.179.618.394.244.217.595.478.781.582 2.449 1.37 2.756 1.529 3.649 1.894.383.157.832.358.999.45.166.092.455.166.642.166.188 0 .39.077.448.174.061.096.24.175.402.175.162.001.519.119.794.262.273.144.686.26.916.26.229 0 .554.071.72.157 1.03.535 10.714 1.004 11.266.545.12-.099.702-.229 1.294-.292.592-.062 1.117-.18 1.168-.261.051-.082.313-.149.584-.149s.717-.116.991-.26c.274-.143.67-.261.88-.262.211 0 .431-.079.489-.175.06-.097.239-.174.4-.174.16 0 .724-.206 1.252-.459s1.233-.586 1.57-.74c.335-.155.635-.34.667-.412.031-.072.131-.13.22-.13.229 0 3.13-1.818 3.589-2.25.212-.2.431-.362.487-.362.369 0 4.963-4.655 4.963-5.028 0-.092.059-.193.132-.226.202-.089 1.179-1.378 1.56-2.06 1.796-3.215 2.313-4.262 2.313-4.686 0-.104.078-.191.174-.191s.174-.135.174-.299c0-.271.338-1.343.703-2.226a5.2 5.2 0 00.239-.871c.233-1.297.575-2.81.688-3.058.257-.563.017-8.537-.299-9.915a62.612 62.612 0 01-.391-1.829 5.185 5.185 0 00-.237-.871c-.365-.883-.703-1.954-.703-2.227 0-.164-.078-.299-.174-.299s-.174-.086-.174-.19c0-.677-2.769-5.651-3.675-6.606a24.766 24.766 0 01-.94-1.126c-.852-1.064-2.585-2.792-3.699-3.688-.456-.366-.867-.716-.916-.776-.275-.351-3.138-2.104-4.62-2.83-2.32-1.139-3.421-1.604-4.087-1.731a8.188 8.188 0 01-.957-.263c-.577-.2-1.388-.404-2.961-.743-1.294-.277-8.652-.382-9.401-.132m84.626 5.182c.763.11 1.465.277 1.559.371.094.095.464.172.822.172s.7.078.759.175c.061.095.323.174.587.174.263 0 .631.115.817.255.186.141.507.259.713.262.207.003.756.192 1.219.421.464.229 1.118.546 1.453.705.847.401 2.215 1.198 2.574 1.5.166.14.652.523 1.084.854 1.004.771 2.377 2.144 3.141 3.143.33.432.659.811.731.842.073.032.132.136.132.229 0 .095.181.421.402.726.221.306.554.868.739 1.251.187.384.397.724.47.755.071.031.131.247.131.479 0 .232.071.421.16.421.088 0 .212.234.274.521.063.285.187.564.275.618.088.056.16.292.16.527s.072.564.161.73c.567 1.062.933 3.54.556 3.772-.085.053-.206.371-.27.707-.062.336-.189.611-.28.611-.093 0-.167.108-.167.243 0 .758-1.871 2.213-4.006 3.113-1.575.666-7.14.324-7.14-.438 0-.072-.111-.131-.247-.131-.312 0-2.365-2.039-2.365-2.352 0-.128-.058-.259-.13-.291-.071-.032-.282-.371-.469-.754a10.09 10.09 0 00-.74-1.251c-.221-.305-.401-.602-.401-.66 0-.102-.182-.342-.653-.869-.12-.134-.218-.303-.218-.377 0-1.74-6.746-3.415-9.772-2.426-.456.15-.941.272-1.081.272-.622 0-2.298 1.172-2.677 1.872-.168.311-.358.564-.421.564-.323 0-.496 2.989-.242 4.18.127.599.77 1.61 1.3 2.052.601.498 2.118 1.432 2.328 1.432.123 0 .377.115.562.255.186.142.51.258.72.262s.43.083.489.18c.059.096.279.175.488.175.21.001.606.119.882.262.273.144.759.261 1.077.261s.621.067.674.15c.051.083.482.203.96.267s.915.19.972.283c.058.094.37.169.694.169.323 0 .637.079.695.176.061.095.28.174.49.175.209 0 .606.118.88.261.274.143.726.26 1.001.26.277 0 .503.079.503.174 0 .097.182.175.402.175s.554.115.74.256c.186.141.476.258.645.261s.443.073.609.154c.167.082.577.268.912.414 1.518.66 3.75 1.779 3.802 1.907.032.078.202.143.378.143.175 0 .345.059.377.131.032.071.646.519 1.364.995 1.285.85 4.876 4.254 4.876 4.622 0 .103.196.398.435.657.24.259.437.53.437.605s.195.446.435.825c.24.38.436.848.436 1.042 0 .193.074.351.167.351.091 0 .218.276.28.612.063.336.185.654.27.707.085.052.154.31.154.572s.068.552.152.643c.606.656.794 5.78.307 8.351a95.5 95.5 0 00-.39 2.177c-.05.335-.156.766-.235.958-.08.19-.279.74-.441 1.219a21.225 21.225 0 01-.541 1.419c-.135.302-.245.635-.245.74 0 .104-.078.192-.174.192s-.174.118-.174.264-.196.575-.437.955c-.238.379-.435.75-.435.825 0 .074-.196.347-.436.604-.239.259-.436.542-.436.631 0 .686-4.646 4.763-6.443 5.656-.335.166-.727.372-.871.457-.562.333-2.285 1.055-2.519 1.055-.135 0-.295.078-.354.174-.059.097-.304.175-.544.175-.239 0-.607.094-.816.208-.388.211-1.229.382-3.254.658-.622.087-1.642.237-2.264.338-1.365.22-3.739.222-5.05.005-.526-.087-1.567-.21-2.312-.273s-1.396-.183-1.447-.264c-.051-.082-.421-.152-.822-.155-.4-.004-.926-.119-1.165-.256a2.253 2.253 0 00-.903-.255c-.259-.003-.518-.084-.576-.181-.06-.096-.269-.174-.463-.174-.195 0-.562-.107-.816-.239a14.517 14.517 0 00-.985-.456c-1.309-.54-4.101-2.138-4.72-2.699a39.752 39.752 0 00-1.044-.869c-1.045-.85-2.075-1.885-2.769-2.783a20.061 20.061 0 00-.697-.864c-.604-.646-2.525-4.085-2.525-4.519 0-.155-.078-.282-.174-.282-.095 0-.174-.137-.175-.305s-.118-.529-.261-.804c-.144-.274-.261-.647-.261-.829 0-.183-.075-.468-.169-.634-.937-1.682-.738-5.274.348-6.31.05-.048.23-.308.402-.577.36-.566 2.546-2.036 3.028-2.036a.883.883 0 00.544-.217c.153-.153.917-.218 2.551-.218 1.636 0 2.399.064 2.551.218.12.12.457.223.749.23.292.007.767.163 1.055.346.287.183.679.404.87.49.727.329 2.699 3.321 2.699 4.097 0 .125.191.588.427 1.029 1.378 2.592 2.869 3.933 5.755 5.175 1.265.544 5.702.477 6.992-.105.302-.136.632-.248.733-.248.735 0 3.332-2.106 3.332-2.701 0-.143.079-.259.175-.259s.175-.18.175-.4c0-.22.095-.496.212-.613.275-.275.299-3.988.028-4.573-.106-.231-.287-.616-.398-.855-.273-.583-1.146-1.568-1.39-1.568-.106 0-.194-.062-.194-.138 0-.128-1.892-1.124-2.699-1.422-1.312-.485-1.629-.582-2.135-.657-.312-.047-.61-.155-.663-.24s-.329-.155-.614-.155c-.284 0-.799-.116-1.142-.261-.345-.144-.808-.261-1.029-.261s-.453-.079-.512-.174c-.06-.097-.279-.174-.489-.174-.388.001-1.875-.439-2.425-.719-.167-.084-.495-.152-.73-.152-.234 0-.472-.072-.526-.161-.056-.088-.351-.216-.657-.283a5.115 5.115 0 01-.826-.249c-.29-.138-1.23-.545-1.921-.833-.943-.392-3.575-1.683-3.657-1.793-.048-.064-.263-.172-.479-.239s-.393-.195-.393-.285c0-.089-.087-.161-.192-.161-.644 0-5.901-4.673-5.901-5.243 0-.095-.196-.382-.436-.641s-.436-.607-.436-.775c0-.169-.062-.308-.141-.308-.15 0-.73-1.21-.73-1.523 0-.104-.059-.214-.13-.246-.19-.084-.741-1.772-.741-2.268 0-.231-.098-.519-.217-.639-.161-.16-.218-1.212-.218-4.031 0-2.818.057-3.869.218-4.03.119-.12.217-.512.217-.869 0-.359.072-.696.159-.75.088-.054.212-.411.277-.794.064-.383.188-.696.275-.696.088 0 .159-.158.159-.351 0-.194.196-.663.436-1.042s.436-.732.436-.784c0-.935 5.013-6.516 5.863-6.527.11-.001.229-.062.261-.137.086-.198 1.798-1.259 2.032-1.259.11 0 .203-.078.203-.175 0-.096.096-.174.215-.174.118 0 .607-.185 1.088-.412 1.584-.747 2.187-.98 2.523-.98.183 0 .381-.079.439-.174.059-.097.318-.177.576-.178.258-.002.782-.115 1.165-.254a5.19 5.19 0 011.394-.261c.383-.006.814-.088.957-.183.346-.23 7.481-.109 9.312.154m55.281.888c1.092.09 2.067.245 2.168.345.099.1.474.181.832.181s.7.079.759.175c.06.096.284.174.5.174.215 0 .544.115.729.256s.47.258.63.261c.339.007 2.52 1.115 2.937 1.492.155.141.354.255.444.255.089 0 .373.196.632.437.258.238.511.435.562.435.287 0 2.911 2.557 3.678 3.585.279.375.554.721.609.768.056.049.153.205.217.35.14.309.518.921.646 1.045.247.236.692 1.062.692 1.285 0 .139.059.278.131.311.213.096.739 1.192.739 1.542 0 .179.078.372.175.432.096.06.174.283.174.5 0 .215.115.544.256.729.14.187.258.627.261.98s.084.691.181.751c.096.059.175.396.176.75s.118 1.073.259 1.601c.156.582.257 1.743.257 2.96s-.101 2.378-.257 2.96c-.141.527-.258 1.287-.259 1.688-.001.4-.072.772-.158.825-.086.054-.192.392-.238.752-.094.752-.587 2.199-1.102 3.235-.135.271-.246.605-.246.74 0 .136-.078.248-.174.248s-.174.146-.174.326-.117.425-.262.544c-.144.119-.261.325-.261.457s-.079.239-.174.239a.178.178 0 00-.175.182c0 .714-4.786 5.74-5.468 5.74-.065 0-.271.141-.457.313-.585.545-3.886 2.106-5.22 2.469-.431.117-1.1.322-1.486.456a5.195 5.195 0 01-1.427.243c-.397 0-.771.079-.831.174-.068.112-2.642.176-7.145.176h-7.037l-.049 10.404-.049 10.404-.48.854c-.56.998-1.564 1.973-2.509 2.431-.367.178-.813.398-.989.491-1.378.714-6.234.725-7.515.016a15.122 15.122 0 00-1.011-.48c-.765-.333-2.557-2.082-2.565-2.504-.003-.156-.12-.437-.261-.623-.391-.516-.385-56.878.007-57.627.143-.274.26-.62.26-.769 0-.376.56-1.606.73-1.606.076 0 .141-.13.141-.29 0-.812 3.685-3.541 4.781-3.541.205 0 .462-.089.569-.196.455-.454 18.256-.711 22.847-.331M331.084 78.83l-1.784.067V92.99h5.823c3.694 0 5.862-.063 5.932-.174.059-.096.261-.174.449-.174.86 0 2.524-1.524 3.099-2.841 1.805-4.139.711-8.986-2.368-10.493l-.997-.487-4.184-.029c-2.301-.016-4.988.001-5.97.038"/></svg>