<svg xmlns="http://www.w3.org/2000/svg" viewBox="0 0 752 752"><path d="M733 3H18C9.72 3 3 9.72 3 18v716c0 8.28 6.72 15 15 15h715c8.28 0 15-6.72 15-15V18c0-8.28-6.72-15-15-15z" fill-rule="evenodd" clip-rule="evenodd" fill="#fff"/><path d="M155.58 192.6a915.66 915.66 0 01-42.74 34.77c-14.51 11.09-28.5 20.92-41.96 29.48-9.85-13.61-23.58-25.95-41.18-37.04 34.7-22.17 67.34-46.6 97.91-73.32-9.32-13.1-19.95-25.82-31.86-38.17-11.92-12.35-26.17-25.07-42.74-38.18l41.18-32.5a890.543 890.543 0 0139.24 35.9c12.69 12.35 24.21 24.07 34.58 35.15 16.05-16.12 30.31-32.12 42.74-48 12.43-15.87 22.27-30.86 29.53-44.98 9.83 6.55 20.85 13.23 33.02 20.03 12.17 6.8 22.66 12.22 31.47 16.25 9.83 4.54 9.32 7.82-1.55 9.83-2.6.51-6.09 2.02-10.49 4.54-4.41 2.53-10.37 7.06-17.87 13.61-7.52 6.55-17.23 15.38-29.14 26.46-11.92 11.09-26.94 25.7-45.07 43.84 15.02 23.69 26.67 49.51 34.97 77.48 8.28 27.97 14.11 58.46 17.48 91.46 3.36 33.01 4.53 68.54 3.5 106.58-1.04 38.05-3.38 78.99-6.99 122.83-1.55 19.65-4.8 36.41-9.71 50.27-4.93 13.85-12.57 25.82-22.92 35.9-10.37 10.07-24.36 18.64-41.96 25.7-17.62 7.05-39.63 13.85-66.05 20.41-3.11-12.6-7.9-25.45-14.38-38.55-6.48-13.11-14.9-25.96-25.25-38.55 20.71 2.02 38.08 2.27 52.06.76s25.51-5.29 34.58-11.34c9.06-6.05 16.18-14.61 21.37-25.7 5.17-11.08 9.06-25.19 11.66-42.33 1.55-11.08 3.11-24.06 4.66-38.93 1.55-14.86 2.72-30.35 3.5-46.49.78-16.12 1.17-32.5 1.17-49.13 0-16.63-.27-32-.78-46.11-41.96 53.93-88.07 103.82-138.31 149.67-5.18-9.57-10.76-18.14-16.71-25.7-5.96-7.56-14.38-16.12-25.25-25.7 29.53-21.66 58.01-45.85 85.48-72.56 27.45-26.7 54.9-60.72 82.37-102.04-3.63-13.61-7.9-26.57-12.82-38.93a430.664 430.664 0 00-16.74-36.67zm374.54 403.64c42.47-.5 80.42-1.13 113.84-1.89s62.55-1.89 87.42-3.4v63.49c-27.46-2.53-60.22-4.16-98.3-4.91-38.08-.76-81.98-1.13-131.71-1.13-50.25 0-94.29.38-132.1 1.13-37.82.76-70.2 2.39-97.13 4.91v-63.49c24.87 1.51 53.87 2.65 87.03 3.4 33.15.76 71.22 1.39 114.23 1.89v-83.15c-32.64.51-61.78 1.39-87.42 2.65s-48.06 3.15-67.21 5.67v-63.49c19.68 2.53 42.22 4.42 67.6 5.67 25.38 1.26 54.39 2.15 87.03 2.65v-78.61c-26.94 0-49.48.13-67.6.38-18.14.26-33.02.51-44.68.76-11.66.26-20.86.76-27.59 1.51-6.74.76-11.92 1.39-15.54 1.89 1.03-20.15 1.94-46.11 2.72-77.86.78-31.75 1.17-64.25 1.17-97.51 0-17.13-.13-34.13-.39-51.02-.27-16.88-.52-32.88-.78-48-.27-15.12-.66-28.72-1.17-40.82-.52-12.09-1.04-22.17-1.55-30.23 4.66 1.02 10.88 1.89 18.65 2.65s18.65 1.51 32.64 2.27 31.86 1.39 53.62 1.89c21.76.51 49.21.76 82.37.76 32.64 0 59.83-.12 81.59-.38 21.76-.25 39.75-.76 54-1.51 14.24-.76 25.38-1.63 33.41-2.65 8.03-1 14.11-2.01 18.26-3.02-1.04 17.65-2.08 41.7-3.11 72.19-1.04 30.5-1.55 63.12-1.55 97.89 0 31.75.51 63.49 1.55 95.24 1.03 31.75 2.33 58.46 3.88 80.12-3.63-.5-8.81-1.13-15.54-1.89-6.74-.76-16.2-1.25-28.36-1.51-12.18-.25-27.97-.5-47.4-.76-19.43-.25-43.39-.38-71.88-.38v78.61c37.3-.5 70.19-1.38 98.69-2.65 28.48-1.25 52.57-3.14 72.27-5.67v63.49c-20.2-2.52-44.43-4.41-72.65-5.67-28.24-1.25-61-2.14-98.3-2.65v83.14zM473.39 97.36h-96.35v95.24h96.35V97.36zm0 140.59h-96.35v101.29h96.35V237.95zm56.73-45.35h100.24V97.36H530.12v95.24zm0 146.64h100.24V237.95H530.12v101.29z" fill="#bd4d4d"/><path d="M185.69 692.16h4.01v22.07h4.01V704.2h4.01v10.03h4.01v-22.07h4.01v24.07h-2.01v2.01h-2.01v2.01h-4.01v-2.01h-4.01v2.01h-4.01v-2.01h-2.01v-2.01h-2.01v-24.07zm44.13 0v4.01h-16.05v8.02h12.04v4.01h-12.04v8.02h16.05v4.01h-20.06v-28.09h20.06zm4.01 28.08v-28.09h16.05v2.01h2.01v2.01h2.01v8.02h-2.01v4.01h2.01v8.02h-2.01v2.01h-2.01v2.01h-16.05zm4.02-16.05h10.03v-2.01h2.01v-4.01h-2.01v-2.01h-10.03v8.03zm0 12.04h10.03v-2.01h2.01v-4.01h-2.01v-2.01h-10.03v8.03zm78.23-36.97h5.73v11.46h-2.87v2.87h-2.87v2.87h-2.87v2.87h-2.87v2.87h-2.87v2.87h-2.87v2.87h-2.87v2.87h-2.87v8.6h-5.73v-11.46h2.87v-2.87h2.87v-2.87h2.87v-2.87h2.87v-2.87h2.87v-2.87h2.87v-2.87h2.87v-2.87h2.87v-8.6zm49.01 40.98h-4.01v-20.06h2.01v-2.01h2.01v-2.01h2.01v-2.01h2.01v-2.01h4.01v2.01h2.01v2.01h2.01v2.01h2.01v2.01h2.01v20.06h-4.01v-8.02h-12.04v8.02zm0-12.03h12.04v-6.02h-2.01v-2.01h-2.01v-2.01h-4.01v2.01h-2.01v2.01h-2.01v6.02zm20.06 12.03v-28.09h16.05v2.01h2.01v2.01h2.01v20.06h-2.01v2.01h-2.01v2.01h-16.05zm4.02-24.07v20.06h10.03v-2.01h2.01v-16.05h-2.01v-2.01h-10.03zm22.06 16.05h-2.01v-20.06h4.01v18.05h2.01v2.01h2.01v2.01h4.01v-2.01h2.01v-2.01h2.01v-18.05h4.01v20.06h-2.01v2.01h-2.01v2.01h-2.01v2.01h-2.01v2.01h-4.01v-2.01h-2.01v-2.01h-2.01v-2.01h-2.01v-2.01zm42.13-20.06v4.01h-16.05v8.02h12.04v4.01h-12.04v8.02h16.05v4.01H433.3v-28.09h20.06zm10.03 16.05h-2.01v12.04h-4.01v-28.09h16.05v2.01h2.01v2.01h2.01v8.02h-2.01v2.01h-2.01v2.01h-4.01v2.01h2.01v2.01h2.01v2.01h2.01v2.01h2.01v4.01h-4.01v-2.01h-2.01v-2.01h-2.01v-2.01h-2.01v-2.01h-2.01v-2.01h-2.01v-2.01zm-2-12.04v8.02h10.03v-2.01h2.01v-4.01h-2.01v-2.01h-10.03zm28.08 0h-8.02v-4.01h20.06v4.01h-8.02v24.07h-4.01v-24.07zm20.06 24.07v-4.01h4.01v-20.06h-4.01v-4.01h12.04v4.01h-4.01v20.06h4.01v4.01h-12.04zm38.12-24.07h2.01v4.01h-4.01v-2.01h-2.01v-2.01h-8.02v2.01h-2.01v4.01h2.01v2.01h10.03v2.01h2.01v2.01h2.01v8.02h-2.01v2.01h-2.01v2.01h-12.04v-2.01h-2.01v-2.01h-2.01v-4.01h4.01v2.01h2.01v2.01h8.02v-2.01h2.01v-4.01h-2.01v-2.01H533.6v-2.01h-2.01v-2.01h-2.01v-8.02h2.01v-2.01h2.01v-2.01h12.04v2.01h2.01v2.01zm10.03 24.07v-4.01h4.01v-20.06h-4.01v-4.01h12.04v4.01h-4.01v20.06h4.01v4.01h-12.04zm24.07-16.05v16.05h-4.01v-28.09h4.01v6.02h2.01v2.01h2.01v2.01h2.01v2.01h2.01v2.01h2.01v2.01h2.01v-16.05h4.01v28.09h-4.01v-6.02h-2.01v-2.01h-2.01v-2.01h-2.01v-2.01h-2.01v-2.01h-2.01v-2.01h-2.01zm38.12-8.02h2.01v4.01h-4.01v-2.01h-2.01v-2.01h-8.02v2.01h-2.01v16.05h2.01v2.01h8.02v-2.01h2.01v-6.02h-6.02v-4.01h10.03v12.04h-2.01v2.01h-2.01v2.01h-12.04v-2.01h-2.01v-2.01h-2.01v-20.06h2.01v-2.01h2.01v-2.01h12.04v2.01h2.01v2.01z" fill="#6094d4"/></svg>