<svg width="179" height="75" fill="none" xmlns="http://www.w3.org/2000/svg"><g clip-path="url(#clip0_1_100)"><path d="M178.93 0H0v74.61h178.93V0z" fill="#FFC913"/><path d="M56.16 34.83c-.38-1.52-.93-2.73-1.66-3.64-.73-.91-1.68-1.64-2.88-2.19a8.885 8.885 0 00-3.76-.83c-2.17 0-4.03.7-5.59 2.09-1.14 1.02-2 2.54-2.58 4.57h16.47zm0 5.95l2.4 1.26c-.79 1.54-1.69 2.79-2.72 3.74a10.69 10.69 0 01-3.48 2.16c-1.29.49-2.75.74-4.37.74-3.61 0-6.42-1.18-8.46-3.54-2.03-2.36-3.05-5.03-3.05-8.01 0-2.8.86-5.3 2.58-7.49 2.18-2.79 5.1-4.18 8.76-4.18s6.78 1.43 9.03 4.29c1.6 2.02 2.41 4.54 2.44 7.56H39.41c.05 2.57.87 4.67 2.46 6.31 1.59 1.64 3.54 2.46 5.88 2.46 1.13 0 2.22-.2 3.28-.59 1.06-.39 1.97-.91 2.71-1.56.75-.65 1.55-1.69 2.42-3.14v-.01zm17.25-12.59c-1.58 0-3.04.39-4.38 1.17-1.34.78-2.4 1.87-3.2 3.28-.79 1.41-1.19 2.89-1.19 4.46 0 1.57.4 3.04 1.2 4.46.8 1.42 1.87 2.53 3.22 3.32s2.79 1.19 4.33 1.19 3.03-.39 4.42-1.18c1.39-.78 2.47-1.85 3.22-3.18.75-1.34 1.13-2.85 1.13-4.52 0-2.56-.84-4.69-2.53-6.41-1.68-1.72-3.76-2.58-6.22-2.58v-.01zm11.36-2.17v22.1h-2.8v-3.8c-1.19 1.45-2.53 2.54-4.01 3.27s-3.1 1.1-4.86 1.1c-3.13 0-5.8-1.13-8.01-3.4s-3.32-5.03-3.32-8.28c0-3.25 1.12-5.9 3.35-8.16s4.92-3.39 8.06-3.39c1.81 0 3.46.39 4.92 1.16 1.47.77 2.76 1.93 3.87 3.47v-4.06h2.8v-.01zm4.62-8.53h2.85v30.63h-2.85V17.49zm7.43 8.53h2.84v3.82c.99-1.41 2.01-2.44 3.05-3.09 1.44-.87 2.95-1.3 4.53-1.3 1.07 0 2.09.21 3.05.63.96.42 1.75.98 2.36 1.68.61.7 1.14 1.7 1.59 3 .95-1.73 2.13-3.05 3.55-3.95 1.42-.9 2.94-1.35 4.58-1.35 1.53 0 2.87.39 4.04 1.16 1.17.77 2.04 1.85 2.6 3.23.57 1.38.85 3.45.85 6.21v12.06h-2.9V36.06c0-2.37-.17-4-.51-4.88-.34-.89-.92-1.6-1.73-2.14-.82-.54-1.79-.81-2.93-.81-1.38 0-2.63.41-3.78 1.22-1.14.81-1.97 1.9-2.5 3.25s-.79 3.62-.79 6.78v8.65h-2.84V36.82c0-2.67-.17-4.48-.5-5.43-.33-.95-.91-1.72-1.74-2.3-.83-.58-1.81-.86-2.95-.86-1.31 0-2.54.4-3.69 1.19-1.14.79-1.99 1.86-2.54 3.2s-.82 3.39-.82 6.15v9.36H96.8V26.02h.02zm56.07 8.81c-.38-1.52-.93-2.73-1.66-3.64-.73-.91-1.68-1.64-2.88-2.19a8.885 8.885 0 00-3.76-.83c-2.17 0-4.03.7-5.59 2.09-1.14 1.02-2 2.54-2.58 4.57h16.47zm0 5.95l2.4 1.26c-.79 1.54-1.69 2.79-2.72 3.74a10.69 10.69 0 01-3.48 2.16c-1.29.49-2.75.74-4.37.74-3.6 0-6.42-1.18-8.46-3.54-2.03-2.36-3.05-5.03-3.05-8.01 0-2.8.86-5.3 2.58-7.49 2.18-2.79 5.1-4.18 8.76-4.18s6.78 1.43 9.03 4.29c1.6 2.02 2.41 4.54 2.44 7.56h-19.88c.05 2.57.87 4.67 2.46 6.31 1.59 1.64 3.55 2.46 5.88 2.46 1.13 0 2.22-.2 3.28-.59 1.07-.39 1.97-.91 2.72-1.56.75-.65 1.55-1.69 2.42-3.14l-.01-.01zM25.83 48.69h-2.78V25.84h2.78v22.85z" fill="#000"/><path d="M23.05 28.62v-2.78h13.43v2.78H23.05z" fill="#000"/></g><defs><clipPath id="clip0_1_100"><path fill="#fff" d="M0 0h178.93v74.61H0z"/></clipPath></defs></svg>