<svg width="268" height="49" fill="none" xmlns="http://www.w3.org/2000/svg"><path d="M234.918 3.243l-21.473 37.21c-2.194 3.805.554 8.557 4.942 8.557h42.946c4.388 0 7.136-4.752 4.942-8.556l-21.473-37.21c-2.194-3.805-7.679-3.805-9.873 0h-.011zm-106.191 0l-21.473 37.21c-2.194 3.805.554 8.557 4.942 8.557h42.945c4.389 0 7.137-4.752 4.942-8.556l-21.472-37.21c-2.194-3.805-7.68-3.805-9.874 0h-.01zm-106.192 0L1.063 40.453c-2.194 3.805.554 8.557 4.942 8.557H48.95c4.388 0 7.136-4.752 4.942-8.556L32.42 3.244c-2.194-3.805-7.679-3.805-9.873 0h-.01z" fill="#FFC913"/></svg>